<svg width="40" height="40" viewBox="0 0 40 40" fill="none" xmlns="http://www.w3.org/2000/svg">
<path d="M39.6104 16.9812L33.0829 8.50174C32.8412 8.18813 32.4006 8.11076 32.0664 8.32321L27.852 11.0035H22.3554C22.2843 11.0035 22.2135 11.0187 22.1451 11.0386L17.8833 12.2654L13.4612 11.0559L9.1643 8.32321C8.83581 8.11433 8.40318 8.18515 8.15889 8.48805L0.938933 17.4311C0.679472 17.7525 0.722319 18.2217 1.03534 18.491L4.81953 21.7476L8.21453 26.3227C7.22162 27.3805 7.24096 29.0488 8.27404 30.0822C8.73197 30.5398 9.31426 30.7984 9.91322 30.8585C9.8924 30.9942 9.88168 31.1319 9.88168 31.2718C9.88168 31.9936 10.1629 32.6723 10.6732 33.1826C11.1837 33.6932 11.8624 33.9744 12.5843 33.9744C12.5941 33.9744 12.6036 33.9738 12.6132 33.9735C12.6129 33.9919 12.612 34.0101 12.612 34.0285C12.612 34.7504 12.8931 35.4291 13.4034 35.9397C13.914 36.45 14.5927 36.7311 15.3146 36.7311C15.4571 36.7311 15.5981 36.7195 15.7365 36.6981C15.7951 37.2992 16.0543 37.8841 16.5137 38.3435C17.0403 38.8705 17.7324 39.1338 18.4245 39.1338C19.1166 39.1338 19.8087 38.8705 20.3357 38.3435L20.749 37.9303L20.9224 38.0701C21.4449 38.5762 22.1233 38.8291 22.8017 38.8291C23.4938 38.8291 24.1859 38.5658 24.7126 38.0389C25.2502 37.5012 25.5136 36.7915 25.5026 36.0855C26.2083 36.0962 26.9183 35.8331 27.456 35.2958C27.993 34.7584 28.2564 34.0494 28.2459 33.3436C28.9812 33.3552 29.6786 33.0728 30.199 32.5524C30.7367 32.0147 31 31.3051 30.989 30.599C31.6954 30.6097 32.4047 30.3467 32.9424 29.809C33.86 28.8914 33.9782 27.473 33.2977 26.4259L35.7765 21.2343L39.5033 18.0274C39.8113 17.7623 39.8583 17.3029 39.6104 16.9812ZM8.91972 9.98025L12.0094 11.9449L5.28817 20.1334L2.59478 17.8152L8.91972 9.98025ZM9.35562 27.3415L10.2881 26.409C10.3164 26.3807 10.3462 26.3539 10.3765 26.3289C10.5589 26.1802 10.7797 26.0915 11.0135 26.0704C11.0201 26.0698 11.0269 26.0698 11.0335 26.0695C11.0668 26.0668 11.1001 26.065 11.1338 26.0653C11.4533 26.0698 11.7503 26.2004 11.9705 26.4328C12.4025 26.8895 12.3793 27.6357 11.9187 28.0964L11.0144 29.0006C10.5571 29.4579 9.81295 29.4579 9.35562 29.0006C8.89829 28.543 8.89829 27.7988 9.35562 27.3415ZM11.7547 32.101C11.5331 31.8797 11.4111 31.5851 11.4111 31.2718C11.4111 30.9584 11.5331 30.6639 11.7547 30.4422L13.5629 28.634C13.9093 28.2877 14.4538 28.1928 14.8965 28.4037C15.353 28.6212 15.6097 29.1166 15.5428 29.615C15.5071 29.881 15.3833 30.1316 15.1935 30.3217L13.4139 32.101C13.1922 32.3227 12.8976 32.4447 12.5843 32.4447C12.271 32.4447 11.9764 32.3227 11.7547 32.101ZM14.485 34.8578C14.2633 34.6364 14.1414 34.3418 14.1414 34.0285C14.1414 33.7152 14.2633 33.4206 14.485 33.199L16.2929 31.3908C16.6634 31.0206 17.2576 30.9409 17.711 31.2048C18.1252 31.4458 18.3421 31.9189 18.271 32.3902C18.232 32.6494 18.1088 32.8931 17.9235 33.0785L16.1441 34.8578C15.9225 35.0795 15.6279 35.2015 15.3146 35.2015C15.0013 35.2015 14.7067 35.0795 14.485 34.8578ZM17.595 37.262C17.1376 36.8046 17.1376 36.0605 17.595 35.6031L18.5275 34.6706C18.5558 34.6424 18.5852 34.6159 18.6156 34.5909C18.6165 34.5903 18.617 34.5897 18.6176 34.5891C18.7694 34.4659 18.9476 34.3835 19.1378 34.3475C19.1422 34.3469 19.1467 34.3463 19.1511 34.3457C19.1839 34.3398 19.2172 34.335 19.2505 34.332C19.2639 34.3308 19.2773 34.3308 19.291 34.3299C19.3184 34.3285 19.3454 34.3267 19.3731 34.327C19.6924 34.3314 19.9896 34.4618 20.2098 34.6944C20.2369 34.723 20.2622 34.7528 20.2854 34.7834C20.6371 35.2431 20.5898 35.926 20.1533 36.3628L19.2538 37.2623C18.7965 37.7196 18.0523 37.7193 17.595 37.262ZM31.8608 28.7274C31.4035 29.1851 30.6593 29.1848 30.202 28.7274C30.1853 28.7108 30.1678 28.6953 30.1499 28.6807L25.2327 23.7117C24.9354 23.4115 24.4513 23.4091 24.1511 23.7064C23.8509 24.0033 23.8485 24.4874 24.1455 24.7876L29.116 29.8099C29.1166 29.8105 29.1172 29.8111 29.1177 29.8117C29.5751 30.269 29.5751 31.0135 29.1177 31.4708C28.8961 31.6925 28.6015 31.8145 28.2882 31.8145C27.9746 31.8145 27.68 31.6925 27.4586 31.4708L24.1336 28.1112C23.8366 27.811 23.3525 27.8086 23.0523 28.1056C22.752 28.4028 22.7497 28.8869 23.0466 29.1872L26.3208 32.4953C26.3375 32.5161 26.3553 32.536 26.3744 32.5551C26.8317 33.0124 26.8317 33.7569 26.3744 34.2142C25.9167 34.6715 25.1723 34.6712 24.715 34.2139L22.9002 32.3801C22.603 32.0799 22.1189 32.0772 21.8186 32.3745C21.5184 32.6714 21.516 33.1555 21.813 33.4558L23.5771 35.2381C23.5938 35.2589 23.6117 35.2791 23.631 35.2982C24.0883 35.7555 24.0883 36.4999 23.631 36.9573C23.1737 37.4149 22.4295 37.4146 21.9722 36.9573C21.9195 36.9046 21.8576 36.8641 21.7987 36.8189C21.7487 36.7808 21.7356 36.7544 21.7606 36.6937C21.7859 36.6321 21.8237 36.5764 21.849 36.5145C21.877 36.4455 21.8996 36.3744 21.9216 36.303C22.0388 35.9251 22.0733 35.5186 22.0207 35.1265C21.9195 34.374 21.5056 33.695 20.8784 33.2653C20.5395 33.0335 20.1473 32.8815 19.7409 32.8244C19.9379 31.9555 19.7013 31.0135 19.086 30.3634C18.5796 29.8284 17.8955 29.5281 17.1597 29.518C17.1329 29.5177 17.1061 29.5177 17.079 29.518C17.0954 28.8158 16.8401 28.1181 16.356 27.6066C15.8493 27.0716 15.1652 26.7714 14.4297 26.7613C14.211 26.7583 13.9902 26.7815 13.7772 26.8306C13.6861 26.1971 13.3668 25.6109 12.8833 25.1917C12.4028 24.7757 11.7985 24.5448 11.1549 24.5359C10.4774 24.5261 9.81176 24.776 9.30861 25.2304L6.35249 21.2471L13.4246 12.6314L15.6785 13.2479L12.7349 18.4422C12.379 19.0703 12.2891 19.7993 12.4816 20.4949C12.6742 21.1909 13.1258 21.7699 13.754 22.1258C13.7932 22.1481 13.8328 22.1692 13.873 22.1895C13.8759 22.1909 13.8789 22.1924 13.8822 22.1939C13.9878 22.2466 14.0964 22.2918 14.2065 22.3299C14.7192 22.5075 15.2729 22.5269 15.807 22.3793C16.5027 22.1868 17.0817 21.7348 17.4376 21.107L19.3505 17.7313L22.766 17.9735L31.8611 27.0683C32.3182 27.526 32.3182 28.2701 31.8608 28.7274ZM32.1777 25.2221L23.6456 16.6902C23.6295 16.6738 23.6125 16.6584 23.595 16.6438C23.4721 16.5414 23.3198 16.4795 23.1591 16.4682L18.9771 16.1716C18.6879 16.1517 18.4004 16.3055 18.2576 16.5575L16.1069 20.353C15.9525 20.6256 15.7011 20.8216 15.3991 20.9053C15.0974 20.9889 14.7808 20.9496 14.5079 20.7952C14.2354 20.6407 14.0393 20.3893 13.9557 20.0873C13.8721 19.7853 13.9111 19.4687 14.0658 19.1961L16.9368 14.1292L18.1002 13.7945C18.1079 13.7921 18.1154 13.7891 18.1231 13.7868L22.4652 12.5329H27.7115L34.2611 20.8588L32.1777 25.2221ZM35.263 19.6585L29.2061 11.9548L32.2973 9.98888L37.957 17.3404L35.263 19.6585Z" fill="white"/>
<path d="M24.3965 9.56737C24.5923 9.56737 24.7881 9.49269 24.9375 9.34332L30.1612 4.1196C30.4599 3.82086 30.4599 3.33675 30.1612 3.03802C29.8625 2.73928 29.3783 2.73928 29.0796 3.03802L23.8559 8.26174C23.5572 8.56047 23.5572 9.04458 23.8559 9.34332C24.0053 9.49269 24.201 9.56737 24.3965 9.56737Z" fill="white"/>
<path d="M15.6011 9.34332C15.7505 9.49269 15.9462 9.56737 16.142 9.56737C16.3375 9.56737 16.5333 9.49269 16.6827 9.34332C16.9814 9.04458 16.9814 8.56047 16.6827 8.26174L11.459 3.03802C11.1602 2.73928 10.6761 2.73928 10.3774 3.03802C10.0786 3.33675 10.0786 3.82086 10.3774 4.1196L15.6011 9.34332Z" fill="white"/>
<path d="M20.2693 9.5674C20.6916 9.5674 21.034 9.22493 21.034 8.80271V4.47966C21.034 4.05744 20.6916 3.71497 20.2693 3.71497C19.8471 3.71497 19.5046 4.05744 19.5046 4.47966V8.80271C19.5046 9.22493 19.8471 9.5674 20.2693 9.5674Z" fill="white"/>
<path d="M19.5636 1.70805C19.685 2.00232 19.9876 2.19543 20.3068 2.17876C20.6222 2.1624 20.8993 1.94936 20.9969 1.64913C21.0947 1.34653 20.9882 1.00167 20.7347 0.808862C20.4761 0.611886 20.1155 0.600877 19.845 0.779702C19.5433 0.979058 19.4264 1.37598 19.5636 1.70805Z" fill="white"/>
</svg>
