<svg width="38" height="38" viewBox="0 0 38 38" fill="none" xmlns="http://www.w3.org/2000/svg">
<path d="M11.5684 26.4728L11.5466 26.4511C11.2561 26.162 10.7863 26.1631 10.497 26.4536C10.2079 26.7442 10.209 27.2141 10.4995 27.5032L10.5238 27.5273C10.6685 27.6707 10.8574 27.7423 11.0461 27.7423C11.2372 27.7423 11.4283 27.6689 11.5734 27.5224C11.8619 27.2312 11.8597 26.7613 11.5684 26.4728Z" fill="white"/>
<path d="M27.502 10.4981C22.8141 5.81019 15.1861 5.81019 10.4982 10.4981C6.66049 14.3358 5.86954 20.2972 8.57466 24.9951C8.77921 25.3504 9.23306 25.4724 9.58819 25.268C9.94341 25.0634 10.0656 24.6096 9.86102 24.2544C7.4901 20.137 8.18375 14.9119 11.5478 11.5477C15.657 7.43855 22.3432 7.43855 26.4523 11.5477C30.5615 15.6569 30.5615 22.3431 26.4523 26.4523C23.0678 29.8368 17.8208 30.5178 13.6927 28.1083C13.3386 27.9016 12.8842 28.0211 12.6776 28.3752C12.4709 28.7292 12.5904 29.1838 12.9444 29.3904C14.828 30.4898 16.9154 31.0252 18.9896 31.0252C22.1022 31.0252 25.185 29.8189 27.502 27.5019C32.1899 22.8139 32.1899 15.1861 27.502 10.4981Z" fill="white"/>
<path d="M37.9974 15.739C37.9973 15.374 37.7318 15.0633 37.3714 15.0062L34.6317 14.5721L33.1783 11.067L34.8069 8.82157C35.0212 8.52618 34.9889 8.11879 34.7307 7.86088L30.1276 3.26087C29.8694 3.00289 29.462 2.97083 29.1668 3.18539L26.9235 4.81502L23.4159 3.36367L22.98 0.625441C22.9225 0.265184 22.6119 0 22.247 0C22.2469 0 22.2468 0 22.2467 0L15.739 0.00267187C15.374 0.00282031 15.0634 0.268301 15.0062 0.628707L14.5722 3.36834L11.0671 4.82177L8.82164 3.19319C8.52632 2.97892 8.11894 3.0112 7.86095 3.26934L3.26095 7.87246C3.00296 8.13066 2.97098 8.53805 3.18547 8.83329L4.81509 11.0766L3.36374 14.5841L0.625516 15.0201C0.265109 15.0775 -0.000148375 15.3884 6.22678e-08 15.7533L0.00267194 22.261C0.00282037 22.6259 0.268301 22.9366 0.628707 22.9937L3.36834 23.4278L4.82177 26.9329L3.19319 29.1784C2.97892 29.4738 3.0112 29.8811 3.26934 30.139L7.87246 34.7391C8.13066 34.997 8.53813 35.0291 8.83329 34.8145L11.0766 33.1849L14.5841 34.6363L15.0201 37.3745C15.0775 37.7348 15.3881 38 15.753 38C15.7531 38 15.7532 38 15.7533 38L22.261 37.9973C22.6259 37.9971 22.9366 37.7316 22.9937 37.3712L23.4278 34.6316L26.9329 33.1782L29.1784 34.8067C29.4738 35.0211 29.8811 34.9887 30.139 34.7306L34.7391 30.1275C34.997 29.8693 35.029 29.4619 34.8145 29.1666L33.1849 26.9234L34.6363 23.4158L37.3745 22.9798C37.7349 22.9225 38.0001 22.6116 38 22.2466L37.9974 15.739ZM33.9927 22.0152C33.7378 22.0558 33.5223 22.2258 33.4236 22.4644L31.6546 26.7397C31.5559 26.9781 31.5882 27.2508 31.7399 27.4597L33.2413 29.5264L29.5371 33.2332L27.4682 31.7327C27.2594 31.5811 26.9867 31.5491 26.7481 31.6478L22.4755 33.4196C22.2371 33.5184 22.0672 33.7341 22.0268 33.989L21.6268 36.5131L16.3865 36.5153L15.9848 33.9926C15.9442 33.7377 15.7742 33.5222 15.5356 33.4235L11.2603 31.6545C11.169 31.6167 11.0725 31.5981 10.9767 31.5981C10.8223 31.5981 10.6692 31.6463 10.5404 31.7399L8.4737 33.2412L4.76692 29.537L6.2674 27.4681C6.41896 27.2592 6.45102 26.9865 6.35216 26.7481L4.58048 22.4754C4.48163 22.2371 4.26602 22.0671 4.01108 22.0267L1.4869 21.6267L1.48475 16.3864L4.00744 15.9847C4.26238 15.9441 4.47784 15.7741 4.57655 15.5355L6.34555 11.2602C6.44427 11.0218 6.41191 10.7491 6.2602 10.5403L4.75883 8.47355L8.46309 4.76677L10.5319 6.26725C10.7409 6.41881 11.0135 6.45102 11.252 6.35209L15.5246 4.58034C15.763 4.48148 15.933 4.2658 15.9734 4.01093L16.3733 1.48675L21.6137 1.4846L22.0154 4.00729C22.056 4.26223 22.226 4.47769 22.4645 4.5764L26.7398 6.34541C26.9783 6.44397 27.251 6.41176 27.4598 6.26005L29.5265 4.75868L33.2333 8.46294L31.7328 10.5318C31.5813 10.7407 31.5492 11.0134 31.6481 11.2519L33.4197 15.5245C33.5186 15.7629 33.7342 15.9328 33.9891 15.9732L36.5133 16.3732L36.5155 21.6135L33.9927 22.0152Z" fill="white"/>
<path d="M25.7615 19.9247C24.8332 19.0813 23.5857 18.715 22.3543 18.9067L19.0948 15.6472C19.2931 14.3561 18.8673 13.0274 17.934 12.0941C16.7638 10.9239 15.0144 10.5655 13.477 11.1809C13.2454 11.2736 13.0758 11.4764 13.0257 11.7207C12.9756 11.9651 13.0516 12.2183 13.228 12.3947L14.3042 13.4709C14.5319 13.6987 14.5319 14.0693 14.3042 14.2972C14.0764 14.525 13.7057 14.525 13.4779 14.2972L12.398 13.2172C12.222 13.0412 11.9696 12.965 11.7255 13.0147C11.4816 13.0642 11.2786 13.2327 11.1853 13.4635C10.5382 15.0616 10.9616 16.9149 12.2388 18.0753C13.168 18.9197 14.4165 19.2859 15.6492 19.0929L18.9057 22.3495C18.7062 23.6416 19.1318 24.9715 20.0661 25.906C20.8568 26.6966 21.9103 27.1165 22.9846 27.1165C23.5057 27.1165 24.0319 27.0176 24.5351 26.8143C24.766 26.7211 24.9348 26.5182 24.9845 26.2742C25.0341 26.0301 24.9581 25.7775 24.782 25.6014L23.7107 24.53C23.4829 24.3022 23.4829 23.9316 23.7107 23.7037C23.9385 23.4759 24.3091 23.4759 24.537 23.7037L25.6061 24.7729C25.7824 24.9491 26.0355 25.0253 26.2798 24.9752C26.5241 24.9252 26.7269 24.7559 26.8197 24.5244C27.4597 22.9296 27.0344 21.0811 25.7615 19.9247ZM25.5865 22.6542C24.7799 21.8477 23.4675 21.8476 22.661 22.6542C21.8544 23.4608 21.8544 24.7732 22.661 25.5797L22.6972 25.616C22.1112 25.5517 21.5511 25.2918 21.1157 24.8564C20.4499 24.1905 20.1873 23.2108 20.4307 22.2994C20.4991 22.0434 20.4258 21.7705 20.2385 21.5832L16.4153 17.76C16.2743 17.619 16.0847 17.5426 15.8904 17.5426C15.8271 17.5426 15.7631 17.5507 15.7002 17.5674C14.8212 17.8008 13.9003 17.5798 13.2368 16.9768C12.7494 16.5338 12.4558 15.9336 12.3855 15.3042L12.4282 15.3469C13.2348 16.1534 14.5472 16.1535 15.3538 15.3469C16.1603 14.5402 16.1603 13.2279 15.3538 12.4214L15.3187 12.3863C15.8991 12.4535 16.4532 12.7126 16.8843 13.1438C17.5494 13.8089 17.812 14.7878 17.5699 15.6984C17.5018 15.9542 17.5751 16.2269 17.7623 16.414L21.5877 20.2394C21.7746 20.4262 22.0465 20.4997 22.3021 20.4322C23.1802 20.2002 24.1003 20.4212 24.7632 21.0234C25.2462 21.4622 25.5389 22.0563 25.6124 22.68L25.5865 22.6542Z" fill="white"/>
<path d="M25.7793 13.7C24.5561 12.1375 22.8221 11.0384 20.8965 10.6051C20.4967 10.515 20.0994 10.7663 20.0095 11.1662C19.9195 11.5662 20.1707 11.9633 20.5706 12.0532C22.1631 12.4116 23.5979 13.3213 24.6105 14.615C24.7569 14.8021 24.9751 14.8997 25.1954 14.8997C25.3554 14.8997 25.5166 14.8482 25.6524 14.742C25.9752 14.4893 26.032 14.0228 25.7793 13.7Z" fill="white"/>
<path d="M27.1974 16.3763L27.1866 16.3427C27.0606 15.9526 26.6424 15.7387 26.2522 15.8645C25.8622 15.9905 25.648 16.4088 25.7741 16.7989L25.7835 16.828C25.8842 17.1433 26.1761 17.3445 26.4903 17.3445C26.5651 17.3445 26.6412 17.3331 26.7163 17.3091C27.1067 17.1844 27.3222 16.7667 27.1974 16.3763Z" fill="white"/>
</svg>
