<svg width="43" height="36" viewBox="0 0 43 36" fill="none" xmlns="http://www.w3.org/2000/svg">
<path d="M31.7333 36C31.2798 35.9979 30.8389 35.8521 30.4736 35.5828L21.8523 29.3188C21.6018 29.1368 21.2628 29.1368 21.0123 29.3188L12.391 35.5828C11.6396 36.128 10.6227 36.128 9.8717 35.5825C9.12067 35.0365 8.80637 34.0696 9.09311 33.1867L12.3857 23.0514C12.4813 22.757 12.3766 22.4347 12.1265 22.2526L3.50484 15.9886C2.75381 15.4431 2.43952 14.4758 2.7266 13.5929C3.01334 12.7096 3.83623 12.1117 4.76447 12.1117H15.4212C15.7307 12.1117 16.0052 11.9122 16.1008 11.6181L19.3934 1.48288C19.6798 0.598942 20.503 0 21.4323 0C22.3616 0 23.1848 0.598942 23.4712 1.48288L26.7638 11.6181C26.8594 11.9122 27.1339 12.1117 27.4433 12.1117H38.1001C39.0283 12.1117 39.8512 12.7096 40.138 13.5929C40.4251 14.4758 40.1108 15.4431 39.3597 15.9886L30.738 22.2561C30.4879 22.4382 30.3833 22.7605 30.4789 23.0549L33.7715 33.1867C34.0694 34.0696 33.7533 35.0432 32.9936 35.5828C32.628 35.8517 32.1871 35.9979 31.7333 36ZM21.4323 27.7523C21.8854 27.7523 22.3267 27.896 22.6926 28.1628L31.314 34.4268C31.5644 34.6082 31.9031 34.6078 32.1532 34.4261C32.4034 34.2443 32.508 33.9224 32.4128 33.628L29.1191 23.4927C28.8324 22.6098 29.1467 21.6425 29.8981 21.0966L38.5194 14.833C38.7699 14.6509 38.8745 14.3286 38.7789 14.0345C38.6833 13.7401 38.4095 13.5409 38.1001 13.5406H27.4433C26.514 13.5423 25.6901 12.9437 25.4051 12.0594L22.1118 1.92415C22.0152 1.63113 21.7417 1.433 21.433 1.433C21.1243 1.433 20.8508 1.63113 20.7542 1.92415L17.4609 12.0594C17.1755 12.9444 16.3509 13.543 15.4212 13.5406H4.76447C4.45506 13.5409 4.18123 13.7401 4.08565 14.0345C3.99007 14.3286 4.09472 14.6509 4.34518 14.833L12.9665 21.0966C13.7179 21.6425 14.0322 22.6098 13.7455 23.4927L10.4518 33.628C10.3566 33.9224 10.4612 34.2443 10.7113 34.4261C10.9614 34.6078 11.3002 34.6082 11.5506 34.4268L20.172 28.1628C20.5382 27.8963 20.9795 27.7526 21.4323 27.7523Z" fill="white"/>
<path d="M42.15 32.8295H35.0059V31.4007H40.7212L37.2922 26.8286C37.1013 26.5743 37.1013 26.2251 37.2922 25.9711L40.7212 21.399H37.8635V19.9702H42.15C42.4207 19.9702 42.668 20.123 42.789 20.3651C42.9101 20.6072 42.8839 20.8967 42.7214 21.1133L38.7565 26.3999L42.7214 31.6864C42.8839 31.903 42.9101 32.1925 42.789 32.4346C42.668 32.6767 42.4207 32.8295 42.15 32.8295Z" fill="white"/>
<path d="M7.85852 32.8295H0.714475C0.443783 32.8295 0.196462 32.6767 0.0754178 32.4346C-0.0456264 32.1925 -0.0194641 31.903 0.143091 31.6864L4.1079 26.3999L0.143091 21.1133C-0.0194641 20.8967 -0.0456264 20.6072 0.0754178 20.3651C0.196462 20.123 0.443783 19.9702 0.714475 19.9702H7.85852V21.399H2.14328L5.57229 25.9711C5.7631 26.2251 5.7631 26.5743 5.57229 26.8286L2.14328 31.4007H7.85852V32.8295Z" fill="white"/>
<path d="M22.1467 24.2566V14.9694C22.1467 14.6987 21.9939 14.4514 21.7518 14.3303C21.5097 14.2093 21.2202 14.2354 21.0036 14.3977L18.1459 16.5409L19.0034 17.684L20.7179 16.3982V24.2566H18.5746V25.6855H24.2899V24.2566H22.1467Z" fill="white"/>
<path d="M35.0059 19.9702H36.4347V21.399H35.0059V19.9702Z" fill="white"/>
</svg>
