<svg width="34" height="43" viewBox="0 0 34 43" fill="none" xmlns="http://www.w3.org/2000/svg">
<path d="M17.0231 7.63383C13.5074 7.69224 10.1431 9.07484 7.60236 11.5055C5.02125 13.9576 3.56858 17.1525 3.51203 20.5011C3.48455 22.2067 3.8004 23.9004 4.44078 25.4815C5.08117 27.0626 6.033 28.4988 7.23967 29.7045C9.24423 31.7 10.2835 34.4643 10.0832 37.1939H9.31861C9.13763 37.1939 8.96406 37.2658 8.83608 37.3938C8.7081 37.5218 8.63621 37.6953 8.63621 37.8763C8.63621 38.0573 8.7081 38.2309 8.83608 38.3589C8.96406 38.4868 9.13763 38.5587 9.31861 38.5587H10.8558V42.2231C10.8587 42.4057 10.9333 42.5799 11.0633 42.7081C11.1934 42.8363 11.3686 42.9083 11.5513 42.9086H22.9555C23.1382 42.9083 23.3135 42.8362 23.4435 42.7079C23.5736 42.5796 23.6481 42.4053 23.6509 42.2227V38.5583H25.1883C25.3693 38.5583 25.5428 38.4864 25.6708 38.3584C25.7988 38.2305 25.8707 38.0569 25.8707 37.8759C25.8707 37.6949 25.7988 37.5213 25.6708 37.3934C25.5428 37.2654 25.3693 37.1935 25.1883 37.1935H24.2631C24.0383 34.3786 25.0323 31.8702 27.1578 29.7571C27.16 29.7549 27.1621 29.7439 27.1643 29.7417C29.5995 27.2545 30.9407 24.0503 30.9407 20.7272C30.9407 17.3124 29.5684 14.0768 27.0766 11.6205C24.414 8.99608 20.8427 7.57949 17.0231 7.63383ZM22.2861 41.5438H12.2206V38.5583H22.2861V41.5438ZM26.1923 28.7924C23.8358 31.1371 22.6817 34.0374 22.8958 37.1935H11.4504C11.6466 34.0374 10.4641 30.9882 8.2016 28.7365C7.12533 27.6623 6.27628 26.3825 5.70503 24.9732C5.13379 23.564 4.85205 22.0542 4.87658 20.5338C4.92699 17.5534 6.22885 14.6972 8.54238 12.4993C10.8345 10.3045 13.8702 9.05512 17.0433 9.00069C20.4944 8.95036 23.7181 10.2255 26.1183 12.5918C28.348 14.7896 29.5759 17.686 29.5759 20.7324C29.5759 23.6947 28.3743 26.5623 26.1923 28.7924Z" fill="white"/>
<path d="M16.9121 4.88034C17.0931 4.88034 17.2667 4.80845 17.3947 4.68047C17.5227 4.5525 17.5945 4.37892 17.5945 4.19794V0.773714C17.5945 0.592729 17.5227 0.419156 17.3947 0.29118C17.2667 0.163205 17.0931 0.0913086 16.9121 0.0913086C16.7312 0.0913086 16.5576 0.163205 16.4296 0.29118C16.3016 0.419156 16.2297 0.592729 16.2297 0.773714V4.19794C16.2297 4.37892 16.3016 4.5525 16.4296 4.68047C16.5576 4.80845 16.7312 4.88034 16.9121 4.88034Z" fill="white"/>
<path d="M32.8696 7.39744L29.7551 10.1041C29.6185 10.2229 29.5347 10.3911 29.522 10.5716C29.5094 10.7522 29.5691 10.9304 29.6878 11.067C29.8066 11.2036 29.9748 11.2875 30.1554 11.3001C30.336 11.3127 30.5141 11.2531 30.6508 11.1343L33.7653 8.42761C33.8329 8.3688 33.8883 8.29725 33.9283 8.21703C33.9683 8.13681 33.9921 8.0495 33.9983 7.96008C34.0046 7.87067 33.9931 7.7809 33.9647 7.6959C33.9362 7.6109 33.8913 7.53234 33.8325 7.4647C33.7737 7.39705 33.7022 7.34166 33.6219 7.30167C33.5417 7.26168 33.4544 7.23789 33.365 7.23164C33.2756 7.22539 33.1858 7.23682 33.1008 7.26527C33.0158 7.29372 32.9372 7.33863 32.8696 7.39744Z" fill="white"/>
<path d="M4.13838 10.8304C4.27475 10.8304 4.40801 10.7896 4.52095 10.7131C4.6339 10.6367 4.72135 10.5282 4.77204 10.4016C4.82272 10.275 4.83431 10.1361 4.80531 10.0028C4.7763 9.86958 4.70804 9.74808 4.60932 9.65399L1.66022 6.84265C1.59536 6.78081 1.51895 6.73236 1.43536 6.70006C1.35177 6.66775 1.26264 6.65223 1.17305 6.65437C1.08346 6.65651 0.99517 6.67628 0.91322 6.71254C0.83127 6.74881 0.757265 6.80086 0.695431 6.86572C0.633597 6.93059 0.585144 7.00699 0.552839 7.09058C0.520535 7.17417 0.50501 7.26331 0.507153 7.3529C0.509296 7.44249 0.529063 7.53078 0.565327 7.61273C0.601591 7.69468 0.653641 7.76868 0.718505 7.83052L3.6676 10.6419C3.79435 10.7631 3.96302 10.8306 4.13838 10.8304Z" fill="white"/>
<path d="M25.2019 20.7715C26.4028 18.8071 26.6122 17.0659 25.7915 15.8686C24.9709 14.6713 23.2714 14.2388 21.0062 14.6504C20.9806 14.655 20.955 14.6609 20.9299 14.6657C20.9196 14.6422 20.9099 14.6175 20.8994 14.5941C19.9581 12.4929 18.6403 11.3356 17.1888 11.3356C17.0948 11.3361 17.0008 11.3416 16.9073 11.3519C16.5125 10.9991 16.0023 10.803 15.4728 10.8004C14.9433 10.7979 14.4312 10.9892 14.033 11.3382C13.6349 11.6872 13.3781 12.1698 13.3113 12.695C13.2444 13.2203 13.372 13.7518 13.67 14.1895C13.5928 14.3433 13.5183 14.502 13.4466 14.6655C13.4215 14.6608 13.396 14.6549 13.3711 14.6504C11.1058 14.2388 9.40615 14.6715 8.58572 15.8686C7.7653 17.0657 7.97446 18.8071 9.17541 20.7715C9.37808 21.1031 9.60592 21.4356 9.85594 21.7671C9.83666 21.7926 9.81752 21.8182 9.79853 21.8439C9.30855 21.738 8.797 21.8051 8.3509 22.0337C7.90479 22.2624 7.55167 22.6386 7.3516 23.0982C7.15153 23.5579 7.11687 24.0726 7.2535 24.5549C7.39013 25.0373 7.68963 25.4574 8.10105 25.7438C8.0584 26.4769 8.22209 27.1333 8.58538 27.663C9.20364 28.565 10.3207 29.033 11.8027 29.033C12.3289 29.0293 12.8538 28.9786 13.371 28.8813C13.3962 28.8767 13.4222 28.8708 13.4473 28.866C13.4576 28.8896 13.4673 28.9141 13.4778 28.9375C14.4191 31.0388 15.7369 32.196 17.1884 32.196C18.6399 32.196 19.9577 31.0387 20.899 28.9375C20.9094 28.9141 20.9191 28.8896 20.9295 28.866C20.9551 28.8708 20.9807 28.8767 21.0058 28.8813C21.5229 28.9786 22.0478 29.0294 22.574 29.033C24.0559 29.033 25.1732 28.5649 25.7914 27.663C26.1411 27.1533 26.3059 26.5255 26.2795 25.8256C26.7291 25.5567 27.0663 25.1341 27.2286 24.6359C27.3908 24.1377 27.3673 23.5976 27.1624 23.1154C26.9574 22.6332 26.5848 22.2415 26.1135 22.0127C25.6422 21.7839 25.104 21.7334 24.5983 21.8705C24.5727 21.8359 24.5471 21.8013 24.5215 21.7667C24.7715 21.4353 24.9993 21.1029 25.2019 20.7715ZM20.0802 27.2565C19.6171 27.1188 19.1613 26.958 18.7143 26.7745C19.1607 26.5124 19.6038 26.2311 20.0434 25.9306C20.2011 25.8225 20.3566 25.7128 20.5098 25.6014C20.3989 26.161 20.2555 26.7136 20.0802 27.2565ZM14.2946 27.2554C14.1203 26.7129 13.9777 26.1607 13.8675 25.6016C14.021 25.7126 14.1764 25.8223 14.3337 25.9306C14.7722 26.2311 15.2151 26.5124 15.6625 26.7743C15.2149 26.9575 14.7584 27.1181 14.2946 27.2554ZM12.147 22.3364C11.9632 22.1478 11.7869 21.9581 11.6182 21.7673C11.7865 21.5769 11.9624 21.3875 12.146 21.1991C12.1413 21.3871 12.1389 21.576 12.1388 21.7659C12.1393 21.9569 12.1423 22.147 12.147 22.3364ZM15.1054 24.8049C14.5731 24.44 14.0663 24.0572 13.5891 23.6624C13.5332 23.0456 13.5038 22.4112 13.5038 21.7659C13.5038 21.1205 13.5327 20.4875 13.5882 19.8722C14.0675 19.4746 14.5747 19.0903 15.1051 18.7267C15.774 18.2671 16.4694 17.8473 17.1877 17.4696C17.9063 17.8474 18.6021 18.2672 19.2715 18.7267C19.802 19.0904 20.3089 19.4744 20.7879 19.8716C20.8437 20.4875 20.8727 21.1212 20.8727 21.7653C20.8727 22.4232 20.8431 23.0565 20.7882 23.6613C20.311 24.0564 19.804 24.4392 19.2715 24.8044C18.6027 25.264 17.9075 25.6838 17.1893 26.0617C16.4707 25.6839 15.7748 25.2643 15.1054 24.8049ZM14.2933 16.274C14.7577 16.4119 15.2149 16.5732 15.6631 16.7573C15.2168 17.0193 14.7737 17.3006 14.3341 17.6011C14.1756 17.7097 14.0198 17.8206 13.8649 17.9325C13.9752 17.3718 14.1182 16.818 14.2933 16.274ZM20.0829 16.2769C20.2572 16.8194 20.3998 17.3716 20.51 17.9307C20.3564 17.8194 20.201 17.7095 20.0437 17.6011C19.6054 17.3006 19.1613 17.0195 18.7151 16.7575C19.1626 16.5745 19.619 16.414 20.0825 16.2769H20.0829ZM22.2304 21.1981C22.4142 21.3866 22.5904 21.5763 22.7593 21.7671C22.5907 21.958 22.4144 22.1478 22.2304 22.3364C22.2351 22.147 22.2382 21.9569 22.2382 21.7659C22.2382 21.5748 22.2348 21.3865 22.2301 21.1981H22.2304ZM24.6658 16.6403C25.1569 17.3568 24.9279 18.6031 24.0374 20.0597C23.9099 20.2682 23.7714 20.4773 23.6219 20.6868C23.1391 20.1583 22.6269 19.6574 22.0876 19.1865C21.964 18.0956 21.7391 17.0185 21.4159 15.9693C23.0077 15.7133 24.1973 15.9567 24.6658 16.6403ZM19.584 15.0005C18.7629 15.2542 17.9621 15.5696 17.1886 15.944C16.5316 15.6269 15.8554 15.3513 15.1639 15.1188C15.4713 15.1621 15.7843 15.1388 16.0819 15.0507C16.3795 14.9625 16.6547 14.8114 16.8888 14.6077C17.123 14.404 17.3107 14.1524 17.4392 13.8699C17.5677 13.5874 17.634 13.2805 17.6337 12.9702C17.6337 12.9042 17.6302 12.839 17.6245 12.7745C18.3225 13.008 19.015 13.7888 19.584 15.0005ZM15.4639 12.1651C15.6232 12.1651 15.7788 12.2123 15.9112 12.3007C16.0436 12.3892 16.1468 12.5149 16.2078 12.662C16.2687 12.8091 16.2847 12.971 16.2536 13.1272C16.2226 13.2834 16.1459 13.4268 16.0333 13.5394C15.9207 13.652 15.7773 13.7287 15.6211 13.7598C15.465 13.7908 15.3031 13.7749 15.156 13.714C15.0089 13.653 14.8831 13.5498 14.7946 13.4175C14.7062 13.2851 14.659 13.1294 14.659 12.9702C14.6592 12.7568 14.7441 12.5522 14.895 12.4012C15.0459 12.2503 15.2504 12.1654 15.4639 12.1651H15.4639ZM10.3398 20.0597C9.44931 18.6031 9.22028 17.3568 9.71135 16.6403C10.186 15.9479 11.3662 15.706 12.9613 15.966C12.6378 17.0167 12.4126 18.0951 12.2887 19.1874C11.7498 19.658 11.2377 20.1585 10.7549 20.6866C10.606 20.4773 10.4676 20.2683 10.3397 20.0597H10.3398ZM9.34174 23.1598C9.50097 23.1597 9.65663 23.2069 9.78904 23.2954C9.92144 23.3838 10.0246 23.5096 10.0856 23.6567C10.1465 23.8038 10.1625 23.9657 10.1314 24.1218C10.1004 24.278 10.0237 24.4215 9.91113 24.5341C9.79854 24.6467 9.65509 24.7234 9.49892 24.7544C9.34275 24.7855 9.18087 24.7696 9.03376 24.7086C8.88665 24.6477 8.76091 24.5445 8.67245 24.4121C8.58398 24.2797 8.53676 24.1241 8.53676 23.9648C8.53701 23.7515 8.62185 23.5469 8.77268 23.396C8.92352 23.2451 9.12804 23.1601 9.3414 23.1598H9.34174ZM11.8063 27.6627C10.7997 27.6627 10.0583 27.3972 9.71161 26.8914C9.56264 26.6646 9.47744 26.4019 9.46492 26.1309C9.77017 26.1139 10.0684 26.0325 10.3399 25.8921C10.6115 25.7516 10.8503 25.5553 11.0406 25.3161C11.2309 25.0768 11.3684 24.8 11.4441 24.5038C11.5199 24.2076 11.532 23.8987 11.4799 23.5974C11.7387 23.8508 12.0089 24.1006 12.2902 24.347C12.4139 25.4374 12.6387 26.514 12.962 27.5628C12.5799 27.6267 12.1933 27.6601 11.8059 27.6627H11.8063ZM17.1887 30.8313C16.3488 30.8313 15.4808 29.9953 14.7933 28.5312C15.6144 28.2775 16.4152 27.9621 17.1887 27.5876C17.961 27.9615 18.7604 28.2765 19.58 28.53C18.891 29.9883 18.0174 30.8313 17.1886 30.8313H17.1887ZM21.4149 27.5655C21.7386 26.516 21.9638 25.4385 22.0875 24.3471C22.4278 24.0495 22.7529 23.7461 23.06 23.4381C22.985 23.7374 22.9747 24.0493 23.0299 24.3529C23.0851 24.6565 23.2044 24.9449 23.3799 25.1987C23.5554 25.4525 23.783 25.6659 24.0476 25.8248C24.3121 25.9836 24.6075 26.0841 24.9141 26.1197C24.9028 26.3947 24.8169 26.6615 24.6657 26.8914C24.1911 27.584 23.0102 27.8259 21.4148 27.5655H21.4149ZM25.97 23.9648C25.97 24.1241 25.9228 24.2797 25.8343 24.4121C25.7458 24.5445 25.6201 24.6477 25.473 24.7086C25.3259 24.7696 25.164 24.7855 25.0078 24.7544C24.8517 24.7234 24.7082 24.6467 24.5956 24.5341C24.483 24.4215 24.4064 24.278 24.3753 24.1218C24.3443 23.9657 24.3602 23.8038 24.4212 23.6567C24.4821 23.5096 24.5853 23.3838 24.7177 23.2954C24.8501 23.2069 25.0058 23.1597 25.165 23.1598C25.3785 23.16 25.5831 23.2449 25.734 23.3958C25.8849 23.5468 25.9698 23.7514 25.97 23.9648Z" fill="white"/>
<path d="M17.1888 19.5959C16.7596 19.5959 16.3401 19.7232 15.9832 19.9616C15.6264 20.2 15.3482 20.5389 15.184 20.9354C15.0198 21.3319 14.9768 21.7682 15.0605 22.1891C15.1442 22.61 15.3509 22.9967 15.6543 23.3001C15.9578 23.6036 16.3444 23.8103 16.7653 23.894C17.1862 23.9777 17.6225 23.9348 18.019 23.7705C18.4155 23.6063 18.7544 23.3282 18.9929 22.9714C19.2313 22.6145 19.3586 22.195 19.3586 21.7658C19.3579 21.1905 19.1291 20.639 18.7223 20.2322C18.3156 19.8254 17.764 19.5966 17.1888 19.5959ZM17.1888 22.5708C17.0295 22.5708 16.8739 22.5236 16.7415 22.4352C16.6091 22.3467 16.5059 22.221 16.4449 22.0739C16.384 21.9268 16.368 21.7649 16.3991 21.6087C16.4301 21.4525 16.5068 21.3091 16.6194 21.1965C16.732 21.0839 16.8755 21.0072 17.0316 20.9761C17.1878 20.9451 17.3497 20.961 17.4968 21.022C17.6439 21.0829 17.7696 21.1861 17.8581 21.3185C17.9466 21.4509 17.9938 21.6066 17.9937 21.7658C17.9935 21.9792 17.9086 22.1838 17.7577 22.3347C17.6068 22.4856 17.4022 22.5705 17.1888 22.5708Z" fill="white"/>
</svg>
