<svg width="39" height="39" viewBox="0 0 39 39" fill="none" xmlns="http://www.w3.org/2000/svg">
<path d="M38.2383 26.6599H37.4766V2.28516C37.4766 1.02505 36.4512 0 35.1914 0H3.80859C2.54848 0 1.52344 1.02505 1.52344 2.28516V26.6599H0.761719C0.340988 26.6599 0 27.0011 0 27.4216V29.7067C0 30.9668 1.02505 31.9919 2.28516 31.9919H20.7681V36.7148C20.7681 37.975 21.7932 39 23.0533 39H32.1442C33.4043 39 34.4294 37.975 34.4294 36.7148V31.9919H36.7148C37.975 31.9919 39 30.9668 39 29.7067V27.4216C39 27.0011 38.659 26.6599 38.2383 26.6599ZM34.4294 26.6599V25.1364H35.9531V26.6599H34.4294ZM3.80859 1.52344H35.1914C35.6112 1.52344 35.9531 1.86502 35.9531 2.28516V3.04688H3.04688V2.28516C3.04688 1.86502 3.38846 1.52344 3.80859 1.52344ZM3.04688 25.1364H3.80859C4.22932 25.1364 4.57031 24.7954 4.57031 24.3747C4.57031 23.954 4.22932 23.613 3.80859 23.613H3.04688V4.57031H35.9531V23.613H34.4294V18.4336C34.4294 17.1735 33.4043 16.1484 32.1442 16.1484H23.0533C22.701 16.1484 22.3669 16.2288 22.0687 16.3719L18.7984 13.1016H20.0061C20.4269 13.1016 20.7678 12.7606 20.7678 12.3398C20.7678 11.9191 20.4269 11.5781 20.0061 11.5781H16.9595C16.5388 11.5781 16.1978 11.9191 16.1978 12.3398V15.3867C16.1978 15.8072 16.5388 16.1484 16.9595 16.1484C17.38 16.1484 17.7213 15.8072 17.7213 15.3867V14.1787L20.9916 17.449C20.8485 17.7475 20.7681 18.0813 20.7681 18.4336V23.613H10.6641C10.2433 23.613 9.90234 23.954 9.90234 24.3747C9.90234 24.7954 10.2433 25.1364 10.6641 25.1364H20.7681V27.4216H15.6914C15.6914 27.0011 15.3504 26.6599 14.9297 26.6599H3.04688V25.1364ZM2.28516 30.4685C1.86502 30.4685 1.52344 30.1269 1.52344 29.7067V28.1833H14.3724C14.6363 28.6385 15.1287 28.945 15.6914 28.945H20.7681V30.4685H2.28516ZM32.906 36.7148C32.906 37.135 32.5644 37.4766 32.1442 37.4766H23.0533C22.6332 37.4766 22.2916 37.135 22.2916 36.7148V18.749L25.7848 22.2422H24.5767C24.1563 22.2422 23.815 22.5832 23.815 23.0039C23.815 23.4246 24.1563 23.7656 24.5767 23.7656H27.6236C28.0443 23.7656 28.3853 23.4246 28.3853 23.0039V19.9573C28.3853 19.5366 28.0443 19.1956 27.6236 19.1956C27.2029 19.1956 26.8619 19.5366 26.8619 19.9573V21.1651L23.3687 17.6719H32.1442C32.5644 17.6719 32.906 18.0138 32.906 18.4336V36.7148ZM37.4766 29.7067C37.4766 30.1269 37.1347 30.4685 36.7148 30.4685H34.4294V28.1833H37.4766V29.7067Z" fill="white"/>
<path d="M27.5992 35.1915H27.5986C27.1778 35.1915 26.8372 35.5325 26.8372 35.9532C26.8372 36.3737 27.1784 36.715 27.5992 36.715C28.0199 36.715 28.3609 36.3737 28.3609 35.9532C28.3609 35.5325 28.0199 35.1915 27.5992 35.1915Z" fill="white"/>
<path d="M29.4787 7.61756H33.6679C34.0886 7.61756 34.4296 7.27657 34.4296 6.85584C34.4296 6.43511 34.0886 6.09412 33.6679 6.09412H29.479C29.0583 6.09412 28.7173 6.43511 28.7173 6.85584C28.717 7.27657 29.058 7.61756 29.4787 7.61756Z" fill="white"/>
<path d="M26.0511 7.61756C26.4718 7.61756 26.8128 7.27657 26.8128 6.85584C26.8128 6.43511 26.4718 6.09412 26.0511 6.09412H26.0508C25.6301 6.09412 25.2891 6.43511 25.2891 6.85584C25.2891 7.27657 25.6303 7.61756 26.0511 7.61756Z" fill="white"/>
<path d="M7.23663 23.613H7.23603C6.8153 23.613 6.47461 23.954 6.47461 24.3748C6.47461 24.7955 6.8159 25.1365 7.23663 25.1365C7.65736 25.1365 7.99835 24.7955 7.99835 24.3748C7.99835 23.954 7.65736 23.613 7.23663 23.613Z" fill="white"/>
</svg>
