<svg width="38" height="38" viewBox="0 0 38 38" fill="none" xmlns="http://www.w3.org/2000/svg">
<path d="M31.2188 0.185469L29.5043 1.9H27.2333C27.0654 1.90001 26.9043 1.96674 26.7855 2.08551C26.6667 2.20428 26.6 2.36537 26.6 2.53333V4.80427L24.4376 6.96667H22.1667C21.9987 6.96667 21.8376 7.0334 21.7188 7.15217C21.6001 7.27095 21.5333 7.43203 21.5333 7.6V9.87094L19.3709 12.0333H17.1C16.932 12.0333 16.7709 12.1001 16.6522 12.2188C16.5334 12.3376 16.4667 12.4987 16.4667 12.6667V14.9376L13.671 17.7333H11.5056C11.6808 16.6861 12.0742 15.6873 12.6604 14.802C13.2466 13.9167 14.0124 13.1645 14.9081 12.5944L14.2252 11.5276C12.6093 12.5604 11.3718 14.0892 10.6983 15.8848C10.0247 17.6803 9.9514 19.6458 10.4893 21.4866C11.0273 23.3273 12.1474 24.9441 13.6819 26.0944C15.2163 27.2446 17.0823 27.8665 19 27.8667H27.1346C24.9145 29.9024 22.0121 31.0322 19 31.0333C12.3648 31.0333 6.96667 25.6352 6.96667 19H5.7C5.69966 20.0671 5.8279 21.1303 6.08194 22.1667H1.26667V15.8333H6.33333C6.45859 15.8333 6.58103 15.7962 6.68517 15.7266C6.78932 15.657 6.87049 15.5581 6.91842 15.4424L7.94141 12.9727C7.98935 12.8569 8.00191 12.7296 7.97748 12.6067C7.95306 12.4839 7.89275 12.371 7.80418 12.2824L4.22142 8.69983L8.69983 4.22142L12.2824 7.80418C12.371 7.89277 12.4839 7.9531 12.6067 7.97753C12.7296 8.00195 12.8569 7.98938 12.9727 7.94141L15.4424 6.91842C15.5581 6.87049 15.657 6.78932 15.7266 6.68517C15.7962 6.58103 15.8333 6.45859 15.8333 6.33333V1.26667H22.1667V5.06667H23.4333V0.633333C23.4333 0.465365 23.3666 0.304279 23.2478 0.185508C23.1291 0.0667368 22.968 8.18784e-06 22.8 0H15.2C15.032 8.18784e-06 14.8709 0.0667368 14.7522 0.185508C14.6334 0.304279 14.5667 0.465365 14.5667 0.633333V5.91013L12.8789 6.60925L9.14769 2.87791C9.0289 2.75915 8.8678 2.69244 8.69983 2.69244C8.53186 2.69244 8.37076 2.75915 8.25197 2.87791L2.87791 8.25197C2.75915 8.37076 2.69244 8.53186 2.69244 8.69983C2.69244 8.8678 2.75915 9.0289 2.87791 9.14769L6.60926 12.8789L5.91013 14.5667H0.633333C0.465365 14.5667 0.304279 14.6334 0.185508 14.7522C0.0667368 14.8709 8.18784e-06 15.032 0 15.2V22.8C8.18784e-06 22.968 0.0667368 23.1291 0.185508 23.2478C0.304279 23.3666 0.465365 23.4333 0.633333 23.4333H5.91013L6.60925 25.1211L2.87791 28.8523C2.75915 28.9711 2.69244 29.1322 2.69244 29.3002C2.69244 29.4681 2.75915 29.6292 2.87791 29.748L8.25197 35.1221C8.37076 35.2408 8.53186 35.3076 8.69983 35.3076C8.8678 35.3076 9.0289 35.2408 9.14769 35.1221L12.8789 31.3907L14.5667 32.0899V37.3667C14.5667 37.5346 14.6334 37.6957 14.7522 37.8145C14.8709 37.9333 15.032 38 15.2 38H22.8C22.968 38 23.1291 37.9333 23.2478 37.8145C23.3666 37.6957 23.4333 37.5346 23.4333 37.3667V32.0899L25.1211 31.3907L28.8523 35.1221C28.9711 35.2408 29.1322 35.3076 29.3002 35.3076C29.4681 35.3076 29.6292 35.2408 29.748 35.1221L35.1221 29.748C35.2409 29.6292 35.3076 29.4681 35.3076 29.3002C35.3075 29.1322 35.2408 28.9711 35.122 28.8523L34.1364 27.8667H37.3667C37.5346 27.8667 37.6957 27.7999 37.8145 27.6812C37.9333 27.5624 38 27.4013 38 27.2333V5.7C38 5.53203 37.9333 5.37095 37.8145 5.25217C37.6957 5.1334 37.5346 5.06667 37.3667 5.06667H32.3C32.132 5.06667 31.9709 5.1334 31.8522 5.25217C31.7334 5.37095 31.6667 5.53203 31.6667 5.7V10.1333H27.2333C27.0654 10.1333 26.9043 10.2001 26.7855 10.3188C26.6667 10.4376 26.6 10.5987 26.6 10.7667V13.9333H22.1667C21.9987 13.9333 21.8376 14.0001 21.7188 14.1188C21.6001 14.2376 21.5333 14.3987 21.5333 14.5667V18.3667H17.1C16.932 18.3667 16.7709 18.4334 16.6522 18.5522C16.5334 18.6709 16.4667 18.832 16.4667 19V21.5333H11.8347C11.5464 20.7199 11.3993 19.8631 11.4 19H13.9333C14.1013 19 14.2624 18.9333 14.3812 18.8145L17.3624 15.8333H19.6333C19.8013 15.8333 19.9624 15.7666 20.0812 15.6478C20.1999 15.5291 20.2667 15.368 20.2667 15.2V12.9291L22.4291 10.7667H24.7C24.868 10.7667 25.0291 10.6999 25.1478 10.5812C25.2666 10.4624 25.3333 10.3013 25.3333 10.1333V7.86239L27.4957 5.7H29.7667C29.9346 5.69999 30.0957 5.63326 30.2145 5.51449C30.3333 5.39572 30.4 5.23463 30.4 5.06667V2.79573L31.929 1.26667H38V0H31.6667C31.4987 4.65365e-06 31.3376 0.0667172 31.2188 0.185469ZM8.69983 33.7786L4.22142 29.3002L7.62907 25.8927C8.74265 27.7217 10.2783 29.2574 12.1073 30.3709L8.69983 33.7786ZM15.8333 36.7333V31.9181C17.9137 32.4277 20.0865 32.4273 22.1667 31.9169V36.7333H15.8333ZM33.7786 29.3002L29.3002 33.7786L25.8935 30.3717C27.018 29.6905 28.0353 28.8463 28.9122 27.8667H32.345L33.7786 29.3002ZM32.9333 6.33333H36.7333V26.6H32.9333V6.33333ZM27.8667 11.4H31.6667V26.6H27.8667V11.4ZM22.8 15.2H26.6V26.6H22.8V15.2ZM17.7333 19.6333H21.5333V26.6H19C18.5756 26.6 18.1519 26.5645 17.7333 26.4939V19.6333ZM16.4667 22.8V26.1653C14.7619 25.5581 13.328 24.3655 12.4202 22.8H16.4667ZM19 14.5667H17.7333V13.3H19V14.5667ZM24.0667 9.5H22.8V8.23333H24.0667V9.5ZM29.1333 4.43333H27.8667V3.16667H29.1333V4.43333Z" fill="white"/>
</svg>
