<svg width="35" height="36" fill="none" xmlns="http://www.w3.org/2000/svg"><g clip-path="url(#a)"><path d="M17.5 35.5C27.165 35.5 35 27.665 35 18S27.165.5 17.5.5 0 8.335 0 18s7.835 17.5 17.5 17.5Z" fill="#6F3FAA"/><g fill="#fff"><path d="m26.757 12.8-.005-.024c-.468-1.89-2.576-3.918-4.512-4.34l-.022-.005a25.072 25.072 0 0 0-9.437 0l-.022.005c-1.935.422-4.043 2.45-4.512 4.34l-.005.024a18.471 18.471 0 0 0 0 7.956l.005.024c.449 1.81 2.4 3.744 4.263 4.277v2.11c0 .763.931 1.139 1.46.587l2.138-2.222a25.158 25.158 0 0 0 6.11-.407l.022-.005c1.936-.422 4.044-2.45 4.512-4.34l.005-.024c.578-2.64.578-5.316 0-7.956Zm-1.692 7.574c-.312 1.233-1.912 2.766-3.184 3.05a23.359 23.359 0 0 1-5.02.405.119.119 0 0 0-.088.036l-1.561 1.602-1.66 1.704a.194.194 0 0 1-.335-.134v-3.495a.12.12 0 0 0-.098-.118h-.001c-1.272-.284-2.872-1.817-3.185-3.05a16.761 16.761 0 0 1 0-7.192c.313-1.233 1.913-2.766 3.185-3.05a23.348 23.348 0 0 1 8.763 0c1.272.284 2.872 1.817 3.184 3.05.521 2.387.521 4.806 0 7.192Z"/><path d="M20.266 21.987c-.195-.06-.382-.099-.555-.17-1.793-.745-3.443-1.704-4.75-3.176-.744-.836-1.325-1.78-1.817-2.78-.233-.474-.43-.967-.63-1.456-.183-.446.086-.907.37-1.244a2.92 2.92 0 0 1 .978-.735c.29-.139.574-.059.786.186.456.53.876 1.087 1.215 1.701.209.378.152.84-.227 1.097-.092.063-.176.136-.261.207a.86.86 0 0 0-.198.208.57.57 0 0 0-.038.5c.467 1.283 1.253 2.28 2.544 2.817.207.086.414.186.652.159.399-.047.528-.484.807-.712.273-.224.622-.226.916-.04.294.186.58.386.863.588.278.198.555.392.812.618.246.217.331.502.192.797-.254.54-.624.99-1.158 1.276-.15.08-.33.107-.5.16.17-.053-.196-.06 0 0ZM17.505 11.809c2.345.065 4.271 1.622 4.684 3.94.07.396.096.8.127 1.2.013.17-.082.33-.264.332-.188.002-.273-.155-.285-.324-.024-.334-.041-.669-.087-1-.243-1.747-1.636-3.193-3.375-3.503-.262-.046-.53-.059-.795-.086-.167-.018-.387-.028-.424-.236-.03-.175.117-.314.283-.323.045-.003.09 0 .136 0 2.345.065-.046 0 0 0Z"/><path d="M21.069 16.43c-.004.028-.006.097-.023.162-.062.236-.42.265-.502.027a.709.709 0 0 1-.028-.226 2.84 2.84 0 0 0-.359-1.425 2.653 2.653 0 0 0-1.112-1.044 3.195 3.195 0 0 0-.887-.272c-.134-.022-.269-.036-.403-.054-.163-.023-.25-.127-.242-.287.007-.15.117-.258.281-.25.538.031 1.058.148 1.537.401.973.515 1.529 1.329 1.69 2.415.008.05.02.098.024.147.009.122.015.244.024.405-.004.03-.01-.16 0 0Z"/><path d="M19.61 16.372c-.196.004-.3-.105-.321-.285-.014-.125-.025-.252-.055-.374a1.054 1.054 0 0 0-.39-.61 1.019 1.019 0 0 0-.316-.154c-.144-.041-.294-.03-.437-.065-.156-.038-.242-.165-.218-.31a.282.282 0 0 1 .298-.227c.909.065 1.559.536 1.652 1.606.006.076.014.155-.003.228-.029.123-.12.185-.21.191.09-.006-.196.004 0 0Z"/></g><path d="M20.266 21.987c-.195-.06.17-.052 0 0Z" fill="#fff"/><g fill="#fff"><path d="M17.51 11.81h-.005.006ZM17.506 11.809h.006c.13.004 2.247.063-.006 0Z"/></g><g fill="#D1D1D1"><path d="m20.869 13.204-.413.365a4.141 4.141 0 0 1 1.224 2.388c.046.331.062.666.087 1 .012.168.096.326.284.324.183-.003.278-.163.265-.331-.032-.401-.057-.805-.127-1.2a4.709 4.709 0 0 0-1.32-2.546ZM21.022 15.877c-.119-.792-.447-1.438-.992-1.93l-.412.365c.213.189.397.41.539.655.25.433.358.929.36 1.426a.71.71 0 0 0 .027.226c.082.238.44.209.502-.027.017-.065.019-.134.023-.163-.01-.16-.004.03 0 0-.01-.16-.015-.283-.025-.405-.003-.05-.015-.098-.022-.147Z"/></g><g fill="#fff"><path d="M21.07 16.43c-.01-.162-.004.028 0 0ZM19.61 16.372l.01-.002h-.035l.026.002ZM19.61 16.372l-.025-.001a.342.342 0 0 0 .025.001Z"/><path d="m19.62 16.37-.01.002c.024-.001.022-.002.01-.002Z"/></g><path d="m19.196 14.686-.419.372a.974.974 0 0 1 .068.044c.202.148.33.37.389.61.03.123.04.25.055.375.02.172.117.278.296.284h.034a.233.233 0 0 0 .201-.19c.017-.073.01-.153.003-.228-.052-.599-.279-1.01-.627-1.267Z" fill="#D1D1D1"/></g><defs><clipPath id="a"><path fill="#fff" transform="translate(0 .5)" d="M0 0h35v35H0z"/></clipPath></defs></svg>