<svg width="89" height="74" viewBox="0 0 89 74" fill="none" xmlns="http://www.w3.org/2000/svg">
<path d="M81.8804 0.759766H42.6039C39.0083 0.759766 36.0833 3.68471 36.0833 7.28032V11.3718H6.53929C2.94368 11.3718 0.0187378 14.2967 0.0187378 17.8923V20.9856C0.0187378 21.9509 0.801096 22.7327 1.76583 22.7327C2.73002 22.7327 3.51237 21.9509 3.51237 20.9856V17.8923C3.51237 16.2229 4.8699 14.8654 6.53929 14.8654H45.8159C47.4847 14.8654 48.8428 16.2229 48.8428 17.8923V44.5594C48.8428 46.2283 47.4847 47.5864 45.8159 47.5864H28.9266C28.4205 47.5864 27.9387 47.8065 27.6069 48.189L21.3496 55.404L14.3418 48.1221C14.0127 47.7801 13.5584 47.5864 13.0836 47.5864H6.53929C4.8699 47.5864 3.51237 46.2283 3.51237 44.5594V34.7854C3.51237 33.8212 2.73002 33.0388 1.76583 33.0388C0.801096 33.0388 0.0187378 33.8212 0.0187378 34.7854V44.5594C0.0187378 48.1551 2.94368 51.08 6.53929 51.08H12.3401L20.1577 59.2047C20.4874 59.5473 20.9422 59.7399 21.416 59.7399C21.4316 59.7399 21.4467 59.7399 21.4613 59.7394C21.9523 59.7264 22.4152 59.5079 22.7363 59.1378L29.389 51.4669V58.5793C29.389 62.1749 32.314 65.0999 35.9096 65.0999H41.7104L49.528 73.2245C49.8577 73.5671 50.312 73.7598 50.7863 73.7598H50.8316C51.3226 73.7468 51.7844 73.5283 52.106 73.1576L59.0949 65.0999H75.1856C78.7812 65.0999 81.7062 62.1749 81.7062 58.5793V40.4685H81.8804C85.4755 40.4685 88.401 37.5436 88.401 33.948V7.28086C88.401 3.68579 85.4755 0.759766 81.8804 0.759766ZM78.2125 58.5793C78.2125 60.2487 76.855 61.6062 75.1856 61.6062H58.2969C57.7903 61.6062 57.309 61.8264 56.9771 62.2084L50.7194 69.4244L43.7121 62.1425C43.383 61.7999 42.9281 61.6068 42.4533 61.6068H35.9096C34.2402 61.6068 32.8827 60.2487 32.8827 58.5793V51.08H45.8148C49.4109 51.08 52.3364 48.1551 52.3364 44.5594V40.4685H58.6956L65.6834 48.5263C66.005 48.8969 66.4669 49.1149 66.9579 49.1279C66.973 49.1284 66.9876 49.1284 67.0032 49.1284C67.4775 49.1284 67.9318 48.9353 68.262 48.5926L76.0791 40.4685H78.2125V58.5793ZM84.9074 33.948C84.9074 35.6174 83.5493 36.9749 81.8804 36.9749H75.3361C74.8613 36.9749 74.4065 37.1686 74.0774 37.5101L67.0701 44.7931L60.8129 37.577C60.481 37.1945 59.9992 36.9749 59.4926 36.9749H52.3364V17.8923C52.3364 14.2967 49.4109 11.3718 45.8148 11.3718H39.577V7.28086C39.577 5.61201 40.9345 4.2534 42.6039 4.2534H81.8804C83.5493 4.2534 84.9074 5.61201 84.9074 7.28086V33.948Z" fill="#2D88EA"/>
<path d="M1.24246 29.5582L1.27915 29.5695C1.44803 29.6202 1.61799 29.6445 1.78525 29.6445C2.53524 29.6445 3.22857 29.1573 3.45626 28.4019C3.73521 27.4782 3.21238 26.5038 2.2892 26.2248L2.25197 26.2135C1.32771 25.9351 0.353804 26.4579 0.0748524 27.3811C-0.203559 28.3048 0.318732 29.2792 1.24246 29.5582Z" fill="#2D88EA"/>
<path d="M57.3629 23.4073L57.4002 23.4187C57.568 23.4688 57.7374 23.4931 57.9036 23.4931C58.6546 23.4931 59.3485 23.0048 59.5757 22.2484C59.853 21.3246 59.3296 20.3507 58.4054 20.0729L58.3687 20.0615C57.4439 19.7842 56.47 20.3081 56.1926 21.2324C55.9148 22.1555 56.4387 23.13 57.3629 23.4073Z" fill="#2D88EA"/>
<path d="M77.9131 12.2524H57.8842C56.92 12.2524 56.1376 13.0348 56.1376 13.9995C56.1376 14.9637 56.92 15.7461 57.8842 15.7461H77.9131C78.8784 15.7461 79.6602 14.9637 79.6602 13.9995C79.6602 13.0348 78.8784 12.2524 77.9131 12.2524Z" fill="#2D88EA"/>
<path d="M77.9131 19.8184H64.9292C63.965 19.8184 63.1826 20.6007 63.1826 21.5649C63.1826 22.5296 63.965 23.312 64.9292 23.312H77.9131C78.8784 23.312 79.6602 22.5296 79.6602 21.5649C79.6602 20.6007 78.8784 19.8184 77.9131 19.8184Z" fill="#2D88EA"/>
<path d="M77.9131 27.3843H57.8842C56.92 27.3843 56.1376 28.1666 56.1376 29.1308C56.1376 30.0961 56.92 30.8779 57.8842 30.8779H77.9131C78.8784 30.8779 79.6602 30.0961 79.6602 29.1308C79.6602 28.1666 78.8784 27.3843 77.9131 27.3843Z" fill="#2D88EA"/>
</svg>
