<svg width="78" height="79" viewBox="0 0 78 79" fill="none" xmlns="http://www.w3.org/2000/svg">
<path d="M67.2849 57.9603C67.6978 55.7686 67.6872 53.518 67.2537 51.3303L73.2077 36.9614C73.2083 36.9518 73.2083 36.9423 73.2077 36.9328C74.1725 34.2912 75.5865 31.8363 77.3872 29.6762C77.8352 29.2029 78.0155 28.5362 77.8669 27.9017L75.4255 17.3587C75.3964 17.2484 75.3527 17.1426 75.2955 17.0441C75.2851 17.0246 75.2812 17.0012 75.2708 16.983C75.2604 16.9648 75.2149 16.9206 75.1889 16.8868C75.1357 16.8089 75.0742 16.7369 75.0056 16.6723C74.9604 16.6404 74.913 16.6118 74.8639 16.5865C74.8005 16.5398 74.733 16.4989 74.6624 16.4643C74.5644 16.4272 74.4622 16.4024 74.3582 16.3902C74.3283 16.3902 74.3023 16.3707 74.2724 16.368C74.0232 16.3514 73.7745 16.407 73.5561 16.528C73.5366 16.5384 73.5132 16.5423 73.4937 16.554H73.4807L64.3014 22.2831C63.7455 22.6273 63.4004 23.2284 63.3836 23.8821C63.1286 26.689 62.3892 29.4305 61.1983 31.985V31.9993L58.2226 39.1922C56.7621 38.4158 55.1985 37.8511 53.579 37.5152C54.192 33.2836 54.4174 29.0048 54.2524 24.7323C56.6723 21.8288 57.8337 18.0797 57.479 14.3166C56.6665 6.74024 49.8194 1.26854 49.5269 1.03844C49.0872 0.692237 48.4754 0.666201 48.008 0.973801C47.5405 1.2814 47.3223 1.85361 47.4664 2.39434C48.1359 4.90854 47.5561 7.56184 42.6108 13.0179C40.389 15.1633 39.6847 18.4391 40.8286 21.3081C41.2659 22.4054 41.8924 23.4174 42.6798 24.2981C42.3652 26.3066 42.1181 28.2085 41.9478 30.061C41.6546 33.125 41.579 36.2059 41.7216 39.2806C40.5619 39.9093 39.4762 40.6659 38.4846 41.5361L32.1796 14.574C32.1796 14.5467 32.1536 14.5272 32.1458 14.5025C32.1247 14.4159 32.0942 14.3317 32.0548 14.2516L25.6146 2.35794C24.9701 1.16749 23.6085 0.555758 22.2905 0.864459C20.9724 1.17316 20.0241 2.3259 19.9752 3.67874L19.4864 17.1923C19.4867 17.2898 19.4976 17.387 19.5189 17.4822C19.5189 17.503 19.5189 17.5212 19.5189 17.5407L25.9513 44.9928C24.9366 45.0376 23.9293 45.1879 22.9457 45.4413L15.8698 28.3528C15.3024 27.0465 13.7975 26.4301 12.4768 26.9631L1.66212 31.4403C0.338547 31.9927 -0.290454 33.5104 0.254219 34.8372L9.85083 57.9876C4.22638 58.2829 -0.139457 63.0044 0.00571482 68.6347C0.150886 74.265 4.75424 78.7552 10.3864 78.7603H67.5865C71.302 78.7064 74.7066 76.6744 76.5177 73.4297C78.3289 70.185 78.2714 66.2205 76.3669 63.0297C74.4625 59.8389 71.0004 57.9064 67.2849 57.9603ZM65.9602 24.3111L71.4098 20.9103L69.4806 25.5695C69.2056 26.2329 69.5205 26.9936 70.1839 27.2686C70.8473 27.5435 71.608 27.2287 71.883 26.5653L73.8122 21.9061L75.2565 28.163C73.7112 30.0482 72.4418 32.1435 71.4865 34.3861C70.1311 35.0143 68.5747 35.0469 67.1942 34.476C65.8138 33.905 64.7351 32.7826 64.2195 31.3805C65.1325 29.1186 65.7186 26.7382 65.9602 24.3111ZM62.9702 34.5174C63.8302 35.5688 64.9463 36.3814 66.2111 36.8769C67.2164 37.3093 68.2978 37.5373 69.3922 37.5477C69.6555 37.5467 69.9185 37.5306 70.18 37.4996L66.0317 47.5096C64.7895 44.7709 62.868 42.3951 60.4495 40.6079L62.9702 34.5174ZM45.1602 25.2328L51.6914 25.6319C51.7317 26.8461 51.7174 28.1019 51.6771 29.3772C49.5013 29.5326 47.3147 29.427 45.1641 29.0626C45.0003 29.0392 44.8404 29.021 44.6778 28.9989C44.8078 27.7743 44.9665 26.5341 45.1576 25.2328H45.1602ZM44.5401 14.7638C47.9916 10.9561 49.7804 8.02724 50.1964 5.27384C52.6773 7.82645 54.3149 11.0791 54.8881 14.5922C55.1611 17.6506 54.2155 20.6931 52.2569 23.0579C49.6889 22.9019 47.1492 22.7459 44.6376 22.5899C43.5584 21.581 42.9375 20.1754 42.9186 18.6982C42.8997 17.221 43.4844 15.8 44.5375 14.7638H44.5401ZM44.4412 31.5898L44.8183 31.6392C46.4934 31.8982 48.1843 32.042 49.8792 32.0695C50.4174 32.0695 50.9842 32.0266 51.5523 31.9824C51.434 33.6555 51.2403 35.4027 50.9946 37.2084C50.6735 37.1915 50.3589 37.1603 50.0365 37.1603C48.0737 37.1638 46.1258 37.4991 44.2749 38.1522C44.2149 35.9633 44.2696 33.7729 44.4387 31.5898H44.4412ZM34.3857 46.792L30.6664 30.9489C30.4926 30.2615 29.8 29.8403 29.1097 30.0019C28.4194 30.1636 27.9859 30.8486 28.1353 31.5417L31.4776 45.8014C30.5587 45.4727 29.6094 45.2363 28.6436 45.0955L22.9379 20.7465C23.7372 21.1104 24.6051 21.2992 25.4833 21.3003C25.5652 21.3003 25.6523 21.2886 25.7355 21.2847L26.6546 25.2094C26.7537 25.6687 27.0929 26.0389 27.542 26.1775C27.991 26.3162 28.4799 26.2017 28.8206 25.8781C29.1614 25.5545 29.301 25.0721 29.1857 24.6166L28.2653 20.6893C29.1474 20.2988 29.9253 19.7065 30.5364 18.9603L36.337 43.763C35.5838 44.7026 34.9299 45.7176 34.3857 46.792ZM26.4427 18.582C24.7801 18.9044 23.0826 18.2247 22.102 16.8439L22.2671 12.2652C22.7195 12.3497 23.1785 12.3932 23.6386 12.3952C24.0831 12.3971 24.5263 12.3478 24.9594 12.2483C25.8364 12.018 26.6568 11.6101 27.3696 11.0497L29.5588 15.0901C29.298 16.7665 28.0784 18.1342 26.4427 18.5846V18.582ZM22.882 3.39534C23.0591 3.35432 23.2419 3.43614 23.3292 3.59554L26.1164 8.75004C25.6136 9.20491 25.0133 9.53845 24.3614 9.72505C23.6952 9.84733 23.0098 9.81486 22.3581 9.63015L22.57 3.77234C22.5771 3.59069 22.7049 3.43625 22.882 3.39534ZM13.4739 29.3603L14.4671 31.7601L9.65713 33.7517C9.08689 33.9911 8.76431 34.5992 8.88579 35.2056C9.00726 35.812 9.53916 36.2489 10.1576 36.2503C10.3284 36.2499 10.4975 36.2163 10.6555 36.1515L15.4655 34.1586L16.46 36.561L14.0537 37.5581C13.4802 37.7954 13.1545 38.405 13.276 39.0137C13.3975 39.6224 13.9323 40.0603 14.5529 40.0593C14.7233 40.0587 14.8919 40.0251 15.0495 39.9605L17.4558 38.9634L18.4503 41.3658L13.6364 43.3613C13.0629 43.5986 12.7372 44.2083 12.8587 44.8169C12.9802 45.4256 13.515 45.8635 14.1356 45.8625C14.306 45.862 14.4747 45.8285 14.6322 45.7637L19.4422 43.7721L20.4939 46.311C16.2577 48.2446 13.1514 52.0254 12.0764 56.5563L2.65402 33.8375L13.4739 29.3603ZM67.5865 76.1603H10.3864C6.0786 76.1603 2.58642 72.6681 2.58642 68.3603C2.58642 64.0525 6.0786 60.5603 10.3864 60.5603C11.1397 60.5578 11.8892 60.6664 12.6107 60.8827C13.0005 61.0004 13.423 60.9287 13.7521 60.689C14.0812 60.4492 14.279 60.0691 14.2864 59.662C14.3789 55.0289 17.0572 50.8374 21.2228 48.807C25.3883 46.7766 30.3399 47.2489 34.0464 50.0303C34.374 50.2741 34.797 50.3498 35.1888 50.2348C35.5806 50.1198 35.8955 49.8274 36.0393 49.4453C38.5792 42.6764 45.5988 38.6949 52.7117 39.9886C59.8247 41.2823 64.9928 47.4806 64.9865 54.7103C64.989 56.197 64.7677 57.6757 64.33 59.0965C64.1933 59.5385 64.302 60.0199 64.6152 60.3605C64.9284 60.701 65.3991 60.8494 65.851 60.7501C66.421 60.6246 67.0028 60.561 67.5865 60.5603C71.8943 60.5603 75.3865 64.0525 75.3865 68.3603C75.3865 72.6681 71.8943 76.1603 67.5865 76.1603Z" fill="#2D88EA"/>
<path d="M50.2774 21.1701C50.6855 21.1717 51.0706 20.9815 51.3174 20.6566C52.9404 18.4599 53.5676 15.6832 53.0464 13.0022C52.9356 12.5438 52.5851 12.1814 52.1307 12.0552C51.6762 11.9291 51.1891 12.0589 50.8577 12.3945C50.5264 12.7302 50.4028 13.2189 50.5348 13.6717C50.8461 15.5768 50.3817 17.5272 49.2452 19.0875C48.9498 19.4815 48.9023 20.0085 49.1225 20.4489C49.3427 20.8893 49.7928 21.1675 50.2852 21.1675L50.2774 21.1701Z" fill="#2D88EA"/>
<path d="M48.5682 60.5601C47.6015 60.5631 46.648 60.7853 45.7797 61.2101C43.4411 58.0101 39.0744 57.0726 35.6284 59.0308C32.1825 60.9891 30.7529 65.2202 32.3051 68.8671C32.5094 69.3465 32.9801 69.6576 33.5011 69.6575C33.6763 69.6579 33.8497 69.6226 34.0107 69.5535C34.328 69.4184 34.5785 69.1628 34.7072 68.8429C34.8359 68.523 34.8323 68.1651 34.6971 67.8479C34.4141 67.1883 34.2682 66.4779 34.2681 65.7601C34.2681 62.8882 36.5963 60.5601 39.4682 60.5601C41.4851 60.5501 43.3222 61.7189 44.1677 63.5501C44.1958 63.5925 44.2262 63.6333 44.2587 63.6723C44.2792 63.7169 44.3022 63.7603 44.3276 63.8023C44.351 63.8309 44.3848 63.8439 44.4108 63.8712C44.4717 63.9345 44.5393 63.9912 44.6123 64.0402C44.6772 64.0902 44.7469 64.1338 44.8203 64.1702C44.8958 64.2019 44.9741 64.2263 45.0543 64.243C45.1342 64.264 45.2161 64.2766 45.2987 64.2807C45.4675 64.2794 45.6352 64.2513 45.7953 64.1975C45.8299 64.1911 45.8642 64.1829 45.898 64.1728C45.9401 64.1456 45.9805 64.1156 46.0189 64.0831C46.0657 64.0623 46.1112 64.0389 46.1554 64.0129C46.8382 63.4607 47.69 63.1596 48.5682 63.1601C50.0882 63.1626 51.4683 64.048 52.1042 65.4286C52.4021 66.082 53.1733 66.3701 53.8267 66.0721C54.48 65.7742 54.7681 65.003 54.4702 64.3496C53.4116 62.0423 51.1067 60.5624 48.5682 60.5601Z" fill="#2D88EA"/>
<path d="M22.9762 51.5264C22.7799 51.5901 18.187 53.1787 18.187 57.9602C18.187 58.6781 18.769 59.2602 19.487 59.2602C20.205 59.2602 20.787 58.6781 20.787 57.9602C20.8931 56.1467 22.0863 54.5778 23.8056 53.9912C24.4877 53.7622 24.855 53.0236 24.6259 52.3415C24.3969 51.6595 23.6583 51.2922 22.9762 51.5212V51.5264Z" fill="#2D88EA"/>
<path d="M41.2711 50.1214C41.3744 50.1476 41.4805 50.1607 41.587 50.1604C42.1828 50.1597 42.7019 49.7542 42.8467 49.1763C43.4451 46.7487 45.5941 45.0219 48.0935 44.9604C48.8115 44.9586 49.3921 44.3751 49.3903 43.6571C49.3885 42.9391 48.805 42.3586 48.087 42.3604C44.392 42.4094 41.1989 44.9537 40.326 48.5445C40.1516 49.2409 40.5747 49.9469 41.2711 50.1214Z" fill="#2D88EA"/>
</svg>
