<svg width="75" height="75" viewBox="0 0 75 75" fill="none" xmlns="http://www.w3.org/2000/svg">
<path d="M9.02379 27.4116C9.23493 27.6221 9.51212 27.728 9.78931 27.728C10.0665 27.728 10.3437 27.6227 10.5554 27.4116C10.9782 26.9899 10.9782 26.3059 10.5554 25.8843L7.92577 23.2621L10.5554 20.6404C10.9782 20.2182 10.9782 19.5348 10.5554 19.1131C10.1325 18.6915 9.44663 18.6915 9.02379 19.1131L5.62867 22.4987C5.42544 22.7014 5.3114 22.9761 5.3114 23.2621C5.3114 23.5486 5.42544 23.8233 5.62867 24.026L9.02379 27.4116Z" fill="#2D88EA"/>
<path d="M19.7703 23.2626L17.1407 25.8849C16.7178 26.3065 16.7178 26.9905 17.1412 27.4121C17.3524 27.6227 17.6296 27.7285 17.9067 27.7285C18.1839 27.7285 18.4611 27.6227 18.6723 27.4121L22.0679 24.026C22.4908 23.6043 22.4908 22.9204 22.0679 22.4993L18.6723 19.1131C18.2494 18.6915 17.5641 18.6915 17.1412 19.1131C16.7178 19.5353 16.7178 20.2187 17.1412 20.6404L19.7703 23.2626Z" fill="#2D88EA"/>
<path d="M12.2337 27.6534C12.3636 27.7041 12.4979 27.7283 12.6295 27.7283C13.0619 27.7283 13.4701 27.4682 13.6377 27.0432L16.3052 20.2714C16.5242 19.7164 16.2498 19.0898 15.6932 18.8714C15.1371 18.6535 14.5082 18.9265 14.2898 19.4816L11.6218 26.2534C11.4033 26.8084 11.6771 27.4356 12.2337 27.6534Z" fill="#2D88EA"/>
<path d="M7.00728 34.0634H14.3028C14.9006 34.0634 15.3856 33.5798 15.3856 32.9831C15.3856 32.3869 14.9006 31.9033 14.3028 31.9033H7.00728C6.40887 31.9033 5.9245 32.3869 5.9245 32.9831C5.9245 33.5798 6.40887 34.0634 7.00728 34.0634Z" fill="#2D88EA"/>
<path d="M31.1056 31.9033H18.2794C17.6815 31.9033 17.1966 32.3869 17.1966 32.9831C17.1966 33.5798 17.6815 34.0634 18.2794 34.0634H31.1056C31.704 34.0634 32.189 33.5798 32.189 32.9831C32.189 32.3869 31.704 31.9033 31.1056 31.9033Z" fill="#2D88EA"/>
<path d="M7.00728 38.6186H10.115C10.7129 38.6186 11.1978 38.135 11.1978 37.5382C11.1978 36.9421 10.7129 36.4585 10.115 36.4585H7.00728C6.40887 36.4585 5.9245 36.9421 5.9245 37.5382C5.9245 38.135 6.40887 38.6186 7.00728 38.6186Z" fill="#2D88EA"/>
<path d="M27.1437 36.4585C26.5453 36.4585 26.0609 36.9421 26.0609 37.5382C26.0609 38.135 26.5453 38.6186 27.1437 38.6186H29.036C29.6344 38.6186 30.1194 38.135 30.1194 37.5382C30.1194 36.9421 29.6344 36.4585 29.036 36.4585H27.1437Z" fill="#2D88EA"/>
<path d="M24.2934 37.5382C24.2934 36.9421 23.8084 36.4585 23.2106 36.4585H13.9149C13.3165 36.4585 12.8322 36.9421 12.8322 37.5382C12.8322 38.135 13.3165 38.6186 13.9149 38.6186H23.2106C23.8084 38.6186 24.2934 38.135 24.2934 37.5382Z" fill="#2D88EA"/>
<path d="M31.3873 37.5382C31.3873 38.135 31.8723 38.6186 32.4701 38.6186H36.0148C36.6132 38.6186 37.0982 38.135 37.0982 37.5382C37.0982 36.9421 36.6132 36.4585 36.0148 36.4585H32.4701C31.8723 36.4585 31.3873 36.9421 31.3873 37.5382Z" fill="#2D88EA"/>
<path d="M25.4897 24.1288H29.2286C29.827 24.1288 30.3119 23.6452 30.3119 23.0485C30.3119 22.4523 29.827 21.9688 29.2286 21.9688H25.4897C24.8912 21.9688 24.4063 22.4523 24.4063 23.0485C24.4063 23.6452 24.8912 24.1288 25.4897 24.1288Z" fill="#2D88EA"/>
<path d="M33.4163 24.1288H56.2298C56.8282 24.1288 57.3126 23.6452 57.3126 23.0485C57.3126 22.4523 56.8282 21.9688 56.2298 21.9688H33.4163C32.8179 21.9688 32.3329 22.4523 32.3329 23.0485C32.3329 23.6452 32.8179 24.1288 33.4163 24.1288Z" fill="#2D88EA"/>
<path d="M52.7647 26.7197H43.5232C42.9254 26.7197 42.4404 27.2033 42.4404 27.8C42.4404 28.3962 42.9254 28.8798 43.5232 28.8798H52.7647C53.3625 28.8798 53.8474 28.3962 53.8474 27.8C53.8474 27.2033 53.3625 26.7197 52.7647 26.7197Z" fill="#2D88EA"/>
<path d="M40.058 26.7197H36.8814C36.283 26.7197 35.7986 27.2033 35.7986 27.8C35.7986 28.3962 36.283 28.8798 36.8814 28.8798H40.058C40.6564 28.8798 41.1408 28.3962 41.1408 27.8C41.1408 27.2033 40.6564 26.7197 40.058 26.7197Z" fill="#2D88EA"/>
<path d="M25.4897 28.8798H33.2718C33.8696 28.8798 34.3546 28.3962 34.3546 27.8C34.3546 27.2033 33.8696 26.7197 33.2718 26.7197H25.4897C24.8912 26.7197 24.4063 27.2033 24.4063 27.8C24.4063 28.3962 24.8912 28.8798 25.4897 28.8798Z" fill="#2D88EA"/>
<path d="M23.2241 40.9751H15.9292C15.3308 40.9751 14.8458 41.4587 14.8458 42.0548C14.8458 42.651 15.3308 43.1346 15.9292 43.1346H23.2241C23.822 43.1346 24.3069 42.651 24.3069 42.0548C24.3069 41.4587 23.822 40.9751 23.2241 40.9751Z" fill="#2D88EA"/>
<path d="M12.612 40.9751H7.00728C6.40887 40.9751 5.9245 41.4587 5.9245 42.0548C5.9245 42.651 6.40887 43.1346 7.00728 43.1346H12.612C13.2104 43.1346 13.6948 42.651 13.6948 42.0548C13.6948 41.4587 13.2104 40.9751 12.612 40.9751Z" fill="#2D88EA"/>
<path d="M36.4484 40.9751H26.9185C26.3201 40.9751 25.8357 41.4587 25.8357 42.0548C25.8357 42.651 26.3201 43.1346 26.9185 43.1346H36.4484C37.0463 43.1346 37.5312 42.651 37.5312 42.0548C37.5312 41.4587 37.0463 40.9751 36.4484 40.9751Z" fill="#2D88EA"/>
<path d="M49.3362 35.4277H44.125C43.5271 35.4277 43.0422 35.9113 43.0422 36.5075C43.0422 37.1042 43.5271 37.5878 44.125 37.5878H49.3362C49.9346 37.5878 50.419 37.1042 50.419 36.5075C50.419 35.9113 49.9346 35.4277 49.3362 35.4277Z" fill="#2D88EA"/>
<path d="M58.3789 37.5878H65.7354C66.3338 37.5878 66.8187 37.1042 66.8187 36.5075C66.8187 35.9113 66.3338 35.4277 65.7354 35.4277H58.3789C57.7805 35.4277 57.2961 35.9113 57.2961 36.5075C57.2961 37.1042 57.7811 37.5878 58.3789 37.5878Z" fill="#2D88EA"/>
<path d="M54.7004 35.4277H53.0147C52.4163 35.4277 51.9313 35.9113 51.9313 36.5075C51.9313 37.1042 52.4163 37.5878 53.0147 37.5878H54.7004C55.2988 37.5878 55.7832 37.1042 55.7832 36.5075C55.7832 35.9113 55.2988 35.4277 54.7004 35.4277Z" fill="#2D88EA"/>
<path d="M44.125 49.3558H49.3362C49.9346 49.3558 50.419 48.8728 50.419 48.276C50.419 47.6799 49.9346 47.1963 49.3362 47.1963H44.125C43.5271 47.1963 43.0422 47.6799 43.0422 48.276C43.0422 48.8728 43.5271 49.3558 44.125 49.3558Z" fill="#2D88EA"/>
<path d="M58.3789 49.3558H65.7354C66.3338 49.3558 66.8187 48.8728 66.8187 48.276C66.8187 47.6799 66.3338 47.1963 65.7354 47.1963H58.3789C57.7805 47.1963 57.2961 47.6799 57.2961 48.276C57.2961 48.8728 57.7811 49.3558 58.3789 49.3558Z" fill="#2D88EA"/>
<path d="M53.0147 49.3558H54.7004C55.2989 49.3558 55.7838 48.8728 55.7838 48.276C55.7838 47.6799 55.2989 47.1963 54.7004 47.1963H53.0147C52.4163 47.1963 51.9319 47.6799 51.9319 48.276C51.9319 48.8728 52.4163 49.3558 53.0147 49.3558Z" fill="#2D88EA"/>
<path d="M49.3362 58.9648H44.125C43.5271 58.9648 43.0422 59.4484 43.0422 60.0446C43.0422 60.6407 43.5271 61.1243 44.125 61.1243H49.3362C49.9346 61.1243 50.419 60.6407 50.419 60.0446C50.419 59.4484 49.9346 58.9648 49.3362 58.9648Z" fill="#2D88EA"/>
<path d="M65.7354 58.9648H58.3789C57.7805 58.9648 57.2961 59.4484 57.2961 60.0446C57.2961 60.6407 57.7805 61.1243 58.3789 61.1243H65.7354C66.3338 61.1243 66.8187 60.6407 66.8187 60.0446C66.8187 59.4484 66.3338 58.9648 65.7354 58.9648Z" fill="#2D88EA"/>
<path d="M54.7004 58.9648H53.0147C52.4163 58.9648 51.9313 59.4484 51.9313 60.0446C51.9313 60.6407 52.4163 61.1243 53.0147 61.1243H54.7004C55.2988 61.1243 55.7832 60.6407 55.7832 60.0446C55.7832 59.4484 55.2988 58.9648 54.7004 58.9648Z" fill="#2D88EA"/>
<path d="M69.7318 0.527344H5.26907C2.64115 0.527344 0.502686 2.65924 0.502686 5.28035V57.5318C0.502686 60.1524 2.64115 62.2843 5.26907 62.2843H9.34445C9.9423 62.2843 10.4272 61.8013 10.4272 61.2045C10.4272 60.6084 9.9423 60.1248 9.34445 60.1248H5.26907C3.83514 60.1248 2.66881 58.9617 2.66881 57.5318V53.4352H42.1226V55.2964H41.2639C40.0891 55.2964 39.1339 56.2489 39.1339 57.4204V60.1248H15.9286C15.3308 60.1248 14.8459 60.6084 14.8459 61.2045C14.8459 61.8013 15.3308 62.2843 15.9286 62.2843H26.3409V66.1574H23.0712C20.8898 66.1574 19.1154 67.9273 19.1154 70.102V72.4349C19.1154 73.4273 19.925 74.2346 20.9203 74.2346H53.9976C54.9929 74.2346 55.8024 73.4273 55.8024 72.4349V70.102C55.8024 67.9273 54.0281 66.1574 51.8467 66.1574H48.5769V64.7922H68.597C69.7713 64.7922 70.7265 63.8397 70.7265 62.6682V62.1599C72.8373 61.6712 74.4152 59.7825 74.4152 57.5318L74.497 5.27978C74.4976 2.65924 72.3597 0.527344 69.7318 0.527344ZM41.3 50.8642V45.6879H68.5609V50.8642H41.3ZM44.2881 43.5279V41.2558H65.5723V43.5279H44.2881ZM65.5723 53.0237V55.2964H44.2881V53.0237H65.5723ZM28.5065 62.2843H39.1339V62.6688C39.1339 63.8397 40.0891 64.7922 41.2639 64.7922H46.4113V66.1574H28.5065V62.2843ZM51.8473 68.3174C52.8341 68.3174 53.6368 69.118 53.6368 70.102V72.0751H21.281V70.102C21.281 69.118 22.0843 68.3174 23.0712 68.3174H51.8473ZM68.5609 62.6322H41.3V57.4564H68.5609V62.6322ZM72.2496 57.5318C72.2496 58.5778 71.6241 59.4791 70.727 59.8884V57.4198C70.727 56.2489 69.7713 55.2964 68.597 55.2964H67.7384V53.4352H72.2496V57.5318ZM72.2496 51.2758H70.6915C70.7135 51.1536 70.727 45.6519 70.727 45.6519C70.727 44.4804 69.7713 43.5279 68.597 43.5279H67.7384V41.2558H68.597C69.7713 41.2558 70.727 40.3027 70.727 39.1318V33.8834C70.727 32.7124 69.7713 31.7593 68.597 31.7593H62.4803C61.8819 31.7593 61.3975 32.2429 61.3975 32.8396C61.3975 33.4358 61.8819 33.9194 62.4803 33.9194H68.5609V39.0957H41.3V33.9194H55.742C56.3404 33.9194 56.8248 33.4358 56.8248 32.8396C56.8248 32.2429 56.3404 31.7593 55.742 31.7593H41.2639C40.0891 31.7593 39.1339 32.7124 39.1339 33.8834V39.1318C39.1339 40.3027 40.0891 41.2558 41.2639 41.2558H42.1226V43.5279H41.2639C40.0891 43.5279 39.1339 44.4809 39.1339 45.6519C39.1339 45.6519 39.1474 51.1536 39.1695 51.2758H2.66881V15.217H72.2496V51.2758ZM72.2496 13.057H2.74841V5.27978C2.74841 3.85045 3.91474 2.68739 5.34866 2.68739H69.6493C71.0833 2.68739 72.2496 3.85045 72.2496 5.28035V13.057Z" fill="#2D88EA"/>
<path d="M8.48918 4.67236C6.73686 4.67236 5.3114 6.09382 5.3114 7.84122C5.3114 9.58862 6.73686 11.0106 8.48918 11.0106C10.2415 11.0106 11.6675 9.58862 11.6675 7.84122C11.6675 6.09382 10.2415 4.67236 8.48918 4.67236ZM8.48918 8.85059C7.93141 8.85059 7.47696 8.39798 7.47696 7.84122C7.47696 7.28502 7.93141 6.83185 8.48918 6.83185C9.0475 6.83185 9.50139 7.28502 9.50139 7.84122C9.50139 8.39798 9.0475 8.85059 8.48918 8.85059Z" fill="#2D88EA"/>
<path d="M16.5807 4.67236C14.8284 4.67236 13.4023 6.09382 13.4023 7.84122C13.4023 9.58862 14.8284 11.0106 16.5807 11.0106C18.333 11.0106 19.7585 9.58862 19.7585 7.84122C19.7585 6.09382 18.3324 4.67236 16.5807 4.67236ZM16.5807 8.85059C16.0224 8.85059 15.5685 8.39798 15.5685 7.84122C15.5685 7.28502 16.0224 6.83185 16.5807 6.83185C17.1385 6.83185 17.5929 7.28502 17.5929 7.84122C17.5929 8.39798 17.1385 8.85059 16.5807 8.85059Z" fill="#2D88EA"/>
<path d="M24.6716 4.67236C22.9193 4.67236 21.4938 6.09382 21.4938 7.84122C21.4938 9.58862 22.9193 11.0106 24.6716 11.0106C26.4239 11.0106 27.8499 9.58862 27.8499 7.84122C27.8499 6.09382 26.4239 4.67236 24.6716 4.67236ZM24.6716 8.85059C24.1138 8.85059 23.6594 8.39798 23.6594 7.84122C23.6594 7.28502 24.1138 6.83185 24.6716 6.83185C25.2299 6.83185 25.6838 7.28502 25.6838 7.84122C25.6838 8.39798 25.2299 8.85059 24.6716 8.85059Z" fill="#2D88EA"/>
</svg>
