<svg width="80" height="81" viewBox="0 0 80 81" fill="none" xmlns="http://www.w3.org/2000/svg">
<path d="M65.7238 0.933799L62.1143 4.53321H57.3333C56.9797 4.53322 56.6406 4.67331 56.3905 4.92265C56.1405 5.172 56 5.51017 56 5.8628V10.6303L51.4476 15.1699H46.6667C46.3131 15.1699 45.9739 15.31 45.7239 15.5594C45.4738 15.8087 45.3334 16.1469 45.3333 16.4995V21.267L40.7809 25.8067H36C35.6464 25.8067 35.3073 25.9468 35.0572 26.1961C34.8072 26.4454 34.6667 26.7836 34.6667 27.1362V31.9038L28.7811 37.773H24.2224C24.5911 35.5744 25.4193 33.4777 26.6534 31.6191C27.8875 29.7604 29.4998 28.1814 31.3856 26.9845L29.9477 24.745C26.5459 26.9132 23.9407 30.1227 22.5227 33.8922C21.1047 37.6617 20.9503 41.788 22.0828 45.6524C23.2153 49.5167 25.5735 52.9108 28.8039 55.3257C32.0343 57.7406 35.9627 59.0461 40 59.0464H57.1255C52.4516 63.3201 46.3414 65.6921 40 65.6944C26.0311 65.6944 14.6667 54.3619 14.6667 40.4322H12C11.9993 42.6723 12.2693 44.9044 12.8041 47.0801H2.66667V33.7842H13.3333C13.597 33.7842 13.8548 33.7062 14.0741 33.5601C14.2933 33.414 14.4642 33.2064 14.5651 32.9634L16.7188 27.7786C16.8197 27.5357 16.8461 27.2684 16.7947 27.0104C16.7433 26.7525 16.6163 26.5156 16.4299 26.3296L8.88721 18.8085L18.3154 9.40669L25.8577 16.9282C26.0442 17.1142 26.2818 17.2408 26.5405 17.2921C26.7991 17.3434 27.0673 17.317 27.3109 17.2163L32.5103 15.0687C32.7539 14.968 32.9621 14.7976 33.1086 14.579C33.2551 14.3603 33.3333 14.1033 33.3333 13.8403V3.20361H46.6667V11.1812H49.3333V1.87402C49.3333 1.5214 49.1928 1.18322 48.9428 0.933881C48.6927 0.684538 48.3536 0.544451 48 0.544434H32C31.6464 0.544451 31.3073 0.684538 31.0572 0.933881C30.8072 1.18322 30.6667 1.5214 30.6667 1.87402V12.9519L27.1134 14.4196L19.2583 6.58618C19.0082 6.33687 18.6691 6.19682 18.3154 6.19682C17.9618 6.19682 17.6227 6.33687 17.3726 6.58618L6.05876 17.8682C5.80874 18.1176 5.66829 18.4558 5.66829 18.8085C5.66829 19.1611 5.80874 19.4993 6.05876 19.7487L13.9142 27.5818L12.4424 31.125H1.33333C0.979717 31.125 0.640588 31.2651 0.390543 31.5145C0.140499 31.7638 1.72376e-05 32.102 0 32.4546V48.4097C1.72376e-05 48.7623 0.140499 49.1005 0.390543 49.3498C0.640588 49.5992 0.979717 49.7393 1.33333 49.7393H12.4424L13.9142 53.2825L6.05876 61.1156C5.80874 61.365 5.66829 61.7032 5.66829 62.0559C5.66829 62.4085 5.80874 62.7467 6.05876 62.9961L17.3726 74.2781C17.6227 74.5274 17.9618 74.6675 18.3154 74.6675C18.6691 74.6675 19.0082 74.5274 19.2583 74.2781L27.1134 66.4447L30.6667 67.9124V78.9903C30.6667 79.3429 30.8072 79.6811 31.0572 79.9304C31.3073 80.1798 31.6464 80.3199 32 80.3199H48C48.3536 80.3199 48.6927 80.1798 48.9428 79.9304C49.1928 79.6811 49.3333 79.3429 49.3333 78.9903V67.9124L52.8866 66.4447L60.7417 74.2781C60.9918 74.5274 61.3309 74.6675 61.6846 74.6675C62.0382 74.6675 62.3773 74.5274 62.6274 74.2781L73.9412 62.9961C74.1913 62.7467 74.3317 62.4085 74.3317 62.0558C74.3317 61.7032 74.1912 61.365 73.9411 61.1156L71.8661 59.0464H78.6667C79.0203 59.0464 79.3594 58.9063 79.6095 58.657C79.8595 58.4076 80 58.0695 80 57.7168V12.5107C80 12.1581 79.8595 11.8199 79.6095 11.5706C79.3594 11.3213 79.0203 11.1812 78.6667 11.1812H68C67.6464 11.1812 67.3073 11.3213 67.0572 11.5706C66.8072 11.8199 66.6667 12.1581 66.6667 12.5107V21.8179H57.3333C56.9797 21.8179 56.6406 21.958 56.3905 22.2073C56.1405 22.4567 56 22.7949 56 23.1475V29.7954H46.6667C46.3131 29.7954 45.9739 29.9355 45.7239 30.1849C45.4738 30.4342 45.3334 30.7724 45.3333 31.125V39.1026H36C35.6464 39.1026 35.3073 39.2427 35.0572 39.492C34.8072 39.7414 34.6667 40.0795 34.6667 40.4322V45.7505H24.9152C24.3081 44.0428 23.9986 42.244 24 40.4322H29.3333C29.687 40.4321 30.0261 40.2921 30.2762 40.0428L36.5524 33.7842H41.3333C41.687 33.7842 42.0261 33.6441 42.2761 33.3948C42.5262 33.1454 42.6666 32.8072 42.6667 32.4546V27.6871L47.2191 23.1475H52C52.3536 23.1475 52.6927 23.0074 52.9428 22.758C53.1928 22.5087 53.3333 22.1705 53.3333 21.8179V17.0504L57.8857 12.5107H62.6667C63.0203 12.5107 63.3594 12.3706 63.6095 12.1213C63.8595 11.872 64 11.5338 64 11.1812V6.41365L67.2189 3.20361H80V0.544434H66.6667C66.313 0.544443 65.9739 0.684497 65.7238 0.933799ZM18.3154 71.4576L8.88721 62.0559L16.0612 54.9023C18.4056 58.7422 21.6385 61.966 25.4891 64.3038L18.3154 71.4576ZM33.3333 77.6607V67.5517C37.7131 68.6217 42.2873 68.6208 46.6667 67.5492V77.6607H33.3333ZM71.1128 62.0559L61.6846 71.4576L54.5126 64.3055C56.8799 62.8752 59.0216 61.1029 60.8678 59.0464H68.0947L71.1128 62.0559ZM69.3333 13.8403H77.3333V56.3872H69.3333V13.8403ZM58.6667 24.4771H66.6667V56.3872H58.6667V24.4771ZM48 32.4546H56V56.3872H48V32.4546ZM37.3333 41.7617H45.3333V56.3872H40C39.1064 56.3872 38.2144 56.3126 37.3333 56.1644V41.7617ZM34.6667 48.4097V55.4746C31.0777 54.1999 28.0589 51.6963 26.1478 48.4097H34.6667ZM40 31.125H37.3333V28.4658H40V31.125ZM50.6667 20.4883H48V17.8291H50.6667V20.4883ZM61.3333 9.85157H58.6667V7.19239H61.3333V9.85157Z" fill="#2D88EA"/>
</svg>
