<svg width="528" height="463" viewBox="0 0 528 463" fill="none" xmlns="http://www.w3.org/2000/svg">
<g opacity="0.3">
<path opacity="0.3" d="M527.423 317.234V307.071L524.612 305.508C523.818 310.304 518.173 313.465 513.453 314.122L481.312 332.917L467.284 337.983L422.51 314.877L423.545 314.279C419.718 312.492 417.657 308.403 415.587 304.673L412.573 306.47L410.782 306.973V317.397H410.782C410.782 319.388 412.095 321.379 414.721 322.896L459.578 348.794C464.83 351.826 473.376 351.826 478.628 348.794L523.484 322.896C526.068 321.405 527.38 319.453 527.422 317.494C527.424 317.407 527.42 317.319 527.417 317.232L527.423 317.234Z" fill="url(#paint0_linear_87_1212)"/>
<path opacity="0.3" d="M513.453 314.122L481.312 332.917L469.103 337.326V351.068C472.552 351.068 476.002 350.31 478.628 348.794L523.484 322.896C526.068 321.405 527.38 319.453 527.422 317.494C527.424 317.407 527.42 317.319 527.417 317.232L527.423 317.234V307.071L524.854 305.642H524.585C523.709 310.363 518.128 313.471 513.453 314.122Z" fill="#0F054C"/>
<g opacity="0.3">
<path opacity="0.3" d="M459.578 338.468L414.721 312.57C409.469 309.537 409.469 304.604 414.721 301.571L459.577 275.674C464.829 272.642 473.375 272.642 478.627 275.674L523.484 301.572C528.736 304.605 528.736 309.539 523.484 312.571L478.628 338.468C473.376 341.501 464.83 341.501 459.578 338.468Z" fill="url(#paint1_linear_87_1212)"/>
</g>
<g opacity="0.3">
<path opacity="0.3" d="M459.578 338.468L414.721 312.57C409.469 309.537 409.469 304.604 414.721 301.571L459.577 275.674C464.829 272.642 473.375 272.642 478.627 275.674L523.484 301.572C528.736 304.605 528.736 309.539 523.484 312.571L478.628 338.468C473.376 341.501 464.83 341.501 459.578 338.468Z" fill="#0F054C"/>
</g>
</g>
<path d="M469.104 305.736C466.042 305.736 462.979 305.063 460.648 303.716L415.792 277.817C413.462 276.473 412.179 274.659 412.179 272.71C412.179 270.761 413.462 268.946 415.792 267.603L460.647 241.705C465.309 239.011 472.894 239.011 477.557 241.705L522.414 267.603C524.743 268.948 526.025 270.762 526.025 272.711C526.025 274.66 524.743 276.473 522.414 277.817L477.558 303.716C475.227 305.063 472.165 305.736 469.104 305.736ZM461.042 303.037C465.486 305.598 472.72 305.601 477.164 303.037L522.021 277.138C524.096 275.939 525.24 274.367 525.24 272.711C525.24 271.054 524.096 269.481 522.021 268.282L477.163 242.384C472.718 239.819 465.485 239.819 461.04 242.384L416.186 268.282C414.109 269.481 412.967 271.053 412.967 272.71C412.967 274.367 414.109 275.939 416.186 277.138L461.042 303.037Z" fill="#42E8E0"/>
<path opacity="0.4" d="M527.423 262.77V247.409L524.612 245.846C523.819 250.643 518.173 253.803 513.453 254.46L481.312 273.256L467.284 278.321L422.51 255.215L423.545 254.618C419.718 252.83 417.657 248.741 415.587 245.011L412.573 246.809L410.782 247.312V262.932H410.782C410.782 264.924 412.095 266.915 414.721 268.431L459.578 294.329C464.83 297.362 473.376 297.362 478.628 294.329L523.484 268.432C526.068 266.94 527.38 264.989 527.422 263.03C527.424 262.942 527.42 262.855 527.417 262.767L527.423 262.77Z" fill="#42E8E0"/>
<path d="M527.423 249.116V238.953L524.612 237.39C523.819 242.186 518.173 245.347 513.453 246.004L481.312 264.799L467.284 269.865L422.51 246.759L423.545 246.161C419.718 244.374 417.657 240.285 415.587 236.554L412.573 238.352L410.782 238.856V249.279H410.782C410.782 251.27 412.095 253.262 414.721 254.778L459.578 280.676C464.83 283.708 473.376 283.708 478.628 280.676L523.484 254.778C526.068 253.287 527.38 251.335 527.422 249.376C527.424 249.289 527.42 249.201 527.417 249.114L527.423 249.116Z" fill="url(#paint2_linear_87_1212)"/>
<path opacity="0.3" d="M513.454 246.004L481.312 264.799L469.103 269.208V282.95C472.553 282.95 476.002 282.192 478.629 280.676L523.484 254.778C526.068 253.287 527.38 251.335 527.422 249.376C527.424 249.289 527.42 249.201 527.417 249.114L527.423 249.116V238.953L524.854 237.524H524.586C523.709 242.245 518.129 245.353 513.454 246.004Z" fill="#0F054C"/>
<path d="M459.578 270.35L414.721 244.452C409.469 241.42 409.469 236.486 414.721 233.453L459.577 207.556C464.829 204.524 473.375 204.524 478.627 207.556L523.484 233.454C528.736 236.487 528.736 241.421 523.484 244.453L478.628 270.35C473.376 273.383 464.83 273.383 459.578 270.35Z" fill="url(#paint3_linear_87_1212)"/>
<path d="M469.104 264.879C466.41 264.879 463.719 264.287 461.668 263.102L427.727 243.508C425.66 242.314 424.52 240.696 424.52 238.952C424.52 237.21 425.66 235.592 427.727 234.398L461.667 214.802C465.765 212.436 472.436 212.435 476.537 214.804L510.477 234.4C512.544 235.592 513.685 237.21 513.685 238.952C513.685 240.696 512.546 242.314 510.477 243.508L476.537 263.102C474.488 264.287 471.795 264.877 469.104 264.879ZM469.101 213.925C466.572 213.925 464.046 214.479 462.123 215.59L428.183 235.185C426.408 236.211 425.43 237.55 425.43 238.952C425.43 240.357 426.408 241.695 428.183 242.721L462.125 262.315C465.969 264.535 472.234 264.536 476.081 262.315L510.021 242.721C511.796 241.695 512.774 240.357 512.774 238.952C512.774 237.55 511.796 236.212 510.021 235.187L476.081 215.591C474.157 214.481 471.629 213.925 469.101 213.925Z" fill="#5351AF"/>
<path d="M523.484 244.453L478.629 270.35C473.377 273.383 464.83 273.383 459.578 270.35L414.721 244.452C412.374 243.097 411.079 241.361 410.83 239.586C410.521 241.783 411.817 244.041 414.721 245.718L459.578 271.617C464.83 274.649 473.377 274.649 478.629 271.617L523.484 245.719C526.389 244.042 527.684 241.784 527.376 239.587C527.127 241.362 525.832 243.098 523.484 244.453Z" fill="white"/>
<path opacity="0.5" d="M450.301 132.534L425.129 147.066C417.568 151.432 410.833 149.797 408.343 142.992L358.568 6.981C352.883 -8.55278 329.652 5.49101 324.739 27.431L294.092 164.315C291.852 174.319 284.918 184.296 277.049 188.84L269.729 193.065C262.616 197.173 256.187 195.988 253.387 190.054L243.246 168.567C236.96 155.249 216.014 167.811 210.302 188.326V188.326C207.667 197.788 201.065 206.843 193.7 211.095L187.306 214.787C179.553 219.263 172.693 217.421 170.356 210.235L161.117 181.837C155.903 165.809 132.602 179.156 127.258 201.232L96.5869 327.95C94.1762 337.909 87.2099 347.682 79.4094 352.05L43.9946 371.877L450.301 132.534Z" fill="url(#paint4_linear_87_1212)"/>
<path d="M76.0792 384.891L75.6658 384.153L106.076 367.126C113.828 362.787 120.65 353.21 123.052 343.296L153.723 216.577C157.494 201 169.697 190.163 178.727 189.816C183.394 189.622 186.795 192.244 188.393 197.152L197.631 225.55C198.619 228.585 200.46 230.697 202.957 231.655C206.025 232.829 209.938 232.198 213.969 229.866L220.362 226.175C227.587 222.003 234.181 212.955 236.77 203.659C240.904 188.807 252.489 178.848 260.85 178.138C265.179 177.78 268.597 179.795 270.503 183.832L280.644 205.319C281.784 207.736 283.594 209.391 285.874 210.105C288.853 211.035 292.591 210.34 296.392 208.146L303.711 203.92C311.428 199.464 318.355 189.491 320.554 179.668L351.202 42.7845C354.644 27.4052 367.042 16.034 376.017 15.4467C380.661 15.1612 384.116 17.5729 385.839 22.2831L435.614 158.291C436.654 161.134 438.488 163.103 440.918 163.986C443.961 165.09 447.823 164.44 451.792 162.146L471.43 150.808L471.854 151.54L452.215 162.878C448.025 165.296 443.909 165.969 440.631 164.78C437.958 163.81 435.949 161.667 434.82 158.581L385.045 22.5735C383.44 18.1849 380.356 16.0422 376.072 16.2898C367.397 16.8575 355.387 27.9531 352.026 42.9681L321.377 179.852C319.095 190.047 312.165 200.014 304.134 204.652L296.815 208.878C292.804 211.193 288.83 211.913 285.621 210.911C283.11 210.125 281.123 208.317 279.879 205.68L269.739 184.193C267.97 180.443 264.94 178.659 260.922 178.979C252.842 179.665 241.622 189.382 237.584 203.886C234.939 213.38 228.19 222.631 220.786 226.907L214.392 230.598C210.135 233.056 205.964 233.714 202.655 232.442C199.912 231.391 197.897 229.099 196.828 225.813L187.589 197.415C186.098 192.829 183.045 190.452 178.759 190.66C170.217 190.988 158.169 201.795 154.544 216.778L123.872 343.496C121.419 353.624 114.434 363.417 106.49 367.864L76.0792 384.891Z" fill="#42E8E0"/>
<path d="M354.445 1.10255L354.025 1.83398L381.121 17.4119L381.542 16.6805L354.445 1.10255Z" fill="#42E8E0"/>
<path d="M266.808 180.484L239.394 164.68L239.817 163.948L267.232 179.752L266.808 180.484Z" fill="#42E8E0"/>
<path d="M156.02 175.097L155.6 175.828L184.174 192.225L184.593 191.493L156.02 175.097Z" fill="#42E8E0"/>
<path d="M174.195 443.407C171.634 443.407 169.073 442.76 166.773 441.464L75.2244 390.211C74.1628 389.617 73.5296 388.538 73.5296 387.324C73.5296 386.108 74.1628 385.029 75.2244 384.435L106.091 367.152C113.85 362.808 120.676 353.223 123.08 343.304L153.751 216.586C155.79 208.158 160.299 201.121 165.436 196.381L160.744 181.958C159.249 177.362 156.165 175.03 151.886 175.184C143.332 175.514 131.27 186.331 127.641 201.325L96.9691 328.041C94.5197 338.163 87.5405 347.949 79.6015 352.393L0.383881 396.807L0 396.121L79.2176 351.708C86.9761 347.363 93.8028 337.779 96.2045 327.858L126.876 201.141C130.643 185.575 142.833 174.746 151.855 174.398C156.514 174.198 159.899 176.819 161.492 181.716L166.076 195.805C170.254 192.142 174.792 189.996 178.728 189.845C183.364 189.665 186.772 192.265 188.365 197.162L192.901 211.103L193.504 210.755C200.734 206.581 207.332 197.525 209.923 188.221C214.054 173.381 225.625 163.431 233.976 162.721C238.317 162.37 241.703 164.374 243.602 168.4L250.41 182.826C253.962 180.074 257.645 178.439 260.853 178.167C265.141 177.795 268.577 179.816 270.477 183.845L273.568 190.395L276.852 188.498C284.576 184.041 291.508 174.061 293.708 164.23L324.355 27.3461C327.797 11.9783 340.182 0.616955 349.146 0.0313069C353.738 -0.309901 357.218 2.14945 358.938 6.8464L364.165 21.1264C368.125 17.7533 372.356 15.7156 376.018 15.4762C380.592 15.1743 384.093 17.5976 385.811 22.293L430.231 143.666L447.246 133.842C449.129 132.755 451.469 132.753 453.359 133.837L472.032 144.569C473.269 145.281 474.008 146.557 474.009 147.985C474.009 149.41 473.273 150.687 472.037 151.4L452.201 162.854C448.017 165.269 443.909 165.938 440.641 164.753C437.976 163.785 435.973 161.648 434.848 158.571L429.813 144.816L425.325 147.407C421.144 149.822 417.035 150.491 413.766 149.307C411.103 148.339 409.1 146.203 407.974 143.127L363.812 22.4554C358.554 27.2476 353.896 34.4812 351.998 42.9615L321.349 179.845C319.069 190.034 312.145 199.992 304.119 204.627L296.801 208.853C292.797 211.163 288.827 211.887 285.631 210.883C283.126 210.1 281.146 208.296 279.905 205.667L273.221 191.504L269.925 193.407C265.924 195.715 261.952 196.435 258.756 195.438C256.251 194.654 254.271 192.851 253.03 190.222L250.115 184.045C244.839 188.401 239.943 195.303 237.556 203.877C234.915 213.365 228.168 222.61 220.771 226.882L214.377 230.574C210.126 233.026 205.964 233.681 202.665 232.416C199.93 231.368 197.922 229.081 196.855 225.803L192.454 212.271L187.504 215.129C183.253 217.581 179.094 218.238 175.79 216.97C173.056 215.921 171.048 213.634 169.982 210.356L165.728 197.28C160.798 201.945 156.455 208.761 154.516 216.769L123.844 343.488C121.393 353.609 114.414 363.395 106.475 367.838L75.6082 385.12C74.7993 385.573 74.317 386.397 74.317 387.324C74.317 388.249 74.7993 389.073 75.6082 389.526L167.158 440.779C171.621 443.294 177.127 443.231 181.529 440.606L342.989 345.481L343.389 346.161L181.931 441.284C179.557 442.698 176.876 443.407 174.195 443.407ZM193.149 211.869L197.603 225.56C198.594 228.603 200.442 230.72 202.947 231.681C206.018 232.861 209.944 232.227 213.983 229.891L220.377 226.2C227.609 222.024 234.207 212.97 236.798 203.667C239.249 194.864 244.315 187.783 249.777 183.329L242.89 168.735C241.114 164.975 238.063 163.178 234.043 163.505C225.953 164.192 214.722 173.918 210.681 188.431C208.038 197.92 201.293 207.167 193.897 211.437L193.149 211.869ZM166.364 196.695L170.73 210.113C171.721 213.157 173.568 215.275 176.072 216.235C179.15 217.419 183.067 216.779 187.11 214.446L192.204 211.506L187.617 197.405C186.122 192.81 183.059 190.513 178.759 190.631C174.969 190.777 170.492 192.98 166.364 196.695ZM273.906 191.108L280.617 205.333C281.761 207.756 283.575 209.416 285.866 210.133C288.855 211.067 292.597 210.371 296.407 208.171L303.726 203.945C311.45 199.485 318.381 189.504 320.581 179.675L351.23 42.791C353.189 34.0382 358.052 26.5849 363.53 21.681L358.199 7.11554C356.59 2.71545 353.496 0.546396 349.197 0.815532C340.512 1.3832 328.489 12.4885 325.123 27.5168L294.476 164.401C292.195 174.591 285.27 184.548 277.246 189.181L273.906 191.108ZM250.745 183.539L253.742 189.888C254.886 192.311 256.7 193.97 258.991 194.687C261.985 195.622 265.725 194.923 269.532 192.724L272.884 190.79L269.765 184.18C267.988 180.42 264.945 178.604 260.918 178.951C257.798 179.215 254.208 180.827 250.745 183.539ZM430.505 144.416L435.586 158.302C436.629 161.152 438.47 163.128 440.908 164.013C443.961 165.116 447.83 164.468 451.807 162.171L471.644 150.718C472.633 150.149 473.222 149.126 473.222 147.985C473.222 146.843 472.629 145.821 471.639 145.251L452.965 134.52C451.323 133.573 449.282 133.575 447.639 134.525L430.505 144.416ZM364.445 21.8926L408.712 142.857C409.756 145.707 411.597 147.681 414.035 148.567C417.085 149.669 420.955 149.021 424.932 146.725L429.539 144.065L385.073 22.5619C383.462 18.1602 380.318 15.9716 376.071 16.2619C372.483 16.4966 368.325 18.5278 364.445 21.8926Z" fill="#42E8E0"/>
<path opacity="0.5" d="M471.641 150.784L452.003 162.122C444.442 166.487 437.708 164.853 435.217 158.047L385.443 22.0364C379.758 6.50242 356.526 20.5464 351.614 42.4863L320.966 179.37C318.726 189.374 311.793 199.351 303.923 203.895L296.604 208.121C289.49 212.228 283.062 211.043 280.261 205.11L270.12 183.623C263.835 170.304 242.888 182.867 237.176 203.381C234.542 212.843 227.939 221.899 220.574 226.151L214.181 229.842C206.427 234.319 199.568 232.477 197.23 225.29L187.992 196.893C182.777 180.864 159.476 194.211 154.133 216.288L123.461 343.005C121.051 352.964 114.084 362.738 106.284 367.105L70.8691 386.932L471.641 150.784Z" fill="url(#paint5_linear_87_1212)"/>
<g opacity="0.3">
<path opacity="0.3" d="M431.912 370.731V360.556L429.098 358.991C428.304 363.793 422.651 366.957 417.926 367.615L385.747 386.433L371.703 391.504L326.877 368.371L327.913 367.773C324.082 365.983 322.018 361.889 319.946 358.155L316.928 359.955L315.135 360.458V370.894C315.136 372.887 316.45 374.881 319.079 376.399L363.989 402.328C369.247 405.363 377.803 405.363 383.061 402.328L427.969 376.4C430.555 374.907 431.869 372.953 431.911 370.991C431.913 370.904 431.909 370.816 431.906 370.729L431.912 370.731Z" fill="url(#paint6_linear_87_1212)"/>
<path opacity="0.3" d="M417.926 367.615L385.747 386.433L373.524 390.847V404.604C376.978 404.604 380.432 403.846 383.061 402.328L427.969 376.4C430.555 374.907 431.869 372.953 431.911 370.991C431.913 370.904 431.909 370.816 431.906 370.729L431.912 370.731V360.556L429.34 359.126H429.071C428.194 363.852 422.607 366.963 417.926 367.615Z" fill="#0F054C"/>
<g opacity="0.3">
<path opacity="0.3" d="M363.989 391.99L319.079 366.061C313.821 363.025 313.821 358.086 319.079 355.05L363.987 329.122C369.245 326.086 377.801 326.087 383.059 329.123L427.969 355.051C433.227 358.087 433.227 363.026 427.969 366.062L383.061 391.99C377.803 395.026 369.247 395.026 363.989 391.99Z" fill="url(#paint7_linear_87_1212)"/>
</g>
<g opacity="0.3">
<path opacity="0.3" d="M363.989 391.99L319.079 366.061C313.821 363.025 313.821 358.086 319.079 355.05L363.987 329.122C369.245 326.086 377.801 326.087 383.059 329.123L427.969 355.051C433.227 358.087 433.227 363.026 427.969 366.062L383.061 391.99C377.803 395.026 369.247 395.026 363.989 391.99Z" fill="#0F054C"/>
</g>
</g>
<path d="M373.524 360.923C370.46 360.923 367.395 360.25 365.06 358.903L320.151 332.975C317.82 331.628 316.536 329.812 316.536 327.859C316.536 325.909 317.819 324.093 320.15 322.745L365.059 296.817C369.725 294.123 377.319 294.125 381.988 296.819L426.897 322.747C429.229 324.094 430.513 325.91 430.513 327.861C430.513 329.812 429.229 331.628 426.897 332.975L381.99 358.903C379.655 360.25 376.591 360.923 373.524 360.923ZM365.454 358.221C369.904 360.79 377.147 360.79 381.596 358.221L426.503 332.292C428.582 331.093 429.726 329.52 429.726 327.861C429.726 326.202 428.582 324.629 426.503 323.43L381.594 297.501C377.145 294.929 369.902 294.932 365.452 297.5L320.544 323.428C318.467 324.627 317.321 326.201 317.321 327.859C317.323 329.52 318.467 331.093 320.545 332.292L365.454 358.221Z" fill="#42E8E0"/>
<path opacity="0.4" d="M431.912 317.909V302.531L429.098 300.965C428.304 305.768 422.651 308.932 417.926 309.589L385.747 328.407L371.703 333.478L326.877 310.345L327.913 309.747C324.082 307.958 322.018 303.864 319.946 300.129L316.928 301.929L315.135 302.433V318.072V318.071C315.136 320.065 316.45 322.059 319.079 323.577L363.989 349.505C369.247 352.541 377.803 352.541 383.061 349.505L427.969 323.578C430.555 322.084 431.869 320.13 431.911 318.169C431.913 318.081 431.909 317.994 431.906 317.906L431.912 317.909Z" fill="#42E8E0"/>
<path d="M431.912 304.239V294.064L429.098 292.499C428.304 297.301 422.651 300.465 417.926 301.123L385.747 319.941L371.703 325.012L326.877 301.879L327.913 301.281C324.082 299.492 322.018 295.397 319.946 291.663L316.928 293.463L315.135 293.967V304.402C315.136 306.396 316.45 308.389 319.079 309.907L363.989 335.836C369.247 338.871 377.803 338.871 383.061 335.836L427.969 309.908C430.555 308.415 431.869 306.461 431.911 304.499C431.913 304.412 431.909 304.324 431.906 304.237L431.912 304.239Z" fill="url(#paint8_linear_87_1212)"/>
<path opacity="0.3" d="M417.926 301.123L385.747 319.941L373.524 324.355V338.113C376.978 338.113 380.432 337.354 383.061 335.836L427.969 309.908C430.555 308.415 431.869 306.461 431.911 304.499C431.913 304.412 431.909 304.324 431.906 304.237L431.912 304.239V294.064L429.34 292.634H429.071C428.194 297.36 422.607 300.472 417.926 301.123Z" fill="#0F054C"/>
<path d="M327.913 301.281L370.47 276.711C372.154 275.739 374.893 275.739 376.577 276.711L418.39 300.852L417.926 301.123C422.651 300.465 428.304 297.301 429.098 292.499L382.171 266.4L368.518 262.791L357.4 269.325L319.946 291.663C322.018 295.397 324.082 299.492 327.913 301.281Z" fill="url(#paint9_linear_87_1212)"/>
<path opacity="0.3" d="M373.524 264.114L368.518 262.791L357.4 269.325L319.946 291.663C322.018 295.397 324.082 299.492 327.913 301.281L370.47 276.711C371.312 276.225 372.418 275.982 373.524 275.982V264.114Z" fill="#0F054C"/>
<path d="M363.989 325.498L319.079 299.57C313.821 296.534 313.821 291.594 319.079 288.558L363.987 262.63C369.245 259.595 377.801 259.595 383.059 262.631L427.969 288.559C433.227 291.595 433.227 296.535 427.969 299.57L383.061 325.498C377.803 328.534 369.247 328.534 363.989 325.498ZM376.577 266.373C374.893 265.401 372.154 265.401 370.47 266.373L325.562 292.301C323.878 293.273 323.878 294.855 325.562 295.827L370.471 321.755C372.155 322.727 374.894 322.727 376.578 321.755L421.486 295.827C423.17 294.855 423.17 293.274 421.486 292.302L376.577 266.373Z" fill="url(#paint10_linear_87_1212)"/>
<path d="M421.486 292.302L376.577 266.373C374.893 265.401 372.154 265.401 370.47 266.373L325.562 292.301C324.439 292.949 324.069 293.869 324.445 294.698C324.632 294.284 325.001 293.892 325.562 293.569L370.47 267.641C372.154 266.669 374.893 266.669 376.577 267.641L421.486 293.57C422.047 293.893 422.416 294.285 422.604 294.699C422.979 293.87 422.61 292.95 421.486 292.302Z" fill="white"/>
<path d="M427.969 299.57L383.061 325.498C377.803 328.534 369.247 328.534 363.989 325.498L319.079 299.57C316.729 298.213 315.432 296.475 315.183 294.698C314.875 296.897 316.171 299.158 319.079 300.837L363.989 326.766C369.247 329.802 377.803 329.802 383.061 326.766L427.969 300.838C430.877 299.159 432.173 296.898 431.865 294.699C431.616 296.476 430.319 298.214 427.969 299.57Z" fill="white"/>
<path d="M365.257 324.766L320.348 298.837C315.788 296.205 315.788 291.922 320.347 289.29L365.255 263.363C369.814 260.731 377.232 260.731 381.791 263.363L426.7 289.291C431.259 291.923 431.259 296.206 426.701 298.838L381.792 324.766C377.234 327.398 369.816 327.398 365.257 324.766ZM377.845 265.641C375.462 264.265 371.585 264.265 369.201 265.641L324.293 291.569C321.91 292.944 321.91 295.183 324.293 296.559L369.203 322.488C371.586 323.864 375.463 323.863 377.847 322.488L422.755 296.56C425.138 295.184 425.138 292.945 422.754 291.57L377.845 265.641Z" fill="url(#paint11_linear_87_1212)"/>
<path opacity="0.4" d="M376.577 266.373C374.893 265.401 372.154 265.401 370.47 266.373L325.562 292.301C323.878 293.273 323.878 294.855 325.562 295.827L370.471 321.755C372.155 322.727 374.895 322.727 376.578 321.755L421.486 295.828C423.17 294.855 423.17 293.274 421.486 292.302L376.577 266.373Z" fill="#42E8E0"/>
<path d="M327.131 243.225C322.344 248.112 309.741 254.646 305.834 250.82C301.927 246.994 308.197 234.257 312.983 229.37C317.77 224.482 324.817 223.622 328.724 227.448C332.631 231.274 331.917 238.337 327.131 243.225Z" fill="url(#paint12_radial_87_1212)"/>
<path d="M327.131 243.225C322.344 248.112 309.741 254.646 305.834 250.82C301.927 246.994 308.197 234.257 312.983 229.37C317.77 224.482 324.817 223.622 328.724 227.448C332.631 231.274 331.917 238.337 327.131 243.225Z" fill="url(#paint13_linear_87_1212)"/>
<path d="M327.689 229.96C327.393 229.96 327.093 229.902 326.803 229.779C325.63 229.291 325.078 227.942 325.569 226.771L332.678 209.783C333.165 208.612 334.514 208.053 335.687 208.55C336.86 209.039 337.411 210.387 336.92 211.559L329.812 228.546C329.444 229.428 328.589 229.96 327.689 229.96Z" fill="#42E8E0"/>
<path d="M417.999 223.744L413.733 225.47L428.467 261.878L432.733 260.151L417.999 223.744Z" fill="#42E8E0"/>
<path d="M353.515 204.747C351.982 212.492 344.461 217.527 336.716 215.994C328.971 214.461 323.936 206.939 325.469 199.194C327.003 191.45 334.524 186.414 342.269 187.948C350.014 189.481 355.049 197.003 353.515 204.747Z" fill="url(#paint14_radial_87_1212)"/>
<path d="M339.492 216.266C347.387 216.266 353.788 209.866 353.788 201.971C353.788 194.076 347.387 187.676 339.492 187.676C331.597 187.676 325.197 194.076 325.197 201.971C325.197 209.866 331.597 216.266 339.492 216.266Z" fill="url(#paint15_linear_87_1212)"/>
<path d="M410.782 227.93C410.782 255.679 394.257 278.175 373.873 278.175C353.488 278.175 336.964 255.679 336.964 227.93C336.964 200.18 353.488 191.865 373.873 191.865C394.257 191.865 410.782 200.18 410.782 227.93Z" fill="url(#paint16_radial_87_1212)"/>
<path d="M410.782 227.93C410.782 255.679 394.257 278.175 373.873 278.175C353.488 278.175 336.964 255.679 336.964 227.93C336.964 200.18 353.488 191.865 373.873 191.865C394.257 191.865 410.782 200.18 410.782 227.93Z" fill="url(#paint17_linear_87_1212)"/>
<path d="M373.873 221.327C387.785 221.327 399.063 214.816 399.063 206.784C399.063 198.752 387.785 192.24 373.873 192.24C359.961 192.24 348.683 198.752 348.683 206.784C348.683 214.816 359.961 221.327 373.873 221.327Z" fill="#393091"/>
<path d="M356.061 200.374C365.898 194.694 381.847 194.695 391.685 200.374C395.748 202.72 398.128 205.669 398.835 208.721C399.839 204.383 397.459 199.834 391.685 196.5C381.847 190.821 365.898 190.82 356.061 196.5C350.287 199.833 347.907 204.382 348.911 208.72C349.618 205.668 351.998 202.72 356.061 200.374Z" fill="#42E8E0"/>
<path d="M362.884 153.049C362.884 159.825 358.127 168.064 352.259 171.451C346.391 174.839 341.635 172.093 341.635 165.318C341.635 158.542 346.391 150.303 352.259 146.916C358.127 143.528 362.884 146.274 362.884 153.049Z" fill="#BCBEFF"/>
<path d="M375.337 209.715C396.127 209.715 412.981 192.861 412.981 172.071C412.981 151.281 396.127 134.427 375.337 134.427C354.547 134.427 337.693 151.281 337.693 172.071C337.693 192.861 354.547 209.715 375.337 209.715Z" fill="url(#paint18_radial_87_1212)"/>
<path d="M375.337 209.715C396.127 209.715 412.981 192.861 412.981 172.071C412.981 151.281 396.127 134.427 375.337 134.427C354.547 134.427 337.693 151.281 337.693 172.071C337.693 192.861 354.547 209.715 375.337 209.715Z" fill="url(#paint19_linear_87_1212)"/>
<path d="M359.215 196.971C364.088 194.943 365.19 186.456 361.677 178.015C358.163 169.574 351.364 164.376 346.491 166.405C341.618 168.433 340.515 176.92 344.029 185.361C347.543 193.802 354.341 199 359.215 196.971Z" fill="#393091"/>
<path d="M357.106 186.06C358.877 185.322 359.278 182.238 358.001 179.17C356.724 176.103 354.253 174.214 352.482 174.951C350.711 175.688 350.31 178.773 351.587 181.84C352.864 184.908 355.335 186.797 357.106 186.06Z" fill="#42E8E0"/>
<path d="M353.961 194.016C348.03 189.481 344.003 179.804 344.964 172.401C345.356 169.384 346.517 167.21 348.157 166.001C345.057 166.292 342.709 168.922 342.117 173.48C341.155 180.883 345.183 190.56 351.113 195.095C354.626 197.78 358.018 198.059 360.4 196.302C358.466 196.483 356.239 195.758 353.961 194.016Z" fill="#453C9E"/>
<path d="M351.624 194.854C345.694 190.319 341.666 180.642 342.627 173.239C343.073 169.813 344.51 167.476 346.513 166.403C344.245 167.337 342.599 169.769 342.117 173.48C341.155 180.883 345.183 190.56 351.113 195.095C354.297 197.529 357.379 197.979 359.702 196.735C357.448 197.663 354.58 197.114 351.624 194.854Z" fill="#42E8E0"/>
<path d="M429.892 227.382C428.359 235.127 420.837 240.162 413.092 238.629C405.348 237.095 400.313 229.574 401.846 221.829C403.379 214.084 410.901 209.049 418.645 210.583C426.39 212.116 431.426 219.637 429.892 227.382Z" fill="url(#paint20_radial_87_1212)"/>
<path d="M429.892 227.382C428.359 235.127 420.837 240.162 413.092 238.629C405.348 237.095 400.313 229.574 401.846 221.829C403.379 214.084 410.901 209.049 418.645 210.583C426.39 212.116 431.426 219.637 429.892 227.382Z" fill="url(#paint21_linear_87_1212)"/>
<path d="M438.669 271.97C437.858 278.763 431.859 291.629 426.429 290.981C420.999 290.333 418.196 276.417 419.006 269.624C419.817 262.831 424.875 257.849 430.305 258.497C435.735 259.145 439.479 265.177 438.669 271.97Z" fill="url(#paint22_radial_87_1212)"/>
<path d="M438.669 271.97C437.858 278.763 431.859 291.629 426.429 290.981C420.999 290.333 418.196 276.417 419.006 269.624C419.817 262.831 424.875 257.849 430.305 258.497C435.735 259.145 439.479 265.177 438.669 271.97Z" fill="url(#paint23_linear_87_1212)"/>
<g opacity="0.3">
<path opacity="0.3" d="M527.423 428.248V418.085L524.612 416.522C523.818 421.318 518.173 424.479 513.453 425.136L481.312 443.931L467.284 448.997L422.51 425.891L423.545 425.293C419.718 423.506 417.657 419.417 415.587 415.687L412.573 417.484L410.782 417.988V428.411L410.782 428.411C410.782 430.402 412.095 432.394 414.721 433.91L459.578 459.808C464.83 462.84 473.376 462.84 478.628 459.808L523.484 433.91C526.068 432.419 527.38 430.467 527.422 428.508C527.424 428.421 527.42 428.333 527.417 428.246L527.423 428.248Z" fill="url(#paint24_linear_87_1212)"/>
<path opacity="0.3" d="M513.453 425.136L481.312 443.931L469.103 448.34V462.082C472.552 462.082 476.002 461.324 478.628 459.808L523.484 433.91C526.068 432.419 527.38 430.467 527.422 428.508C527.424 428.421 527.42 428.333 527.417 428.246L527.423 428.248V418.085L524.854 416.656H524.585C523.709 421.377 518.128 424.485 513.453 425.136Z" fill="#0F054C"/>
<g opacity="0.3">
<path opacity="0.3" d="M459.578 449.482L414.721 423.584C409.469 420.552 409.469 415.618 414.721 412.585L459.577 386.688C464.829 383.656 473.375 383.656 478.627 386.688L523.484 412.586C528.736 415.619 528.736 420.553 523.484 423.585L478.628 449.482C473.376 452.515 464.83 452.515 459.578 449.482Z" fill="url(#paint25_linear_87_1212)"/>
</g>
<g opacity="0.3">
<path opacity="0.3" d="M459.578 449.482L414.721 423.584C409.469 420.552 409.469 415.618 414.721 412.585L459.577 386.688C464.829 383.656 473.375 383.656 478.627 386.688L523.484 412.586C528.736 415.619 528.736 420.553 523.484 423.585L478.628 449.482C473.376 452.515 464.83 452.515 459.578 449.482Z" fill="#0F054C"/>
</g>
</g>
<path d="M469.104 416.748C466.041 416.748 462.979 416.076 460.648 414.729L415.792 388.832C413.462 387.488 412.179 385.673 412.179 383.723C412.179 381.773 413.462 379.959 415.792 378.615L460.647 352.718C465.309 350.024 472.894 350.024 477.557 352.718L522.414 378.617C524.743 379.961 526.025 381.775 526.025 383.724C526.025 385.673 524.743 387.488 522.414 388.832L477.558 414.729C475.227 416.076 472.165 416.748 469.104 416.748ZM469.102 351.474C466.182 351.474 463.263 352.114 461.04 353.397L416.186 379.295C414.109 380.494 412.967 382.067 412.967 383.723C412.967 385.38 414.109 386.953 416.186 388.152L461.042 414.05C465.486 416.614 472.72 416.617 477.164 414.05L522.021 388.152C524.096 386.953 525.24 385.381 525.24 383.724C525.24 382.067 524.096 380.495 522.021 379.296L477.163 353.397C474.941 352.116 472.021 351.474 469.102 351.474Z" fill="#42E8E0"/>
<path opacity="0.4" d="M527.423 373.784V358.423L524.612 356.86C523.819 361.657 518.173 364.817 513.453 365.474L481.312 384.27L467.284 389.335L422.51 366.229L423.545 365.632C419.718 363.844 417.657 359.755 415.587 356.025L412.573 357.823L410.782 358.326V373.946H410.782C410.782 375.938 412.095 377.929 414.721 379.445L459.578 405.344C464.83 408.376 473.376 408.376 478.628 405.344L523.484 379.446C526.068 377.955 527.38 376.003 527.422 374.044C527.424 373.956 527.42 373.869 527.417 373.782L527.423 373.784Z" fill="#42E8E0"/>
<path d="M527.423 360.13V349.967L524.612 348.404C523.819 353.2 518.173 356.361 513.453 357.018L481.312 375.813L467.284 380.879L422.51 357.773L423.545 357.175C419.718 355.388 417.657 351.299 415.587 347.568L412.573 349.366L410.782 349.87V360.293H410.782C410.782 362.284 412.095 364.275 414.721 365.792L459.578 391.69C464.83 394.722 473.376 394.722 478.628 391.69L523.484 365.792C526.068 364.301 527.38 362.349 527.422 360.39C527.424 360.303 527.42 360.215 527.417 360.128L527.423 360.13Z" fill="url(#paint26_linear_87_1212)"/>
<path opacity="0.3" d="M513.454 357.018L481.312 375.813L469.103 380.222V393.964C472.553 393.964 476.002 393.206 478.629 391.69L523.484 365.792C526.068 364.301 527.38 362.349 527.422 360.39C527.424 360.303 527.42 360.215 527.417 360.128L527.423 360.13V349.967L524.854 348.538H524.586C523.709 353.259 518.129 356.367 513.454 357.018Z" fill="#0F054C"/>
<path d="M459.578 381.364L414.721 355.466C409.469 352.434 409.469 347.5 414.721 344.467L459.577 318.57C464.829 315.538 473.375 315.538 478.627 318.57L523.484 344.468C528.736 347.501 528.736 352.435 523.484 355.467L478.628 381.364C473.376 384.397 464.83 384.396 459.578 381.364Z" fill="url(#paint27_linear_87_1212)"/>
<path d="M523.484 355.467L478.629 381.364C473.377 384.397 464.83 384.396 459.578 381.364L414.721 355.466C412.374 354.111 411.079 352.375 410.83 350.6C410.521 352.797 411.817 355.055 414.721 356.732L459.578 382.631C464.83 385.663 473.377 385.663 478.629 382.631L523.484 356.733C526.389 355.056 527.684 352.798 527.376 350.601C527.127 352.376 525.832 354.112 523.484 355.467Z" fill="white"/>
<defs>
<linearGradient id="paint0_linear_87_1212" x1="422.386" y1="286.874" x2="514.931" y2="340.305" gradientUnits="userSpaceOnUse">
<stop stop-color="#BCBEFF"/>
<stop offset="0.22713" stop-color="#AAADF8"/>
<stop offset="0.68018" stop-color="#7C83E5"/>
<stop offset="1" stop-color="#5761D7"/>
</linearGradient>
<linearGradient id="paint1_linear_87_1212" x1="410.782" y1="307.071" x2="527.423" y2="307.071" gradientUnits="userSpaceOnUse">
<stop stop-color="#E9E9FD"/>
<stop offset="0.36008" stop-color="#D3D2F9"/>
<stop offset="0.70624" stop-color="#C5C4F7"/>
<stop offset="1" stop-color="#C0BFF6"/>
</linearGradient>
<linearGradient id="paint2_linear_87_1212" x1="422.386" y1="218.756" x2="514.931" y2="272.187" gradientUnits="userSpaceOnUse">
<stop stop-color="#BCBEFF"/>
<stop offset="0.22713" stop-color="#AAADF8"/>
<stop offset="0.68018" stop-color="#7C83E5"/>
<stop offset="1" stop-color="#5761D7"/>
</linearGradient>
<linearGradient id="paint3_linear_87_1212" x1="410.782" y1="238.953" x2="527.423" y2="238.953" gradientUnits="userSpaceOnUse">
<stop stop-color="#E9E9FD"/>
<stop offset="0.36008" stop-color="#D3D2F9"/>
<stop offset="0.70624" stop-color="#C5C4F7"/>
<stop offset="1" stop-color="#C0BFF6"/>
</linearGradient>
<linearGradient id="paint4_linear_87_1212" x1="450.301" y1="186.138" x2="43.9946" y2="186.138" gradientUnits="userSpaceOnUse">
<stop stop-color="#42E8E0"/>
<stop offset="0.10554" stop-color="#37B6BF"/>
<stop offset="0.21966" stop-color="#2C87A1"/>
<stop offset="0.33797" stop-color="#235F87"/>
<stop offset="0.45867" stop-color="#1C3F72"/>
<stop offset="0.58244" stop-color="#162561"/>
<stop offset="0.71054" stop-color="#121355"/>
<stop offset="0.84577" stop-color="#10084E"/>
<stop offset="1" stop-color="#0F054C"/>
</linearGradient>
<linearGradient id="paint5_linear_87_1212" x1="471.641" y1="201.193" x2="70.8693" y2="201.193" gradientUnits="userSpaceOnUse">
<stop stop-color="#42E8E0"/>
<stop offset="0.10554" stop-color="#37B6BF"/>
<stop offset="0.21966" stop-color="#2C87A1"/>
<stop offset="0.33797" stop-color="#235F87"/>
<stop offset="0.45867" stop-color="#1C3F72"/>
<stop offset="0.58244" stop-color="#162561"/>
<stop offset="0.71054" stop-color="#121355"/>
<stop offset="0.84577" stop-color="#10084E"/>
<stop offset="1" stop-color="#0F054C"/>
</linearGradient>
<linearGradient id="paint6_linear_87_1212" x1="326.753" y1="340.336" x2="419.406" y2="393.829" gradientUnits="userSpaceOnUse">
<stop stop-color="#BCBEFF"/>
<stop offset="0.22713" stop-color="#AAADF8"/>
<stop offset="0.68018" stop-color="#7C83E5"/>
<stop offset="1" stop-color="#5761D7"/>
</linearGradient>
<linearGradient id="paint7_linear_87_1212" x1="315.135" y1="360.556" x2="431.912" y2="360.556" gradientUnits="userSpaceOnUse">
<stop stop-color="#E9E9FD"/>
<stop offset="0.36008" stop-color="#D3D2F9"/>
<stop offset="0.70624" stop-color="#C5C4F7"/>
<stop offset="1" stop-color="#C0BFF6"/>
</linearGradient>
<linearGradient id="paint8_linear_87_1212" x1="326.753" y1="273.844" x2="419.406" y2="327.337" gradientUnits="userSpaceOnUse">
<stop stop-color="#BCBEFF"/>
<stop offset="0.22713" stop-color="#AAADF8"/>
<stop offset="0.68018" stop-color="#7C83E5"/>
<stop offset="1" stop-color="#5761D7"/>
</linearGradient>
<linearGradient id="paint9_linear_87_1212" x1="332.314" y1="270.242" x2="414.941" y2="317.947" gradientUnits="userSpaceOnUse">
<stop offset="0.24206" stop-color="#5761D7"/>
<stop offset="0.39229" stop-color="#7A82E5"/>
<stop offset="0.54627" stop-color="#979CF0"/>
<stop offset="0.7" stop-color="#ACAFF8"/>
<stop offset="0.85193" stop-color="#B8BAFD"/>
<stop offset="1" stop-color="#BCBEFF"/>
</linearGradient>
<linearGradient id="paint10_linear_87_1212" x1="315.135" y1="294.064" x2="431.912" y2="294.064" gradientUnits="userSpaceOnUse">
<stop stop-color="#E9E9FD"/>
<stop offset="0.36008" stop-color="#D3D2F9"/>
<stop offset="0.70624" stop-color="#C5C4F7"/>
<stop offset="1" stop-color="#C0BFF6"/>
</linearGradient>
<linearGradient id="paint11_linear_87_1212" x1="316.928" y1="294.064" x2="430.12" y2="294.064" gradientUnits="userSpaceOnUse">
<stop stop-color="#E9E9FD"/>
<stop offset="0.36008" stop-color="#D3D2F9"/>
<stop offset="0.70624" stop-color="#C5C4F7"/>
<stop offset="1" stop-color="#C0BFF6"/>
</linearGradient>
<radialGradient id="paint12_radial_87_1212" cx="0" cy="0" r="1" gradientUnits="userSpaceOnUse" gradientTransform="translate(339.109 221.875) rotate(44.4021) scale(25.3533 41.7667)">
<stop stop-color="#C0BFF6"/>
<stop offset="1" stop-color="#393091"/>
</radialGradient>
<linearGradient id="paint13_linear_87_1212" x1="330.684" y1="234.648" x2="308.119" y2="235.62" gradientUnits="userSpaceOnUse">
<stop stop-color="#42E8E0"/>
<stop offset="0.00467" stop-color="#42E6DF"/>
<stop offset="0.13577" stop-color="#40B6CB"/>
<stop offset="0.27066" stop-color="#3E8DB9"/>
<stop offset="0.40745" stop-color="#3C6BAA"/>
<stop offset="0.54668" stop-color="#3B519F"/>
<stop offset="0.68935" stop-color="#3A3F97"/>
<stop offset="0.8375" stop-color="#393493"/>
<stop offset="1" stop-color="#393091"/>
</linearGradient>
<radialGradient id="paint14_radial_87_1212" cx="0" cy="0" r="1" gradientUnits="userSpaceOnUse" gradientTransform="translate(407.867 156.299) rotate(11.1976) scale(82.5195 82.5196)">
<stop stop-color="#C0BFF6"/>
<stop offset="1" stop-color="#393091"/>
</radialGradient>
<linearGradient id="paint15_linear_87_1212" x1="331.813" y1="214.028" x2="347.172" y2="189.914" gradientUnits="userSpaceOnUse">
<stop stop-color="#42E8E0"/>
<stop offset="0.00467" stop-color="#42E6DF"/>
<stop offset="0.13577" stop-color="#40B6CB"/>
<stop offset="0.27066" stop-color="#3E8DB9"/>
<stop offset="0.40745" stop-color="#3C6BAA"/>
<stop offset="0.54668" stop-color="#3B519F"/>
<stop offset="0.68935" stop-color="#3A3F97"/>
<stop offset="0.8375" stop-color="#393493"/>
<stop offset="1" stop-color="#393091"/>
</linearGradient>
<radialGradient id="paint16_radial_87_1212" cx="0" cy="0" r="1" gradientUnits="userSpaceOnUse" gradientTransform="translate(395.65 220.4) scale(63.4308 86.346)">
<stop stop-color="#C0BFF6"/>
<stop offset="1" stop-color="#393091"/>
</radialGradient>
<linearGradient id="paint17_linear_87_1212" x1="373.873" y1="278.175" x2="373.873" y2="191.865" gradientUnits="userSpaceOnUse">
<stop stop-color="#42E8E0"/>
<stop offset="0.00467" stop-color="#42E6DF"/>
<stop offset="0.13577" stop-color="#40B6CB"/>
<stop offset="0.27066" stop-color="#3E8DB9"/>
<stop offset="0.40745" stop-color="#3C6BAA"/>
<stop offset="0.54668" stop-color="#3B519F"/>
<stop offset="0.68935" stop-color="#3A3F97"/>
<stop offset="0.8375" stop-color="#393493"/>
<stop offset="1" stop-color="#393091"/>
</linearGradient>
<radialGradient id="paint18_radial_87_1212" cx="0" cy="0" r="1" gradientUnits="userSpaceOnUse" gradientTransform="translate(398.829 166.494) scale(63.6253 63.6253)">
<stop stop-color="#C0BFF6"/>
<stop offset="1" stop-color="#393091"/>
</radialGradient>
<linearGradient id="paint19_linear_87_1212" x1="370.097" y1="209.353" x2="380.576" y2="134.789" gradientUnits="userSpaceOnUse">
<stop stop-color="#42E8E0"/>
<stop offset="0.00467" stop-color="#42E6DF"/>
<stop offset="0.13577" stop-color="#40B6CB"/>
<stop offset="0.27066" stop-color="#3E8DB9"/>
<stop offset="0.40745" stop-color="#3C6BAA"/>
<stop offset="0.54668" stop-color="#3B519F"/>
<stop offset="0.68935" stop-color="#3A3F97"/>
<stop offset="0.8375" stop-color="#393493"/>
<stop offset="1" stop-color="#393091"/>
</linearGradient>
<radialGradient id="paint20_radial_87_1212" cx="0" cy="0" r="1" gradientUnits="userSpaceOnUse" gradientTransform="translate(424.339 215.276) rotate(11.1975) scale(29.8245 29.8245)">
<stop stop-color="#C0BFF6"/>
<stop offset="1" stop-color="#393091"/>
</radialGradient>
<linearGradient id="paint21_linear_87_1212" x1="404.304" y1="233.009" x2="427.434" y2="216.203" gradientUnits="userSpaceOnUse">
<stop stop-color="#42E8E0"/>
<stop offset="0.00467" stop-color="#42E6DF"/>
<stop offset="0.13577" stop-color="#40B6CB"/>
<stop offset="0.27066" stop-color="#3E8DB9"/>
<stop offset="0.40745" stop-color="#3C6BAA"/>
<stop offset="0.54668" stop-color="#3B519F"/>
<stop offset="0.68935" stop-color="#3A3F97"/>
<stop offset="0.8375" stop-color="#393493"/>
<stop offset="1" stop-color="#393091"/>
</linearGradient>
<radialGradient id="paint22_radial_87_1212" cx="0" cy="0" r="1" gradientUnits="userSpaceOnUse" gradientTransform="translate(442.37 260.619) rotate(6.80438) scale(25.3534 41.767)">
<stop stop-color="#C0BFF6"/>
<stop offset="1" stop-color="#393091"/>
</radialGradient>
<linearGradient id="paint23_linear_87_1212" x1="418.536" y1="273.566" x2="438.198" y2="275.912" gradientUnits="userSpaceOnUse">
<stop stop-color="#42E8E0"/>
<stop offset="0.00467" stop-color="#42E6DF"/>
<stop offset="0.13577" stop-color="#40B6CB"/>
<stop offset="0.27066" stop-color="#3E8DB9"/>
<stop offset="0.40745" stop-color="#3C6BAA"/>
<stop offset="0.54668" stop-color="#3B519F"/>
<stop offset="0.68935" stop-color="#3A3F97"/>
<stop offset="0.8375" stop-color="#393493"/>
<stop offset="1" stop-color="#393091"/>
</linearGradient>
<linearGradient id="paint24_linear_87_1212" x1="422.386" y1="397.889" x2="514.931" y2="451.319" gradientUnits="userSpaceOnUse">
<stop stop-color="#BCBEFF"/>
<stop offset="0.22713" stop-color="#AAADF8"/>
<stop offset="0.68018" stop-color="#7C83E5"/>
<stop offset="1" stop-color="#5761D7"/>
</linearGradient>
<linearGradient id="paint25_linear_87_1212" x1="410.782" y1="418.085" x2="527.423" y2="418.085" gradientUnits="userSpaceOnUse">
<stop stop-color="#E9E9FD"/>
<stop offset="0.36008" stop-color="#D3D2F9"/>
<stop offset="0.70624" stop-color="#C5C4F7"/>
<stop offset="1" stop-color="#C0BFF6"/>
</linearGradient>
<linearGradient id="paint26_linear_87_1212" x1="422.386" y1="329.77" x2="514.931" y2="383.201" gradientUnits="userSpaceOnUse">
<stop stop-color="#BCBEFF"/>
<stop offset="0.22713" stop-color="#AAADF8"/>
<stop offset="0.68018" stop-color="#7C83E5"/>
<stop offset="1" stop-color="#5761D7"/>
</linearGradient>
<linearGradient id="paint27_linear_87_1212" x1="410.782" y1="349.967" x2="527.423" y2="349.967" gradientUnits="userSpaceOnUse">
<stop stop-color="#E9E9FD"/>
<stop offset="0.36008" stop-color="#D3D2F9"/>
<stop offset="0.70624" stop-color="#C5C4F7"/>
<stop offset="1" stop-color="#C0BFF6"/>
</linearGradient>
</defs>
</svg>
