<svg width="254" height="74" viewBox="0 0 254 74" fill="none" xmlns="http://www.w3.org/2000/svg">
<path d="M92.1191 49.027C92.0215 49.9254 91.6992 50.6129 91.1523 51.0895C90.6094 51.566 89.8848 51.8043 88.9785 51.8043C88.3457 51.8043 87.7852 51.6461 87.2969 51.3297C86.8125 51.0133 86.4375 50.566 86.1719 49.9879C85.9062 49.4059 85.7715 48.7418 85.7676 47.9957V46.8883C85.7676 46.1305 85.9004 45.4586 86.166 44.8727C86.4316 44.2867 86.8125 43.8356 87.3086 43.5192C87.8086 43.1989 88.3828 43.0387 89.0312 43.0387C89.9453 43.0387 90.666 43.2867 91.1934 43.7828C91.7246 44.275 92.0332 44.9567 92.1191 45.8278H91.3926C91.2129 44.3785 90.4258 43.6539 89.0312 43.6539C88.2578 43.6539 87.6406 43.943 87.1797 44.5211C86.7227 45.0992 86.4941 45.8981 86.4941 46.9176V47.9606C86.4941 48.9449 86.7168 49.7301 87.1621 50.316C87.6113 50.902 88.2168 51.1949 88.9785 51.1949C89.7324 51.1949 90.3008 51.0153 90.6836 50.6559C91.0664 50.2926 91.3027 49.7496 91.3926 49.027H92.1191ZM98.2598 45.9449H95.9512V51.6871H95.248V45.9449H93.0273V45.3473H98.2598V45.9449ZM101.494 50.6793L103.346 45.3473H104.102L101.395 52.7653L101.254 53.0934C100.906 53.8629 100.369 54.2477 99.6426 54.2477C99.4746 54.2477 99.2949 54.2203 99.1035 54.1656L99.0977 53.5856L99.4609 53.6207C99.8047 53.6207 100.082 53.5348 100.293 53.3629C100.508 53.1949 100.689 52.9039 100.838 52.4899L101.148 51.6344L98.7578 45.3473H99.5254L101.494 50.6793ZM104.717 51.0953L105.027 50.691C105.52 50.0231 105.803 49.0465 105.877 47.7614L105.988 45.3473H109.732V51.0953H110.389V53.5504H109.691V51.6871H104.928V53.5504H104.254L104.26 51.0953H104.717ZM105.525 51.0953H109.029V46.0035H106.656L106.58 47.65C106.51 49.1617 106.158 50.3102 105.525 51.0953ZM115.908 45.3473H116.611V51.6871H115.908V46.4781L112.486 51.6871H111.789V45.3473H112.486V50.5621L115.908 45.3473ZM123.115 45.3473V51.6871H122.412V49.1324H120.443L118.896 51.6871H118.123L119.717 49.0446C119.283 48.9313 118.945 48.7125 118.703 48.3883C118.465 48.0641 118.346 47.6813 118.346 47.2399C118.346 46.6656 118.551 46.2067 118.961 45.8629C119.375 45.5192 119.934 45.3473 120.637 45.3473H123.115ZM119.049 47.2516C119.049 47.6227 119.166 47.9274 119.4 48.1656C119.639 48.4039 119.969 48.527 120.391 48.5348H122.412V45.9449H120.619C120.131 45.9449 119.746 46.0621 119.465 46.2965C119.188 46.5309 119.049 46.8492 119.049 47.2516ZM133.023 48.5817C133.023 49.5699 132.805 50.3551 132.367 50.9371C131.93 51.5153 131.344 51.8043 130.609 51.8043C129.742 51.8043 129.078 51.4996 128.617 50.8903V54.1246H127.92V45.3473H128.57L128.605 46.2438C129.062 45.568 129.725 45.2301 130.592 45.2301C131.35 45.2301 131.943 45.5172 132.373 46.0914C132.807 46.6656 133.023 47.4625 133.023 48.4821V48.5817ZM132.32 48.4586C132.32 47.65 132.154 47.0114 131.822 46.5426C131.49 46.0739 131.027 45.8395 130.434 45.8395C130.004 45.8395 129.635 45.943 129.326 46.15C129.018 46.3571 128.781 46.6578 128.617 47.0524V50.0934C128.785 50.4567 129.025 50.734 129.338 50.9254C129.65 51.1168 130.02 51.2125 130.445 51.2125C131.035 51.2125 131.494 50.9781 131.822 50.5094C132.154 50.0367 132.32 49.3531 132.32 48.4586ZM138.584 51.6871C138.514 51.4879 138.469 51.193 138.449 50.8024C138.203 51.1227 137.889 51.3707 137.506 51.5465C137.127 51.7184 136.725 51.8043 136.299 51.8043C135.689 51.8043 135.195 51.6344 134.816 51.2946C134.441 50.9547 134.254 50.525 134.254 50.0055C134.254 49.3883 134.51 48.9 135.021 48.5406C135.537 48.1813 136.254 48.0016 137.172 48.0016H138.443V47.2809C138.443 46.8278 138.303 46.4723 138.021 46.2145C137.744 45.9528 137.338 45.8219 136.803 45.8219C136.314 45.8219 135.91 45.9469 135.59 46.1969C135.27 46.4469 135.109 46.7477 135.109 47.0992L134.406 47.0934C134.406 46.5895 134.641 46.1539 135.109 45.7867C135.578 45.4156 136.154 45.2301 136.838 45.2301C137.545 45.2301 138.102 45.4078 138.508 45.7633C138.918 46.1149 139.129 46.6071 139.141 47.2399V50.2399C139.141 50.8531 139.205 51.3121 139.334 51.6168V51.6871H138.584ZM136.381 51.1832C136.85 51.1832 137.268 51.0699 137.635 50.8434C138.006 50.6168 138.275 50.3141 138.443 49.9352V48.5406H137.189C136.49 48.5485 135.943 48.6774 135.549 48.9274C135.154 49.1735 134.957 49.5133 134.957 49.9469C134.957 50.3024 135.088 50.5973 135.35 50.8317C135.615 51.066 135.959 51.1832 136.381 51.1832ZM144.73 47.0231C144.73 46.6403 144.588 46.3453 144.303 46.1383C144.018 45.9313 143.625 45.8278 143.125 45.8278C142.672 45.8278 142.283 45.9449 141.959 46.1793C141.639 46.4098 141.479 46.7028 141.479 47.0582H140.781C140.781 46.5309 141.006 46.0953 141.455 45.7516C141.908 45.4078 142.465 45.236 143.125 45.236C143.852 45.236 144.418 45.3922 144.824 45.7047C145.23 46.0172 145.434 46.4606 145.434 47.0348C145.434 47.3395 145.34 47.6149 145.152 47.861C144.965 48.1071 144.691 48.2985 144.332 48.4352C145.145 48.6578 145.551 49.1617 145.551 49.9469C145.551 50.5172 145.33 50.9684 144.889 51.3004C144.447 51.6324 143.861 51.7985 143.131 51.7985C142.424 51.7985 141.838 51.6207 141.373 51.2653C140.908 50.9098 140.676 50.4449 140.676 49.8707H141.379C141.379 50.2535 141.547 50.5739 141.883 50.8317C142.223 51.0856 142.639 51.2125 143.131 51.2125C143.666 51.2125 144.084 51.1012 144.385 50.8785C144.689 50.652 144.842 50.3453 144.842 49.9586C144.842 49.5328 144.703 49.2262 144.426 49.0387C144.148 48.8512 143.725 48.7574 143.154 48.7574H142.188V48.1481H143.271C144.244 48.1246 144.73 47.7496 144.73 47.0231ZM152.195 48.5817C152.195 49.5699 151.977 50.3551 151.539 50.9371C151.102 51.5153 150.516 51.8043 149.781 51.8043C148.914 51.8043 148.25 51.4996 147.789 50.8903V54.1246H147.092V45.3473H147.742L147.777 46.2438C148.234 45.568 148.896 45.2301 149.764 45.2301C150.521 45.2301 151.115 45.5172 151.545 46.0914C151.979 46.6656 152.195 47.4625 152.195 48.4821V48.5817ZM151.492 48.4586C151.492 47.65 151.326 47.0114 150.994 46.5426C150.662 46.0739 150.199 45.8395 149.605 45.8395C149.176 45.8395 148.807 45.943 148.498 46.15C148.189 46.3571 147.953 46.6578 147.789 47.0524V50.0934C147.957 50.4567 148.197 50.734 148.51 50.9254C148.822 51.1168 149.191 51.2125 149.617 51.2125C150.207 51.2125 150.666 50.9781 150.994 50.5094C151.326 50.0367 151.492 49.3531 151.492 48.4586ZM157.756 51.6871C157.686 51.4879 157.641 51.193 157.621 50.8024C157.375 51.1227 157.061 51.3707 156.678 51.5465C156.299 51.7184 155.896 51.8043 155.471 51.8043C154.861 51.8043 154.367 51.6344 153.988 51.2946C153.613 50.9547 153.426 50.525 153.426 50.0055C153.426 49.3883 153.682 48.9 154.193 48.5406C154.709 48.1813 155.426 48.0016 156.344 48.0016H157.615V47.2809C157.615 46.8278 157.475 46.4723 157.193 46.2145C156.916 45.9528 156.51 45.8219 155.975 45.8219C155.486 45.8219 155.082 45.9469 154.762 46.1969C154.441 46.4469 154.281 46.7477 154.281 47.0992L153.578 47.0934C153.578 46.5895 153.812 46.1539 154.281 45.7867C154.75 45.4156 155.326 45.2301 156.01 45.2301C156.717 45.2301 157.273 45.4078 157.68 45.7633C158.09 46.1149 158.301 46.6071 158.312 47.2399V50.2399C158.312 50.8531 158.377 51.3121 158.506 51.6168V51.6871H157.756ZM155.553 51.1832C156.021 51.1832 156.439 51.0699 156.807 50.8434C157.178 50.6168 157.447 50.3141 157.615 49.9352V48.5406H156.361C155.662 48.5485 155.115 48.6774 154.721 48.9274C154.326 49.1735 154.129 49.5133 154.129 49.9469C154.129 50.3024 154.26 50.5973 154.521 50.8317C154.787 51.066 155.131 51.1832 155.553 51.1832ZM162.742 45.7692C163.547 45.7692 164.199 46.0328 164.699 46.5602C165.199 47.0836 165.449 47.7789 165.449 48.6461V48.7985C165.449 49.3727 165.334 49.8903 165.104 50.3512C164.877 50.8082 164.549 51.1656 164.119 51.4235C163.693 51.6774 163.203 51.8043 162.648 51.8043C161.812 51.8043 161.135 51.527 160.615 50.9723C160.1 50.4137 159.842 49.6696 159.842 48.7399V48.1774C159.842 46.8649 160.092 45.816 160.592 45.0309C161.092 44.2457 161.803 43.777 162.725 43.6246C163.307 43.5309 163.715 43.4039 163.949 43.2438C164.188 43.0836 164.307 42.8649 164.307 42.5875H164.91C164.91 42.9156 164.842 43.1871 164.705 43.402C164.568 43.6168 164.363 43.7906 164.09 43.9235C163.816 44.0524 163.398 44.1617 162.836 44.2516C162.191 44.3531 161.672 44.6285 161.277 45.0778C160.887 45.5231 160.633 46.1207 160.516 46.8707C160.766 46.5426 161.078 46.277 161.453 46.0739C161.832 45.8707 162.262 45.7692 162.742 45.7692ZM160.545 48.652V48.7985C160.545 49.5133 160.738 50.0953 161.125 50.5446C161.512 50.9899 162.02 51.2125 162.648 51.2125C163.281 51.2125 163.789 50.9879 164.172 50.5387C164.555 50.0856 164.746 49.4918 164.746 48.7574V48.6051C164.746 47.9449 164.551 47.4059 164.16 46.9879C163.773 46.5699 163.266 46.361 162.637 46.361C162.008 46.361 161.502 46.5739 161.119 46.9996C160.736 47.4215 160.545 47.9723 160.545 48.652ZM166.41 48.4235C166.41 47.8141 166.527 47.2653 166.762 46.777C167 46.2887 167.334 45.9098 167.764 45.6403C168.197 45.3668 168.688 45.2301 169.234 45.2301C170.078 45.2301 170.762 45.527 171.285 46.1207C171.809 46.7106 172.07 47.4938 172.07 48.4703V48.6168C172.07 49.2301 171.951 49.7828 171.713 50.275C171.479 50.7633 171.146 51.1403 170.717 51.4059C170.287 51.6715 169.797 51.8043 169.246 51.8043C168.406 51.8043 167.723 51.5094 167.195 50.9196C166.672 50.3258 166.41 49.5406 166.41 48.5641V48.4235ZM167.113 48.6168C167.113 49.3746 167.309 49.9977 167.699 50.486C168.094 50.9703 168.609 51.2125 169.246 51.2125C169.879 51.2125 170.391 50.9703 170.781 50.486C171.176 49.9977 171.373 49.3551 171.373 48.5582V48.4235C171.373 47.9391 171.283 47.4957 171.104 47.0934C170.924 46.691 170.672 46.3805 170.348 46.1617C170.023 45.9391 169.652 45.8278 169.234 45.8278C168.609 45.8278 168.1 46.0739 167.705 46.566C167.311 47.0543 167.113 47.6949 167.113 48.4879V48.6168ZM177.947 45.9449H175.639V51.6871H174.936V45.9449H172.715V45.3473H177.947V45.9449ZM180.824 48.7809H179.852V51.6871H179.143V45.3473H179.852V48.1598H180.812L183.139 45.3473H184.023L181.422 48.4235L184.311 51.6871H183.385L180.824 48.7809ZM189.49 45.3473H190.193V51.6871H189.49V46.4781L186.068 51.6871H185.371V45.3473H186.068V50.5621L189.49 45.3473ZM197.336 51.2125C197.824 51.2125 198.232 51.0758 198.561 50.8024C198.893 50.525 199.072 50.1676 199.1 49.7301H199.773C199.754 50.1168 199.633 50.4703 199.41 50.7906C199.188 51.1071 198.891 51.3551 198.52 51.5348C198.152 51.7145 197.758 51.8043 197.336 51.8043C196.504 51.8043 195.844 51.5153 195.355 50.9371C194.871 50.359 194.629 49.5817 194.629 48.6051V48.3942C194.629 47.7692 194.738 47.2164 194.957 46.736C195.176 46.2555 195.488 45.8844 195.895 45.6227C196.305 45.361 196.783 45.2301 197.33 45.2301C198.025 45.2301 198.598 45.4371 199.047 45.8512C199.5 46.2653 199.742 46.8102 199.773 47.486H199.1C199.068 46.9899 198.889 46.5895 198.561 46.2848C198.236 45.9801 197.826 45.8278 197.33 45.8278C196.697 45.8278 196.205 46.0563 195.854 46.5133C195.506 46.9703 195.332 47.611 195.332 48.4352V48.6403C195.332 49.4489 195.506 50.0797 195.854 50.5328C196.205 50.986 196.699 51.2125 197.336 51.2125ZM205.182 51.6871C205.111 51.4879 205.066 51.193 205.047 50.8024C204.801 51.1227 204.486 51.3707 204.104 51.5465C203.725 51.7184 203.322 51.8043 202.896 51.8043C202.287 51.8043 201.793 51.6344 201.414 51.2946C201.039 50.9547 200.852 50.525 200.852 50.0055C200.852 49.3883 201.107 48.9 201.619 48.5406C202.135 48.1813 202.852 48.0016 203.77 48.0016H205.041V47.2809C205.041 46.8278 204.9 46.4723 204.619 46.2145C204.342 45.9528 203.936 45.8219 203.4 45.8219C202.912 45.8219 202.508 45.9469 202.188 46.1969C201.867 46.4469 201.707 46.7477 201.707 47.0992L201.004 47.0934C201.004 46.5895 201.238 46.1539 201.707 45.7867C202.176 45.4156 202.752 45.2301 203.436 45.2301C204.143 45.2301 204.699 45.4078 205.105 45.7633C205.516 46.1149 205.727 46.6071 205.738 47.2399V50.2399C205.738 50.8531 205.803 51.3121 205.932 51.6168V51.6871H205.182ZM202.979 51.1832C203.447 51.1832 203.865 51.0699 204.232 50.8434C204.604 50.6168 204.873 50.3141 205.041 49.9352V48.5406H203.787C203.088 48.5485 202.541 48.6774 202.146 48.9274C201.752 49.1735 201.555 49.5133 201.555 49.9469C201.555 50.3024 201.686 50.5973 201.947 50.8317C202.213 51.066 202.557 51.1832 202.979 51.1832ZM211.779 45.3473H212.482V51.6871H211.779V46.4781L208.357 51.6871H207.66V45.3473H208.357V50.5621L211.779 45.3473ZM211.744 43.0621C211.744 43.5114 211.59 43.8746 211.281 44.152C210.977 44.4293 210.566 44.568 210.051 44.568C209.543 44.568 209.133 44.4313 208.82 44.1578C208.512 43.8805 208.357 43.5153 208.357 43.0621H208.955C208.955 43.3864 209.051 43.6344 209.242 43.8063C209.438 43.9781 209.707 44.0641 210.051 44.0641C210.395 44.0641 210.662 43.9742 210.854 43.7946C211.049 43.6149 211.146 43.3707 211.146 43.0621H211.744ZM218.916 45.9449H216.607V51.6871H215.904V45.9449H213.684V45.3473H218.916V45.9449ZM219.438 48.4235C219.438 47.8141 219.555 47.2653 219.789 46.777C220.027 46.2887 220.361 45.9098 220.791 45.6403C221.225 45.3668 221.715 45.2301 222.262 45.2301C223.105 45.2301 223.789 45.527 224.312 46.1207C224.836 46.7106 225.098 47.4938 225.098 48.4703V48.6168C225.098 49.2301 224.979 49.7828 224.74 50.275C224.506 50.7633 224.174 51.1403 223.744 51.4059C223.314 51.6715 222.824 51.8043 222.273 51.8043C221.434 51.8043 220.75 51.5094 220.223 50.9196C219.699 50.3258 219.438 49.5406 219.438 48.5641V48.4235ZM220.141 48.6168C220.141 49.3746 220.336 49.9977 220.727 50.486C221.121 50.9703 221.637 51.2125 222.273 51.2125C222.906 51.2125 223.418 50.9703 223.809 50.486C224.203 49.9977 224.4 49.3551 224.4 48.5582V48.4235C224.4 47.9391 224.311 47.4957 224.131 47.0934C223.951 46.691 223.699 46.3805 223.375 46.1617C223.051 45.9391 222.68 45.8278 222.262 45.8278C221.637 45.8278 221.127 46.0739 220.732 46.566C220.338 47.0543 220.141 47.6949 220.141 48.4879V48.6168ZM226.627 51.6871V45.3473H228.953C229.758 45.3473 230.375 45.4918 230.805 45.7809C231.234 46.066 231.449 46.486 231.449 47.0406C231.449 47.3571 231.354 47.6403 231.162 47.8903C230.971 48.1364 230.691 48.316 230.324 48.4293C230.738 48.5074 231.07 48.6852 231.32 48.9625C231.574 49.2399 231.701 49.5621 231.701 49.9293C231.701 50.4879 231.494 50.9215 231.08 51.2301C230.67 51.5348 230.088 51.6871 229.334 51.6871H226.627ZM227.324 48.7692V51.1012H229.357C229.885 51.1012 230.291 50.9996 230.576 50.7965C230.861 50.5934 231.004 50.3004 231.004 49.9176C231.004 49.566 230.861 49.2867 230.576 49.0797C230.291 48.8727 229.885 48.7692 229.357 48.7692H227.324ZM227.324 48.1832H229.1C230.201 48.1676 230.752 47.7926 230.752 47.0582C230.752 46.6715 230.6 46.3903 230.295 46.2145C229.994 46.0348 229.547 45.9449 228.953 45.9449H227.324V48.1832Z" fill="white"/>
<path d="M81.0391 37C79.444 32.5208 77.7871 28.0775 76.0684 23.6699C76.6934 23.6829 77.2012 23.6895 77.5918 23.6895C78.0215 23.6895 78.5293 23.6829 79.1152 23.6699L81.8496 31.7559L82.9922 34.9395C83.2396 34.4577 83.6107 33.6862 84.1055 32.625C84.6068 31.5573 84.9648 30.7695 85.1797 30.2617C84.8802 29.3503 84.4993 28.2467 84.0371 26.9512C83.5814 25.6556 83.181 24.5618 82.8359 23.6699C83.3893 23.6829 83.8743 23.6895 84.291 23.6895C84.7533 23.6895 85.2383 23.6829 85.7461 23.6699C86.0521 24.8483 86.3906 26.0137 86.7617 27.166C87.3086 25.9876 87.8099 24.8223 88.2656 23.6699C88.832 23.6829 89.2878 23.6895 89.6328 23.6895C90.0299 23.6895 90.4857 23.6829 91 23.6699C90.5833 24.5033 90.0658 25.5677 89.4473 26.8633C88.8353 28.1589 88.3405 29.2396 87.9629 30.1055C88.1061 30.5742 88.373 31.3685 88.7637 32.4883C89.1543 33.6081 89.4408 34.3991 89.623 34.8613L92.25 29.2754L94.1543 25.0957L94.7793 23.6699C95.4043 23.6829 95.9056 23.6895 96.2832 23.6895C96.6999 23.6895 97.2044 23.6829 97.7969 23.6699L95.9609 27.3125L92.123 35.1836L91.2637 37C90.5671 36.987 89.9714 36.9805 89.4766 36.9805C88.9557 36.9805 88.3568 36.987 87.6797 37C87.2956 35.6849 86.8724 34.3926 86.4102 33.123C85.7917 34.3926 85.2057 35.6849 84.6523 37C83.9557 36.987 83.3535 36.9805 82.8457 36.9805C82.3118 36.9805 81.7096 36.987 81.0391 37ZM106.898 34.7832C106.814 35.1673 106.693 35.8574 106.537 36.8535C105.834 37.0033 105.242 37.1042 104.76 37.1562C104.278 37.2083 103.793 37.2344 103.305 37.2344C102.452 37.2344 101.687 37.1497 101.01 36.9805C100.339 36.8112 99.75 36.502 99.2422 36.0527C98.7344 35.597 98.36 35.0404 98.1191 34.3828C97.8783 33.7253 97.7578 33.0352 97.7578 32.3125C97.7578 31.5117 97.8978 30.737 98.1777 29.9883C98.4577 29.2331 98.8483 28.6178 99.3496 28.1426C99.8574 27.6608 100.434 27.3223 101.078 27.127C101.723 26.9251 102.396 26.8242 103.1 26.8242C103.764 26.8242 104.395 26.9089 104.994 27.0781C105.593 27.2409 106.094 27.5111 106.498 27.8887C106.908 28.2663 107.221 28.722 107.436 29.2559C107.657 29.7832 107.768 30.3724 107.768 31.0234C107.768 31.3294 107.735 31.6452 107.67 31.9707L100.512 31.9805C100.499 32.2214 100.492 32.4134 100.492 32.5566C100.492 32.9928 100.567 33.3932 100.717 33.7578C100.867 34.1224 101.085 34.4316 101.371 34.6855C101.658 34.9395 101.999 35.1283 102.396 35.252C102.794 35.3691 103.184 35.4277 103.568 35.4277C104.018 35.4277 104.503 35.3789 105.023 35.2812C105.551 35.1836 106.176 35.0176 106.898 34.7832ZM100.59 30.8379L105.16 30.8477C105.16 30.5352 105.15 30.304 105.131 30.1543C105.111 30.0046 105.066 29.8353 104.994 29.6465C104.929 29.4512 104.838 29.2819 104.721 29.1387C104.604 28.9889 104.467 28.8652 104.311 28.7676C104.154 28.6699 103.972 28.5951 103.764 28.543C103.562 28.4909 103.344 28.4648 103.109 28.4648C102.836 28.4648 102.569 28.5072 102.309 28.5918C102.055 28.6764 101.82 28.8001 101.605 28.9629C101.391 29.1257 101.215 29.3079 101.078 29.5098C100.948 29.7116 100.85 29.9069 100.785 30.0957C100.72 30.278 100.655 30.5254 100.59 30.8379ZM109.252 37C109.369 35.763 109.496 33.6146 109.633 30.5547C109.776 27.4883 109.851 25.1934 109.857 23.6699C110.437 23.6829 110.938 23.6895 111.361 23.6895C111.785 23.6895 112.237 23.6829 112.719 23.6699C112.608 24.5879 112.52 25.7467 112.455 27.1465C113.093 27.0228 113.601 26.9414 113.979 26.9023C114.356 26.8568 114.73 26.834 115.102 26.834C116.124 26.834 116.983 26.9967 117.68 27.3223C118.383 27.6413 118.946 28.1751 119.369 28.9238C119.792 29.666 120.004 30.5677 120.004 31.6289C120.004 32.3711 119.896 33.0938 119.682 33.7969C119.473 34.4935 119.158 35.1152 118.734 35.6621C118.318 36.2025 117.81 36.5996 117.211 36.8535C116.612 37.1074 115.961 37.2344 115.258 37.2344C114.919 37.2344 114.604 37.2018 114.311 37.1367C114.024 37.0781 113.757 36.9902 113.51 36.873C113.269 36.7559 113.051 36.6191 112.855 36.4629C112.667 36.3066 112.507 36.1504 112.377 35.9941C112.253 35.8379 112.107 35.6198 111.938 35.3398L111.898 37C111.365 36.987 110.945 36.9805 110.639 36.9805C110.404 36.9805 109.942 36.987 109.252 37ZM112.27 29.1387L112.191 30.8086C112.172 31.1667 112.162 31.515 112.162 31.8535C112.162 32.6608 112.243 33.2988 112.406 33.7676C112.576 34.2298 112.859 34.5879 113.256 34.8418C113.653 35.0957 114.099 35.2227 114.594 35.2227C115.134 35.2227 115.603 35.0794 116 34.793C116.397 34.5 116.7 34.0736 116.908 33.5137C117.123 32.9538 117.23 32.3646 117.23 31.7461C117.23 30.8542 116.993 30.138 116.518 29.5977C116.042 29.0573 115.342 28.7871 114.418 28.7871C114.118 28.7871 113.806 28.8132 113.48 28.8652C113.155 28.9108 112.751 29.002 112.27 29.1387ZM126.869 37L127.133 33.6016L127.328 29.3535L127.455 25.125C127.462 24.9427 127.465 24.4577 127.465 23.6699C128.188 23.6829 128.868 23.6895 129.506 23.6895C129.981 23.6895 130.606 23.6797 131.381 23.6602C132.162 23.6406 132.836 23.6309 133.402 23.6309C134.171 23.6309 134.88 23.6764 135.531 23.7676C136.189 23.8587 136.762 24.0312 137.25 24.2852C137.738 24.5326 138.161 24.8451 138.52 25.2227C138.878 25.6003 139.171 26.0202 139.398 26.4824C139.626 26.9382 139.799 27.4492 139.916 28.0156C140.04 28.5755 140.102 29.1484 140.102 29.7344C140.102 30.8542 139.906 31.9219 139.516 32.9375C139.132 33.9466 138.555 34.7832 137.787 35.4473C137.019 36.1048 136.166 36.528 135.229 36.7168C134.298 36.9056 133.24 37 132.055 37L128.734 36.9805C128.526 36.9805 127.904 36.987 126.869 37ZM129.867 34.9199C130.401 34.946 130.928 34.959 131.449 34.959C132.042 34.959 132.589 34.9297 133.09 34.8711C133.598 34.8125 134.034 34.7214 134.398 34.5977C134.763 34.4674 135.128 34.2428 135.492 33.9238C135.863 33.6048 136.166 33.237 136.4 32.8203C136.635 32.3971 136.814 31.9284 136.938 31.4141C137.061 30.8997 137.123 30.3757 137.123 29.8418C137.123 28.8652 136.957 28.0645 136.625 27.4395C136.293 26.8079 135.854 26.3555 135.307 26.082C134.766 25.8021 133.93 25.6621 132.797 25.6621C132.061 25.6621 131.218 25.6751 130.268 25.7012L129.867 34.9199ZM142.309 25.3691C142.335 24.6986 142.348 24.1842 142.348 23.8262V23.5137C142.94 23.5267 143.422 23.5332 143.793 23.5332C144.301 23.5332 144.773 23.5267 145.209 23.5137C145.189 23.6764 145.176 23.862 145.17 24.0703L145.121 25.3691C144.626 25.3561 144.171 25.3496 143.754 25.3496C143.337 25.3496 142.855 25.3561 142.309 25.3691ZM141.781 37C141.879 36.0234 141.947 35.2064 141.986 34.5488C142.051 33.5072 142.107 32.306 142.152 30.9453C142.204 29.5846 142.24 28.2923 142.26 27.0684C142.898 27.0814 143.376 27.0879 143.695 27.0879C143.988 27.0879 144.464 27.0814 145.121 27.0684C145.03 28.2012 144.955 29.2819 144.896 30.3105C144.844 31.3392 144.805 32.5176 144.779 33.8457C144.753 35.1738 144.74 36.2253 144.74 37C144.148 36.987 143.673 36.9805 143.314 36.9805C142.976 36.9805 142.465 36.987 141.781 37ZM149.779 37C149.35 35.6263 148.194 32.3158 146.312 27.0684C146.885 27.0814 147.38 27.0879 147.797 27.0879C148.24 27.0879 148.692 27.0814 149.154 27.0684L151.439 34.5195L151.752 33.6699L153.949 28.0938C154.053 27.8333 154.184 27.4915 154.34 27.0684C154.874 27.0814 155.349 27.0879 155.766 27.0879C156.189 27.0879 156.671 27.0814 157.211 27.0684L155.619 30.5156L153.314 35.7402L152.797 37C152.211 36.987 151.719 36.9805 151.322 36.9805C150.906 36.9805 150.391 36.987 149.779 37ZM158.422 25.3691C158.448 24.6986 158.461 24.1842 158.461 23.8262V23.5137C159.053 23.5267 159.535 23.5332 159.906 23.5332C160.414 23.5332 160.886 23.5267 161.322 23.5137C161.303 23.6764 161.29 23.862 161.283 24.0703L161.234 25.3691C160.74 25.3561 160.284 25.3496 159.867 25.3496C159.451 25.3496 158.969 25.3561 158.422 25.3691ZM157.895 37C157.992 36.0234 158.061 35.2064 158.1 34.5488C158.165 33.5072 158.22 32.306 158.266 30.9453C158.318 29.5846 158.354 28.2923 158.373 27.0684C159.011 27.0814 159.49 27.0879 159.809 27.0879C160.102 27.0879 160.577 27.0814 161.234 27.0684C161.143 28.2012 161.068 29.2819 161.01 30.3105C160.958 31.3392 160.919 32.5176 160.893 33.8457C160.867 35.1738 160.854 36.2253 160.854 37C160.261 36.987 159.786 36.9805 159.428 36.9805C159.089 36.9805 158.578 36.987 157.895 37ZM163.158 37C163.308 35.5221 163.432 33.862 163.529 32.0195C163.633 30.1771 163.692 28.5267 163.705 27.0684C164.304 27.0814 164.783 27.0879 165.141 27.0879C165.564 27.0879 166.013 27.0814 166.488 27.0684L166.381 28.7285C166.583 28.4421 166.758 28.2142 166.908 28.0449C167.064 27.8757 167.26 27.7096 167.494 27.5469C167.735 27.3841 167.989 27.2539 168.256 27.1562C168.529 27.0586 168.832 26.9805 169.164 26.9219C169.503 26.8633 169.854 26.834 170.219 26.834C170.798 26.834 171.352 26.9089 171.879 27.0586C172.413 27.2018 172.842 27.4329 173.168 27.752C173.493 28.071 173.708 28.4193 173.812 28.7969C173.917 29.1745 173.969 29.5749 173.969 29.998C173.969 30.1738 173.959 30.4538 173.939 30.8379L173.734 35.1055C173.708 35.6979 173.692 36.3294 173.686 37C173.171 36.987 172.732 36.9805 172.367 36.9805C171.872 36.9805 171.374 36.987 170.873 37C170.925 36.4336 170.99 35.4473 171.068 34.041C171.146 32.6283 171.186 31.694 171.186 31.2383C171.186 30.724 171.104 30.3105 170.941 29.998C170.779 29.6855 170.525 29.4479 170.18 29.2852C169.841 29.1224 169.473 29.041 169.076 29.041C168.686 29.041 168.321 29.1159 167.982 29.2656C167.644 29.4154 167.351 29.6335 167.104 29.9199C166.843 30.2129 166.641 30.5742 166.498 31.0039C166.348 31.4596 166.238 32.2116 166.166 33.2598C166.101 34.1908 166.049 35.4375 166.01 37C165.508 36.987 165.056 36.9805 164.652 36.9805C164.242 36.9805 163.744 36.987 163.158 37ZM176.742 39.0703C178.207 39.5521 179.477 39.793 180.551 39.793C180.961 39.793 181.348 39.7409 181.713 39.6367C182.077 39.5391 182.383 39.3926 182.631 39.1973C182.878 39.0085 183.07 38.748 183.207 38.416C183.344 38.0905 183.435 37.7096 183.48 37.2734C183.526 36.8438 183.562 36.1895 183.588 35.3105C183.334 35.6556 183.106 35.9258 182.904 36.1211C182.702 36.3099 182.458 36.4824 182.172 36.6387C181.892 36.7884 181.563 36.9089 181.186 37C180.808 37.0977 180.411 37.1465 179.994 37.1465C179.421 37.1465 178.878 37.0586 178.363 36.8828C177.849 36.7005 177.39 36.4173 176.986 36.0332C176.589 35.6491 176.286 35.1673 176.078 34.5879C175.87 34.002 175.766 33.3932 175.766 32.7617C175.766 31.8568 175.935 31.0007 176.273 30.1934C176.618 29.3861 177.12 28.722 177.777 28.2012C178.441 27.6803 179.148 27.3223 179.896 27.127C180.652 26.9316 181.488 26.834 182.406 26.834C182.914 26.834 183.49 26.8665 184.135 26.9316C184.779 26.9902 185.632 27.1139 186.693 27.3027L186.469 30.3984L186.264 34.2754L186.186 37.7812C186.166 38.1784 186.117 38.5592 186.039 38.9238C185.961 39.2949 185.837 39.627 185.668 39.9199C185.499 40.2194 185.284 40.4831 185.023 40.7109C184.763 40.9388 184.467 41.1211 184.135 41.2578C183.809 41.401 183.402 41.5182 182.914 41.6094C182.432 41.7005 181.915 41.7461 181.361 41.7461C180.769 41.7461 180.095 41.707 179.34 41.6289C178.585 41.5508 177.761 41.4043 176.869 41.1895L176.742 39.0703ZM183.871 29.0215C183.305 28.9043 182.781 28.8457 182.299 28.8457C181.452 28.8457 180.753 29.002 180.199 29.3145C179.646 29.6204 179.219 30.0697 178.92 30.6621C178.62 31.2546 178.471 31.8828 178.471 32.5469C178.471 33.0352 178.562 33.4909 178.744 33.9141C178.926 34.3307 179.21 34.6465 179.594 34.8613C179.984 35.0762 180.414 35.1836 180.883 35.1836C181.215 35.1836 181.524 35.1315 181.811 35.0273C182.104 34.9232 182.367 34.7637 182.602 34.5488C182.836 34.334 183.041 34.0671 183.217 33.748C183.399 33.429 183.526 33.071 183.598 32.6738C183.676 32.2702 183.734 31.7689 183.773 31.1699C183.812 30.5645 183.845 29.8483 183.871 29.0215ZM193.49 36.7168C193.438 35.7272 193.37 34.9199 193.285 34.2949C194.561 34.8743 195.72 35.1641 196.762 35.1641C197.178 35.1641 197.566 35.1022 197.924 34.9785C198.288 34.8483 198.555 34.6693 198.725 34.4414C198.9 34.207 198.988 33.9466 198.988 33.6602C198.988 33.4388 198.949 33.2402 198.871 33.0645C198.754 32.8236 198.559 32.5729 198.285 32.3125C197.908 31.9544 197.234 31.3652 196.264 30.5449C195.801 30.1478 195.482 29.8646 195.307 29.6953C194.916 29.3242 194.617 28.9922 194.408 28.6992C194.2 28.3997 194.05 28.1035 193.959 27.8105C193.868 27.5176 193.822 27.2051 193.822 26.873C193.822 26.2611 193.992 25.6882 194.33 25.1543C194.675 24.6139 195.186 24.194 195.863 23.8945C196.547 23.5885 197.406 23.4355 198.441 23.4355C199.372 23.4355 200.421 23.5495 201.586 23.7773C201.618 24.4544 201.684 25.2292 201.781 26.1016C200.766 25.7109 199.828 25.5156 198.969 25.5156C198.331 25.5156 197.807 25.6621 197.396 25.9551C196.993 26.2415 196.791 26.5768 196.791 26.9609C196.791 27.0651 196.804 27.1758 196.83 27.293C196.856 27.4036 196.895 27.5143 196.947 27.625C196.999 27.7292 197.09 27.8691 197.221 28.0449C197.357 28.2142 197.553 28.416 197.807 28.6504C198.067 28.8783 198.288 29.0638 198.471 29.207L199.828 30.3008C200.134 30.5547 200.408 30.8021 200.648 31.043C200.889 31.2839 201.094 31.515 201.264 31.7363C201.439 31.9577 201.576 32.1693 201.674 32.3711C201.771 32.5729 201.843 32.7812 201.889 32.9961C201.941 33.2044 201.967 33.4258 201.967 33.6602C201.967 34.207 201.84 34.7246 201.586 35.2129C201.332 35.6947 200.967 36.0918 200.492 36.4043C200.017 36.7168 199.496 36.9316 198.93 37.0488C198.363 37.1725 197.764 37.2344 197.133 37.2344C196.716 37.2344 196.231 37.1986 195.678 37.127C195.124 37.0553 194.395 36.9186 193.49 36.7168ZM210.004 34.959C209.926 35.3171 209.802 35.9811 209.633 36.9512C209.086 37.0749 208.656 37.153 208.344 37.1855C208.031 37.2181 207.738 37.2344 207.465 37.2344C206.983 37.2344 206.55 37.1888 206.166 37.0977C205.788 37.0065 205.476 36.847 205.229 36.6191C204.981 36.3848 204.812 36.1146 204.721 35.8086C204.636 35.4961 204.594 35.1738 204.594 34.8418C204.594 34.7572 204.597 34.6432 204.604 34.5C204.61 34.3568 204.636 33.8945 204.682 33.1133L204.906 29.0508H203.5C203.533 28.6602 203.562 28.0319 203.588 27.166H205.062C205.102 26.7884 205.141 26.1471 205.18 25.2422L206.332 25.0176C206.573 24.972 207.038 24.8646 207.729 24.6953C207.683 25.5742 207.657 26.3978 207.65 27.166H210.131C210.085 28.0449 210.062 28.6732 210.062 29.0508H207.572C207.436 31.7005 207.367 33.2337 207.367 33.6504C207.367 34.054 207.41 34.3665 207.494 34.5879C207.585 34.8092 207.729 34.9688 207.924 35.0664C208.119 35.1641 208.327 35.2129 208.549 35.2129C208.712 35.2129 208.881 35.1999 209.057 35.1738C209.239 35.1478 209.555 35.0762 210.004 34.959ZM221.43 37C220.857 36.987 220.417 36.9805 220.111 36.9805C219.727 36.9805 219.291 36.987 218.803 37L218.822 35.3789C218.64 35.6523 218.48 35.8737 218.344 36.043C218.207 36.2057 218.028 36.3685 217.807 36.5312C217.585 36.6875 217.344 36.8145 217.084 36.9121C216.824 37.0033 216.524 37.0781 216.186 37.1367C215.854 37.2018 215.499 37.2344 215.121 37.2344C214.392 37.2344 213.757 37.1302 213.217 36.9219C212.676 36.707 212.247 36.3848 211.928 35.9551C211.615 35.5254 211.459 34.9102 211.459 34.1094V33.9043L211.615 31.3848L211.762 28.0645C211.768 27.7975 211.771 27.4655 211.771 27.0684C212.39 27.0814 212.875 27.0879 213.227 27.0879C213.598 27.0879 214.047 27.0814 214.574 27.0684L214.252 31.5215C214.232 31.8665 214.216 32.1595 214.203 32.4004C214.197 32.6348 214.193 32.804 214.193 32.9082C214.193 33.377 214.262 33.7676 214.398 34.0801C214.542 34.3861 214.786 34.6204 215.131 34.7832C215.482 34.946 215.857 35.0273 216.254 35.0273C216.632 35.0273 216.99 34.9557 217.328 34.8125C217.634 34.6823 217.895 34.5 218.109 34.2656C218.331 34.0312 218.516 33.7155 218.666 33.3184C218.777 33.0319 218.861 32.6348 218.92 32.127C218.965 31.7689 219.008 31.1536 219.047 30.2812C219.099 29.2266 219.135 28.1556 219.154 27.0684C219.799 27.0814 220.29 27.0879 220.629 27.0879C221.013 27.0879 221.446 27.0814 221.928 27.0684C221.85 27.9993 221.768 29.1647 221.684 30.5645C221.599 31.9577 221.54 33.11 221.508 34.0215C221.475 34.9264 221.449 35.9193 221.43 37ZM233.949 37C233.409 36.987 232.989 36.9805 232.689 36.9805C232.364 36.9805 231.915 36.987 231.342 37L231.43 35.3008C231.143 35.6719 230.896 35.9583 230.688 36.1602C230.486 36.362 230.232 36.5508 229.926 36.7266C229.626 36.8958 229.301 37.0228 228.949 37.1074C228.598 37.1921 228.233 37.2344 227.855 37.2344C227.23 37.2344 226.645 37.1204 226.098 36.8926C225.551 36.6647 225.085 36.3457 224.701 35.9355C224.317 35.5189 224.034 35.0273 223.852 34.4609C223.669 33.888 223.578 33.2923 223.578 32.6738C223.578 31.821 223.741 30.9909 224.066 30.1836C224.392 29.3698 224.838 28.7122 225.404 28.2109C225.971 27.7096 226.612 27.3548 227.328 27.1465C228.044 26.9382 228.812 26.834 229.633 26.834C230.225 26.834 230.896 26.8893 231.645 27C231.69 26.1536 231.713 25.265 231.713 24.334V23.6699C232.325 23.6829 232.794 23.6895 233.119 23.6895C233.542 23.6895 234.018 23.6829 234.545 23.6699C234.402 25.3236 234.265 27.5762 234.135 30.4277C234.011 33.2728 233.949 35.4635 233.949 37ZM231.537 28.8555C231.049 28.7253 230.58 28.6602 230.131 28.6602C229.617 28.6602 229.125 28.7318 228.656 28.875C228.188 29.0182 227.771 29.2624 227.406 29.6074C227.048 29.9525 226.771 30.3952 226.576 30.9355C226.381 31.4759 226.283 31.9967 226.283 32.498C226.283 32.9993 226.371 33.4583 226.547 33.875C226.729 34.2917 227.009 34.6204 227.387 34.8613C227.764 35.1022 228.191 35.2227 228.666 35.2227C229.024 35.2227 229.35 35.1608 229.643 35.0371C229.936 34.9069 230.202 34.7116 230.443 34.4512C230.684 34.1842 230.886 33.8424 231.049 33.4258C231.218 33.0091 231.339 32.4557 231.41 31.7656C231.456 31.2578 231.498 30.2878 231.537 28.8555ZM236.898 25.3691C236.924 24.6986 236.938 24.1842 236.938 23.8262V23.5137C237.53 23.5267 238.012 23.5332 238.383 23.5332C238.891 23.5332 239.363 23.5267 239.799 23.5137C239.779 23.6764 239.766 23.862 239.76 24.0703L239.711 25.3691C239.216 25.3561 238.76 25.3496 238.344 25.3496C237.927 25.3496 237.445 25.3561 236.898 25.3691ZM236.371 37C236.469 36.0234 236.537 35.2064 236.576 34.5488C236.641 33.5072 236.697 32.306 236.742 30.9453C236.794 29.5846 236.83 28.2923 236.85 27.0684C237.488 27.0814 237.966 27.0879 238.285 27.0879C238.578 27.0879 239.053 27.0814 239.711 27.0684C239.62 28.2012 239.545 29.2819 239.486 30.3105C239.434 31.3392 239.395 32.5176 239.369 33.8457C239.343 35.1738 239.33 36.2253 239.33 37C238.738 36.987 238.262 36.9805 237.904 36.9805C237.566 36.9805 237.055 36.987 236.371 37ZM247.045 26.834C247.794 26.834 248.51 26.9479 249.193 27.1758C249.883 27.3971 250.466 27.7292 250.941 28.1719C251.423 28.6081 251.785 29.1452 252.025 29.7832C252.266 30.4147 252.387 31.082 252.387 31.7852C252.387 32.5273 252.26 33.2435 252.006 33.9336C251.752 34.6237 251.384 35.2227 250.902 35.7305C250.421 36.2318 249.818 36.6094 249.096 36.8633C248.38 37.1107 247.615 37.2344 246.801 37.2344C246.046 37.2344 245.326 37.1237 244.643 36.9023C243.965 36.6745 243.386 36.3359 242.904 35.8867C242.423 35.4375 242.055 34.8906 241.801 34.2461C241.553 33.6016 241.43 32.9277 241.43 32.2246C241.43 31.5085 241.544 30.8249 241.771 30.1738C241.999 29.5228 242.354 28.9434 242.836 28.4355C243.324 27.9277 243.946 27.5339 244.701 27.2539C245.456 26.974 246.238 26.834 247.045 26.834ZM247.045 28.8457C246.479 28.8457 245.971 28.9857 245.521 29.2656C245.079 29.5391 244.747 29.9492 244.525 30.4961C244.311 31.043 244.203 31.6387 244.203 32.2832C244.203 32.8496 244.291 33.3542 244.467 33.7969C244.649 34.2396 244.942 34.5977 245.346 34.8711C245.756 35.1445 246.241 35.2812 246.801 35.2812C247.374 35.2812 247.875 35.1413 248.305 34.8613C248.741 34.5749 249.066 34.1582 249.281 33.6113C249.503 33.0579 249.613 32.4492 249.613 31.7852C249.613 31.2448 249.529 30.7533 249.359 30.3105C249.19 29.8678 248.904 29.513 248.5 29.2461C248.103 28.9792 247.618 28.8457 247.045 28.8457Z" fill="white"/>
<circle cx="32" cy="37" r="29" stroke="#3094FF" stroke-width="2"/>
<path d="M16.0913 58L11.1084 42.0356L2.06299 14.6772C3.22673 14.6984 4.25293 14.709 5.1416 14.709C6.09375 14.709 7.11995 14.6984 8.22021 14.6772L13.8379 33.5933L18.186 47.6216L19.8364 52.668C23.0737 45.9818 26.1523 39.1686 29.0723 32.2285C27.2103 26.2194 25.2637 20.369 23.2324 14.6772C24.3962 14.6984 25.4329 14.709 26.3428 14.709C27.2949 14.709 28.3211 14.6984 29.4214 14.6772C29.9927 16.8566 30.4688 18.6234 30.8496 19.9775C31.2516 21.3317 31.8123 23.0879 32.5317 25.2461C33.759 22.6224 35.2083 19.0994 36.8799 14.6772C38.0436 14.6984 39.091 14.709 40.022 14.709C41.0164 14.709 42.0638 14.6984 43.1641 14.6772C40.3288 20.4325 37.5887 26.304 34.9438 32.292C36.8905 39.0628 39.0381 45.8548 41.3867 52.668L49.8291 33.8154L55.9546 19.6602L58.0176 14.6772C59.2025 14.6984 60.2393 14.709 61.1279 14.709C62.0589 14.709 63.0851 14.6984 64.2065 14.6772L54.082 36.291L46.8457 52.1602L44.2749 58C43.1112 57.9577 42.0109 57.9365 40.9741 57.9365C39.8527 57.9365 38.7524 57.9577 37.6733 58C35.8114 51.6312 33.7801 45.3787 31.5796 39.2427C28.4692 45.4634 25.5387 51.7158 22.7881 58C21.6455 57.9577 20.5241 57.9365 19.4238 57.9365C18.2812 57.9365 17.1704 57.9577 16.0913 58Z" fill="white"/>
</svg>
