<svg width="35" height="35" fill="none" xmlns="http://www.w3.org/2000/svg"><g clip-path="url(#a)"><mask id="b" style="mask-type:luminance" maskUnits="userSpaceOnUse" x="0" y="0" width="35" height="35"><path d="M35 17.5C35 7.835 27.165 0 17.5 0S0 7.835 0 17.5 7.835 35 17.5 35 35 27.165 35 17.5Z" fill="#fff"/></mask><g mask="url(#b)"><path d="M35 17.5C35 7.835 27.165 0 17.5 0S0 7.835 0 17.5 7.835 35 17.5 35 35 27.165 35 17.5Z" fill="#fff"/><path fill-rule="evenodd" clip-rule="evenodd" d="M35 0H0v35h35V0ZM17.612 14.42a3.186 3.186 0 1 0 3.188 3.186 3.187 3.187 0 0 0-3.188-3.185Zm0 8.094a4.908 4.908 0 0 1-4.91-4.908 4.908 4.908 0 0 1 4.91-4.907 4.909 4.909 0 0 1 4.91 4.907 4.909 4.909 0 0 1-4.91 4.907Zm4.15-9.372a1.146 1.146 0 0 1 .954-1.784h.001a1.149 1.149 0 0 1 1.125 1.371 1.147 1.147 0 0 1-2.08.413Zm-9.789 11.914c.337.131.844.287 1.776.329 1.008.046 1.31.056 3.863.056 2.554 0 2.857-.01 3.864-.056.933-.042 1.44-.198 1.776-.329.447-.173.765-.38 1.1-.715.334-.334.541-.652.715-1.098.13-.336.287-.843.33-1.775.046-1.008.055-1.31.055-3.861 0-2.553-.01-2.854-.056-3.862-.042-.932-.198-1.439-.329-1.775a2.96 2.96 0 0 0-.715-1.1 2.963 2.963 0 0 0-1.1-.714c-.337-.13-.843-.286-1.776-.329-1.008-.045-1.311-.055-3.864-.055-2.552 0-2.855.009-3.863.055-.932.042-1.44.198-1.776.329-.447.173-.765.38-1.1.715a2.97 2.97 0 0 0-.715 1.099c-.13.337-.286.843-.329 1.774-.045 1.009-.055 1.31-.055 3.863 0 2.552.009 2.854.055 3.861.043.932.198 1.439.33 1.775.172.446.38.764.714 1.099.335.334.654.54 1.1.714ZM11.35 8.552c.607-.236 1.303-.398 2.32-.444 1.02-.047 1.347-.058 3.944-.058s2.923.012 3.942.058c1.017.045 1.712.208 2.321.444a4.68 4.68 0 0 1 1.693 1.102 4.7 4.7 0 0 1 1.103 1.693c.237.607.398 1.302.444 2.32.047 1.018.058 1.344.058 3.94 0 2.595-.011 2.92-.058 3.94-.045 1.017-.207 1.711-.444 2.319a4.681 4.681 0 0 1-1.103 1.693 4.703 4.703 0 0 1-1.694 1.102c-.608.236-1.303.398-2.32.444-1.02.047-1.346.058-3.943.058s-2.922-.012-3.942-.058c-1.018-.046-1.713-.208-2.321-.444a4.7 4.7 0 0 1-1.694-1.102 4.672 4.672 0 0 1-1.103-1.693c-.236-.608-.398-1.302-.444-2.32-.047-1.019-.058-1.344-.058-3.94 0-2.595.01-2.92.058-3.94.046-1.017.208-1.712.444-2.32a4.67 4.67 0 0 1 1.103-1.692 4.69 4.69 0 0 1 1.694-1.102Z" fill="url(#c)"/></g></g><defs><linearGradient id="c" x1="34.327" y1="35" x2="-.673" y2="0" gradientUnits="userSpaceOnUse"><stop stop-color="#FBE18A"/><stop offset=".21" stop-color="#FCBB45"/><stop offset=".38" stop-color="#F75274"/><stop offset=".52" stop-color="#D53692"/><stop offset=".74" stop-color="#8F39CE"/><stop offset="1" stop-color="#5B4FE9"/></linearGradient><clipPath id="a"><path fill="#fff" d="M0 0h35v35H0z"/></clipPath></defs></svg>