<svg width="19" height="18" viewBox="0 0 19 18" fill="none" xmlns="http://www.w3.org/2000/svg">
<path d="M16.3878 0H2.61215C1.17184 0 0 1.17184 0 2.61215V11.0426C0 12.4801 1.16674 13.6499 2.60287 13.6547V17.4806L8.10051 13.6551H16.3878C17.8282 13.6551 19 12.4832 19 11.0426V2.61215C19 1.17184 17.8282 0 16.3878 0ZM13.9146 9.79722H5.08538V8.68394H13.9146V9.79722ZM13.9146 7.42222H5.08538V6.30894H13.9146V7.42222ZM13.9146 5.04722H5.08538V3.93394H13.9146V5.04722Z" fill="#363636"/>
<path d="M16.3878 0H2.61215C1.17184 0 0 1.17184 0 2.61215V11.0426C0 12.4801 1.16674 13.6499 2.60287 13.6547V17.4806L8.10051 13.6551H16.3878C17.8282 13.6551 19 12.4832 19 11.0426V2.61215C19 1.17184 17.8282 0 16.3878 0ZM13.9146 9.79722H5.08538V8.68394H13.9146V9.79722ZM13.9146 7.42222H5.08538V6.30894H13.9146V7.42222ZM13.9146 5.04722H5.08538V3.93394H13.9146V5.04722Z" fill="url(#paint0_linear_1042_1076)"/>
<defs>
<linearGradient id="paint0_linear_1042_1076" x1="-4.80749e-07" y1="8.7403" x2="13.3775" y2="17.413" gradientUnits="userSpaceOnUse">
<stop stop-color="#3369E7"/>
<stop offset="1" stop-color="#8E43E7"/>
</linearGradient>
</defs>
</svg>
