<svg width="70" height="70" viewBox="0 0 70 70" fill="none" xmlns="http://www.w3.org/2000/svg">
<path d="M35 70C54.33 70 70 54.33 70 35C70 15.67 54.33 0 35 0C15.67 0 0 15.67 0 35C0 54.33 15.67 70 35 70Z" fill="url(#paint0_linear_1096_6)"/>
<path d="M39.3775 34.087C39.3775 34.4697 39.2255 34.8367 38.9549 35.1073C38.6843 35.3779 38.3173 35.53 37.9346 35.53H35.5297V37.9349C35.5297 38.3176 35.3777 38.6846 35.1071 38.9552C34.8365 39.2259 34.4694 39.3779 34.0867 39.3779C33.7041 39.3779 33.337 39.2259 33.0664 38.9552C32.7958 38.6846 32.6438 38.3176 32.6438 37.9349V35.53H30.2389C29.8562 35.53 29.4892 35.3779 29.2186 35.1073C28.948 34.8367 28.796 34.4697 28.796 34.087C28.796 33.7043 28.948 33.3373 29.2186 33.0667C29.4892 32.7961 29.8562 32.644 30.2389 32.644H32.6438V30.2391C32.6438 29.8564 32.7958 29.4894 33.0664 29.2188C33.337 28.9482 33.7041 28.7961 34.0867 28.7961C34.4694 28.7961 34.8365 28.9482 35.1071 29.2188C35.3777 29.4894 35.5297 29.8564 35.5297 30.2391V32.644H37.9346C38.3173 32.644 38.6843 32.7961 38.9549 33.0667C39.2255 33.3373 39.3775 33.7043 39.3775 34.087ZM48.575 48.5756C48.4409 48.7101 48.2817 48.8168 48.1063 48.8897C47.9309 48.9625 47.7428 49 47.5529 49C47.363 49 47.175 48.9625 46.9996 48.8897C46.8242 48.8168 46.6649 48.7101 46.5308 48.5756L40.8204 42.8651C38.5893 44.5773 35.7904 45.3766 32.9915 45.101C30.1926 44.8254 27.6034 43.4955 25.749 41.381C23.8946 39.2665 22.9139 36.5258 23.0059 33.7148C23.0979 30.9039 24.2557 28.2332 26.2444 26.2444C28.233 24.2557 30.9037 23.0979 33.7146 23.0059C36.5255 22.9139 39.2661 23.8946 41.3806 25.749C43.495 27.6035 44.8249 30.1928 45.1005 32.9917C45.3761 35.7907 44.5767 38.5896 42.8646 40.8208L48.581 46.5362C48.8504 46.8076 49.0011 47.1747 49 47.5571C48.9989 47.9395 48.846 48.3058 48.575 48.5756ZM34.0867 42.2638C35.7039 42.2638 37.2848 41.7843 38.6294 40.8858C39.9741 39.9873 41.0221 38.7103 41.641 37.2161C42.2598 35.722 42.4218 34.0779 42.1063 32.4918C41.7908 30.9056 41.012 29.4487 39.8685 28.3051C38.725 27.1616 37.268 26.3828 35.6819 26.0673C34.0958 25.7518 32.4518 25.9137 30.9577 26.5326C29.4636 27.1515 28.1866 28.1995 27.2881 29.5442C26.3897 30.8889 25.9101 32.4698 25.9101 34.087C25.9127 36.2548 26.775 38.3332 28.3078 39.8661C29.8407 41.399 31.919 42.2613 34.0867 42.2638Z" fill="white"/>
<defs>
<linearGradient id="paint0_linear_1096_6" x1="0.000168896" y1="35" x2="70.0002" y2="35" gradientUnits="userSpaceOnUse">
<stop stop-color="#3369E7"/>
<stop offset="1" stop-color="#8E43E7"/>
</linearGradient>
</defs>
</svg>
