<svg width="125" height="125" viewBox="0 0 125 125" fill="none" xmlns="http://www.w3.org/2000/svg">
<path d="M55.1469 80.8823C53.1984 80.875 51.3344 80.0955 49.9631 78.7131L38.9338 67.6838C36.0624 64.8125 36.0624 60.1506 38.9338 57.2796C41.8051 54.4085 46.467 54.4082 49.3381 57.2796L55.5512 63.4927L76.1027 45.8823C79.4741 43.6177 84.0439 44.5183 86.3049 47.8897C88.1835 50.6912 87.9189 54.408 85.6616 56.9116L59.9262 78.9705C58.614 80.1619 56.9191 80.8418 55.1469 80.8823Z" fill="url(#paint0_linear_1042_17)"/>
<path d="M62.5 125C27.9817 125 0 97.0183 0 62.5C0 27.9817 27.9817 0 62.5 0C97.0183 0 125 27.9817 125 62.5C125 97.0183 97.0183 125 62.5 125ZM62.5 14.7058C36.103 14.7058 14.7058 36.103 14.7058 62.5C14.7058 88.897 36.103 110.294 62.5 110.294C88.897 110.294 110.294 88.897 110.294 62.5C110.294 36.103 88.897 14.7058 62.5 14.7058Z" fill="url(#paint1_linear_1042_17)"/>
<defs>
<linearGradient id="paint0_linear_1042_17" x1="36.7804" y1="62.7578" x2="87.553" y2="62.7578" gradientUnits="userSpaceOnUse">
<stop stop-color="#3369E7"/>
<stop offset="1" stop-color="#8E43E7"/>
</linearGradient>
<linearGradient id="paint1_linear_1042_17" x1="0.0003016" y1="62.5" x2="125" y2="62.5" gradientUnits="userSpaceOnUse">
<stop stop-color="#3369E7"/>
<stop offset="1" stop-color="#8E43E7"/>
</linearGradient>
</defs>
</svg>
