<svg width="35" height="36" fill="none" xmlns="http://www.w3.org/2000/svg"><g clip-path="url(#a)"><rect y=".5" width="35" height="35" rx="17.5" fill="#fff"/><path fill-rule="evenodd" clip-rule="evenodd" d="M100 .5H0v100h100V.5ZM17.612 27.674a9.562 9.562 0 1 0 0-19.124 9.562 9.562 0 0 0 0 19.124Zm-5.463-9.771s4.737-2.015 6.38-2.725c.63-.284 2.765-1.192 2.765-1.192s.985-.397.903.568c-.02.287-.14 1.091-.287 2.083l-.178 1.209c-.329 2.129-.685 4.456-.685 4.456s-.054.653-.52.766c-.465.114-1.232-.397-1.369-.51a13.836 13.836 0 0 0-.299-.206c-.596-.403-1.909-1.293-2.466-1.781-.192-.17-.41-.511.027-.909.986-.936 2.163-2.1 2.875-2.838.329-.34.657-1.135-.712-.17-1.944 1.39-3.86 2.696-3.86 2.696s-.438.284-1.26.028a55.503 55.503 0 0 1-1.78-.596s-.656-.425.466-.88Z" fill="#34AADF"/></g><defs><clipPath id="a"><rect y=".5" width="35" height="35" rx="17.5" fill="#fff"/></clipPath></defs></svg>