<svg width="17" height="19" viewBox="0 0 17 19" fill="none" xmlns="http://www.w3.org/2000/svg">
<path d="M11.544 1.37614C13.3788 3.21095 13.3788 6.18579 11.544 8.0206C9.7092 9.85542 6.73436 9.85542 4.89955 8.0206C3.06473 6.18579 3.06473 3.21095 4.89955 1.37614C6.73436 -0.458712 9.7092 -0.458712 11.544 1.37614Z" fill="#363636"/>
<path d="M11.544 1.37614C13.3788 3.21095 13.3788 6.18579 11.544 8.0206C9.7092 9.85542 6.73436 9.85542 4.89955 8.0206C3.06473 6.18579 3.06473 3.21095 4.89955 1.37614C6.73436 -0.458712 9.7092 -0.458712 11.544 1.37614Z" fill="url(#paint0_linear_1042_1053)"/>
<path d="M15.4291 12.7825C11.146 9.88849 5.29826 9.88849 1.01514 12.7825C0.379656 13.2115 0 13.9365 0 14.7222V18.7931H16.4442V14.7222C16.4442 13.9365 16.0646 13.2115 15.4291 12.7825Z" fill="#363636"/>
<path d="M15.4291 12.7825C11.146 9.88849 5.29826 9.88849 1.01514 12.7825C0.379656 13.2115 0 13.9365 0 14.7222V18.7931H16.4442V14.7222C16.4442 13.9365 16.0646 13.2115 15.4291 12.7825Z" fill="url(#paint1_linear_1042_1053)"/>
<defs>
<linearGradient id="paint0_linear_1042_1053" x1="3.52344" y1="4.69836" x2="10.4543" y2="8.83237" gradientUnits="userSpaceOnUse">
<stop stop-color="#3369E7"/>
<stop offset="1" stop-color="#8E43E7"/>
</linearGradient>
<linearGradient id="paint1_linear_1042_1053" x1="-4.16082e-07" y1="14.7026" x2="6.74671" y2="22.7912" gradientUnits="userSpaceOnUse">
<stop stop-color="#3369E7"/>
<stop offset="1" stop-color="#8E43E7"/>
</linearGradient>
</defs>
</svg>
