<svg width="35" height="36" fill="none" xmlns="http://www.w3.org/2000/svg"><circle cx="17.5" cy="18" r="17.5" fill="#07F"/><path fill-rule="evenodd" clip-rule="evenodd" d="M26.907 13.52c.153-.477 0-.824-.674-.824h-2.24c-.566 0-.827.303-.98.628 0 0-1.153 2.773-2.763 4.57-.522.52-.761.694-1.044.694-.152 0-.348-.173-.348-.65v-4.441c0-.563-.174-.823-.653-.823H14.68c-.348 0-.566.26-.566.52 0 .541.805.671.892 2.188v3.294c0 .715-.128.846-.413.846-.762 0-2.611-2.795-3.72-5.979-.216-.63-.435-.87-1.001-.87H7.609c-.653 0-.761.304-.761.629 0 .585.761 3.53 3.546 7.43 1.85 2.663 4.482 4.094 6.853 4.094 1.437 0 1.61-.325 1.61-.866v-2.015c0-.65.131-.758.588-.758.326 0 .914.173 2.241 1.451 1.523 1.517 1.784 2.21 2.633 2.21h2.24c.653 0 .958-.325.784-.953-.196-.628-.936-1.538-1.893-2.621-.522-.606-1.306-1.278-1.545-1.603-.326-.433-.24-.607 0-.996-.022 0 2.72-3.856 3.002-5.157" fill="#fff"/></svg>