<svg width="35" height="36" fill="none" xmlns="http://www.w3.org/2000/svg"><g clip-path="url(#a)"><rect y=".5" width="35" height="35" rx="17.5" fill="#fff"/><path fill-rule="evenodd" clip-rule="evenodd" d="M100 .5H0v100h100V.5ZM10.006 22.086 8.75 26.75l4.716-1.257a8.68 8.68 0 0 0 5.998.826 8.662 8.662 0 0 0 5.075-3.295 8.622 8.622 0 0 0-.88-11.283 8.676 8.676 0 0 0-11.323-.731 8.62 8.62 0 0 0-2.331 11.076Zm3.979 1.834-.292-.173-2.634.7.701-2.603-.182-.3a6.89 6.89 0 0 1-1.024-3.62 6.97 6.97 0 0 1 1.447-4.261 7.016 7.016 0 0 1 8.253-2.19 6.994 6.994 0 0 1 3.38 2.98 6.968 6.968 0 0 1-1.171 8.438 7.007 7.007 0 0 1-8.478 1.029Zm6.201-5.081c.215.049.415.145.586.283.05.029.104.06.16.09h.001c.327.182.737.41.813.758.037.2.01.407-.074.592a2.067 2.067 0 0 1-1.563 1.158 3.289 3.289 0 0 1-1.725-.27 7.17 7.17 0 0 1-1.483-.706 8.42 8.42 0 0 1-2.377-2.199 9.302 9.302 0 0 1-.55-.833 4.526 4.526 0 0 1-.523-1.208 2.23 2.23 0 0 1-.07-.543 2.174 2.174 0 0 1 .757-1.725.99.99 0 0 1 1.063-.163c.337.284.586.659.717 1.08.169.3.248.642.227.986a1.932 1.932 0 0 1-.494.823.335.335 0 0 0-.045.464 5.597 5.597 0 0 0 2.798 2.391.307.307 0 0 0 .395-.089c.066-.079.13-.182.2-.291.15-.24.316-.505.537-.596.214-.05.436-.05.65-.002Z" fill="#00D95F"/></g><defs><clipPath id="a"><rect y=".5" width="35" height="35" rx="17.5" fill="#fff"/></clipPath></defs></svg>