<svg width="75" height="81" viewBox="0 0 75 81" fill="none" xmlns="http://www.w3.org/2000/svg">
<path d="M47.4075 36.3154H11.8518V39.2784H47.4075V36.3154Z" fill="#2D88EA"/>
<path d="M11.8518 45.2041V48.1671H40.6879L43.6508 45.2041H11.8518Z" fill="#2D88EA"/>
<path d="M11.8518 54.0928V57.0557H31.7984L34.7616 54.0928H11.8518Z" fill="#2D88EA"/>
<path d="M26.6667 62.9824H11.8518V65.9454H26.6667V62.9824Z" fill="#2D88EA"/>
<path d="M73.169 32.4462L68.9787 28.2562C67.8222 27.0997 65.9449 27.0995 64.7885 28.256C54.0945 38.9499 43.3721 49.6724 32.5929 60.4513C32.5929 65.5786 32.5929 64.4678 32.5929 68.9073C39.7259 68.9073 37.9215 68.9106 40.9106 68.8947C42.4571 67.3482 49.2823 60.5232 56.2967 53.5089V74.8338C56.2967 76.4701 54.9703 77.7968 53.3338 77.7968H5.92614C4.28965 77.7968 2.96316 76.4701 2.96316 74.8338V21.5002C2.96316 19.8637 4.28965 18.5373 5.92614 18.5373H11.8526V24.4634H47.4078V18.5374L53.3338 18.5373C54.9703 18.5373 56.2967 19.8637 56.2967 21.5002V32.5051L59.2597 29.5216V21.5002C59.2597 18.2273 56.6066 15.5743 53.3338 15.5743H46.896C45.9445 12.885 43.7402 10.7874 40.9804 9.99388C39.6161 9.60166 38.5661 8.55165 38.1737 7.18739C37.1061 3.47515 33.6852 0.759766 29.6298 0.759766C25.5746 0.759766 22.1538 3.47515 21.0864 7.18683C20.6934 8.55276 19.6408 9.60147 18.2751 9.99499C15.5164 10.79 13.3102 12.8854 12.3599 15.5743H5.92595C2.65316 15.5743 0 18.2273 0 21.5002V74.8338C0 78.1066 2.65316 80.7598 5.92595 80.7598H53.3336C56.6064 80.7598 59.2595 78.1066 59.2595 74.8338V50.5461C65.6297 44.1761 71.5627 38.2429 73.1689 36.6366C74.3253 35.4799 74.3253 33.6027 73.169 32.4462ZM14.8153 18.4898C14.8356 15.885 16.5956 13.5628 19.0953 12.8424C21.449 12.1643 23.2579 10.3561 23.9338 8.0061C24.6592 5.48386 27.0014 3.72274 29.6298 3.72274C32.2583 3.72274 34.6005 5.48386 35.3257 8.0061C36.002 10.3576 37.8096 12.1652 40.1611 12.8413C42.683 13.5669 44.4445 15.9091 44.4445 18.5374V21.5004H14.8153V18.4898ZM39.6761 65.9388C38.9078 65.943 38.5931 65.9443 37.53 65.9447L35.5557 63.9704V61.6788C36.2902 60.9443 36.7981 60.4363 37.5517 59.6828L41.7419 63.873L39.6761 65.9388ZM43.8369 61.778L39.6467 57.5878L58.5031 38.7316L62.6933 42.922L43.8369 61.778ZM64.7883 40.8266L60.5981 36.6364L62.6933 34.5412L66.8836 38.7314L64.7883 40.8266ZM68.9787 36.6366L64.7883 32.4462L66.8835 30.3512L71.0738 34.5414L68.9787 36.6366Z" fill="#2D88EA"/>
<path d="M29.6741 11.8712C30.9014 11.8712 31.8964 10.8763 31.8964 9.64899C31.8964 8.42169 30.9014 7.42676 29.6741 7.42676C28.4468 7.42676 27.4519 8.42169 27.4519 9.64899C27.4519 10.8763 28.4468 11.8712 29.6741 11.8712Z" fill="#2D88EA"/>
</svg>
