<svg width="80" height="80" viewBox="0 0 80 80" fill="none" xmlns="http://www.w3.org/2000/svg">
<path d="M42.8368 26.6119C43.3548 27.1283 44.1945 27.1283 44.7125 26.6119L48.692 22.6436C49.1947 22.1246 49.1875 21.2995 48.6758 20.7893C48.1642 20.279 47.3368 20.2719 46.8163 20.7732L43.7746 23.8063L43.386 23.4187C42.8655 22.9174 42.0381 22.9246 41.5265 23.4348C41.0148 23.9451 41.0076 24.7701 41.5103 25.2891L42.8368 26.6119Z" fill="#2D88EA"/>
<path d="M7.95895 25.6773H34.489C35.2216 25.6773 35.8155 25.0851 35.8155 24.3545C35.8155 23.624 35.2216 23.0317 34.489 23.0317H7.95895C7.22634 23.0317 6.63245 23.624 6.63245 24.3545C6.63245 25.0851 7.22634 25.6773 7.95895 25.6773Z" fill="#2D88EA"/>
<path d="M42.8368 34.5489C43.3548 35.0653 44.1945 35.0653 44.7125 34.5489L48.692 30.5806C49.1947 30.0616 49.1875 29.2365 48.6758 28.7263C48.1642 28.2161 47.3368 28.2089 46.8163 28.7102L43.7746 31.7433L43.386 31.3557C42.8655 30.8545 42.0381 30.8616 41.5265 31.3719C41.0148 31.8821 41.0076 32.7071 41.5103 33.2262L42.8368 34.5489Z" fill="#2D88EA"/>
<path d="M7.95895 33.6138H34.489C35.2216 33.6138 35.8155 33.0216 35.8155 32.291C35.8155 31.5605 35.2216 30.9683 34.489 30.9683H7.95895C7.22634 30.9683 6.63245 31.5605 6.63245 32.291C6.63245 33.0216 7.22634 33.6138 7.95895 33.6138Z" fill="#2D88EA"/>
<path d="M42.8368 42.4859C43.3548 43.0023 44.1945 43.0023 44.7125 42.4859L48.692 38.5176C49.1947 37.9986 49.1875 37.1736 48.6758 36.6633C48.1642 36.1531 47.3368 36.1459 46.8163 36.6472L43.7746 39.6803L43.386 39.2928C42.8655 38.7915 42.0381 38.7986 41.5265 39.3089C41.0148 39.8191 41.0076 40.6441 41.5103 41.1632L42.8368 42.4859Z" fill="#2D88EA"/>
<path d="M7.95895 41.5508H34.489C35.2216 41.5508 35.8155 40.9586 35.8155 40.228C35.8155 39.4975 35.2216 38.9053 34.489 38.9053H7.95895C7.22634 38.9053 6.63245 39.4975 6.63245 40.228C6.63245 40.9586 7.22634 41.5508 7.95895 41.5508Z" fill="#2D88EA"/>
<path d="M48.692 44.5836C48.174 44.0672 47.3343 44.0672 46.8163 44.5836L43.7746 47.6167L43.386 47.2291C42.8655 46.7278 42.0381 46.735 41.5265 47.2453C41.0148 47.7555 41.0076 48.5805 41.5103 49.0996L42.8368 50.4223C43.3548 50.9387 44.1945 50.9387 44.7125 50.4223L48.692 46.454C49.2098 45.9375 49.2098 45.1001 48.692 44.5836Z" fill="#2D88EA"/>
<path d="M67.8917 55.3432L59.5121 67.2787L56.6509 64.4254C56.1304 63.9241 55.303 63.9313 54.7914 64.4415C54.2797 64.9518 54.2725 65.7768 54.7752 66.2958L58.7547 70.2642C59.0034 70.5123 59.3408 70.6517 59.6925 70.6518C59.731 70.6537 59.7695 70.6537 59.808 70.6518C60.1987 70.6176 60.5542 70.4127 60.7789 70.0922L70.0645 56.8644C70.3534 56.4779 70.4087 55.9652 70.2086 55.5264C70.0085 55.0875 69.5848 54.7919 69.1028 54.7549C68.6208 54.7179 68.1567 54.9453 67.8917 55.3485V55.3432Z" fill="#2D88EA"/>
<path d="M35.8155 48.1646C35.8155 47.434 35.2216 46.8418 34.489 46.8418H7.95895C7.22634 46.8418 6.63245 47.434 6.63245 48.1646C6.63245 48.8951 7.22634 49.4873 7.95895 49.4873H34.489C35.2216 49.4873 35.8155 48.8951 35.8155 48.1646Z" fill="#2D88EA"/>
<path d="M23.7444 58.1549C23.495 57.7379 23.044 57.4824 22.5571 57.4824C22.0702 57.4824 21.6193 57.7379 21.3699 58.1549L16.0639 68.7371C15.8521 69.1601 15.8826 69.6636 16.144 70.0581C16.4054 70.4525 16.858 70.6779 17.3312 70.6493C17.8045 70.6208 18.2265 70.3427 18.4384 69.9197L20.054 66.6829H25.047L26.6693 69.9197C26.9968 70.5736 27.7938 70.8389 28.4495 70.5123C29.1052 70.1858 29.3712 69.391 29.0437 68.7371L23.7444 58.1549ZM21.3805 64.0373L22.5505 61.7039L23.7205 64.0373H21.3805Z" fill="#2D88EA"/>
<path d="M35.8155 60.0694H34.489V58.7466C34.489 58.0161 33.8951 57.4238 33.1625 57.4238C32.4299 57.4238 31.836 58.0161 31.836 58.7466V60.0694H30.5095C29.7769 60.0694 29.183 60.6616 29.183 61.3922C29.183 62.1227 29.7769 62.7149 30.5095 62.7149H31.836V64.0377C31.836 64.7683 32.4299 65.3605 33.1625 65.3605C33.8951 65.3605 34.489 64.7683 34.489 64.0377V62.7149H35.8155C36.5481 62.7149 37.142 62.1227 37.142 61.3922C37.142 60.6616 36.5481 60.0694 35.8155 60.0694Z" fill="#2D88EA"/>
<path d="M62.3457 45.519C61.0049 45.5237 59.6693 45.6849 58.3661 45.9991V16.4178C58.3661 16.067 58.2263 15.7306 57.9775 15.4826L43.3859 0.932008C43.1372 0.683922 42.7999 0.544509 42.4481 0.544434H3.97951C1.78169 0.544434 0 2.32112 0 4.51277V75.9429C0 78.1345 1.78169 79.9112 3.97951 79.9112H54.3866C55.2987 79.9064 56.1814 79.5893 56.8871 79.0131C63.3676 81.1878 70.5245 79.3389 75.131 74.3001C79.7375 69.2613 80.9234 61.9844 78.154 55.7503C75.3847 49.5162 69.1832 45.5025 62.3457 45.519ZM43.7746 5.0604L53.8375 15.095H45.1011C44.3685 15.095 43.7746 14.5028 43.7746 13.7722V5.0604ZM3.97951 77.2657C3.2469 77.2657 2.65301 76.6734 2.65301 75.9429V4.51277C2.65301 3.78222 3.2469 3.18999 3.97951 3.18999H41.1216V13.7722C41.1216 15.9639 42.9033 17.7406 45.1011 17.7406H55.7131V46.8417C49.7586 49.3059 45.6833 54.8806 45.1526 61.2876C44.6218 67.6945 47.7245 73.8605 53.1928 77.2657H3.97951ZM62.3457 77.2657C54.287 77.2657 47.7541 70.7512 47.7541 62.7151C47.7541 54.679 54.287 48.1645 62.3457 48.1645C70.4043 48.1645 76.9372 54.679 76.9372 62.7151C76.9277 70.7472 70.4004 77.2562 62.3457 77.2657Z" fill="#2D88EA"/>
</svg>
