<svg width="80" height="80" fill="none" xmlns="http://www.w3.org/2000/svg"><circle cx="40" cy="40" r="40" fill="url(#a)"/><path d="m53.28 41.44-9.535 9.12h-3.847v-3.68l9.535-9.12 3.847 3.68Zm5.687-1.28c0 .48-.502.96-1.003 1.44l-4.182 4-1.506-1.44 4.35-4.16-1.004-.96-1.171 1.12-3.847-3.68 3.68-3.36c.334-.32 1.003-.32 1.505 0l2.342 2.24c.334.32.334.96 0 1.44-.335.32-.67.64-.67.96 0 .32.335.64.67.96.502.48 1.004.96.836 1.44ZM25.345 52.8V27.2h11.71v8h8.363v2.4l3.346-3.2v-.8L38.727 24H25.345C23.505 24 22 25.44 22 27.2v25.6c0 1.76 1.506 3.2 3.345 3.2h20.073c1.84 0 3.346-1.44 3.346-3.2H25.345Zm13.382-4.64c-.334 0-.669.16-.836.16l-.837-3.52h-2.509l-3.512 2.72 1.003-4.32h-2.509l-1.672 8h2.509l4.85-4.16 1.004 3.68h1.673l.836-.16v-2.4Z" fill="#fff"/><defs><linearGradient id="a" x1="0" y1="40" x2="74.667" y2="61.97" gradientUnits="userSpaceOnUse"><stop stop-color="#3369E7"/><stop offset="1" stop-color="#8E43E7"/></linearGradient></defs></svg>